<svg width="168" height="200" viewBox="0 0 168 200" fill="none" xmlns="http://www.w3.org/2000/svg">
	<path d="M166.83 41.17L126.83 1.17C126.458 0.798664 126.017 0.504207 125.531 0.303455C125.046 0.102702 124.525 -0.000411943 124 1.23681e-06H44C40.8174 1.23681e-06 37.7652 1.26428 35.5147 3.51472C33.2643 5.76516 32 8.8174 32 12V32H12C8.8174 32 5.76515 33.2643 3.51472 35.5147C1.26428 37.7652 0 40.8174 0 44V188C0 191.183 1.26428 194.235 3.51472 196.485C5.76515 198.736 8.8174 200 12 200H124C127.183 200 130.235 198.736 132.485 196.485C134.736 194.235 136 191.183 136 188V168H156C159.183 168 162.235 166.736 164.485 164.485C166.736 162.235 168 159.183 168 156V44C168 43.4746 167.897 42.9542 167.697 42.4686C167.496 41.983 167.201 41.5417 166.83 41.17ZM128 188C128 189.061 127.579 190.078 126.828 190.828C126.078 191.579 125.061 192 124 192H12C10.9391 192 9.92172 191.579 9.17157 190.828C8.42143 190.078 8 189.061 8 188V44C8 42.9391 8.42143 41.9217 9.17157 41.1716C9.92172 40.4214 10.9391 40 12 40H90.34L128 77.66V188ZM160 156C160 157.061 159.579 158.078 158.828 158.828C158.078 159.579 157.061 160 156 160H136V76C136 75.4746 135.897 74.9542 135.697 74.4686C135.496 73.983 135.201 73.5417 134.83 73.17L94.83 33.17C94.4583 32.7987 94.017 32.5042 93.5314 32.3035C93.0458 32.1027 92.5254 31.9996 92 32H40V12C40 10.9391 40.4214 9.92172 41.1716 9.17157C41.9217 8.42143 42.9391 8 44 8H122.34L160 45.66V156ZM96 124C96 125.061 95.5786 126.078 94.8284 126.828C94.0783 127.579 93.0609 128 92 128H44C42.9391 128 41.9217 127.579 41.1716 126.828C40.4214 126.078 40 125.061 40 124C40 122.939 40.4214 121.922 41.1716 121.172C41.9217 120.421 42.9391 120 44 120H92C93.0609 120 94.0783 120.421 94.8284 121.172C95.5786 121.922 96 122.939 96 124ZM96 156C96 157.061 95.5786 158.078 94.8284 158.828C94.0783 159.579 93.0609 160 92 160H44C42.9391 160 41.9217 159.579 41.1716 158.828C40.4214 158.078 40 157.061 40 156C40 154.939 40.4214 153.922 41.1716 153.172C41.9217 152.421 42.9391 152 44 152H92C93.0609 152 94.0783 152.421 94.8284 153.172C95.5786 153.922 96 154.939 96 156Z" fill="white"/>
</svg>
