<svg width="127" height="100" viewBox="0 0 127 100" fill="none" xmlns="http://www.w3.org/2000/svg">
<path d="M5 95.7566V90.418C5 69.7789 21.7313 53.0476 42.3704 53.0476C63.0095 53.0476 79.7407 69.7789 79.7407 90.418V95.7566" stroke="white" stroke-width="8.00793" stroke-linecap="round"/>
<path d="M69.0635 63.7249C69.0635 48.9828 81.0145 37.0317 95.7566 37.0317C110.499 37.0317 122.45 48.9828 122.45 63.7249V66.3942" stroke="white" stroke-width="8.00793" stroke-linecap="round"/>
<path d="M42.3704 53.0476C54.1639 53.0476 63.7249 43.4867 63.7249 31.6931C63.7249 19.8994 54.1639 10.3386 42.3704 10.3386C30.5766 10.3386 21.0159 19.8994 21.0159 31.6931C21.0159 43.4867 30.5766 53.0476 42.3704 53.0476Z" stroke="white" stroke-width="8.00793" stroke-linecap="round" stroke-linejoin="round"/>
<path d="M95.7566 37.0317C104.602 37.0317 111.772 29.8612 111.772 21.0159C111.772 12.1706 104.602 5 95.7566 5C86.911 5 79.7407 12.1706 79.7407 21.0159C79.7407 29.8612 86.911 37.0317 95.7566 37.0317Z" stroke="white" stroke-width="8.00793" stroke-linecap="round" stroke-linejoin="round"/>
</svg>
