<?xml version="1.0" standalone="no"?>
<!DOCTYPE svg PUBLIC "-//W3C//DTD SVG 1.1//EN" "http://www.w3.org/Graphics/SVG/1.1/DTD/svg11.dtd" >
<svg>
<metadata>
Created by FontForge 20090914 at Wed Jan 27 22:59:53 2016
 By www-data
2015 Iconian Fonts - www.iconian.com
</metadata>
<defs>
<font id="BeamWeapon" horiz-adv-x="924" >
  <font-face 
    font-family="Beam Weapon"
    font-weight="400"
    font-stretch="normal"
    units-per-em="1000"
    panose-1="0 0 0 0 0 0 0 0 0 0"
    ascent="800"
    descent="-200"
    x-height="626"
    cap-height="626"
    bbox="-99 -170.999 1536 808"
    underline-thickness="50"
    underline-position="-75"
    unicode-range="U+0020-U+2122"
  />
<missing-glyph horiz-adv-x="500" 
 />
    <glyph glyph-name=".notdef" horiz-adv-x="500" 
 />
    <glyph glyph-name="space" unicode=" " horiz-adv-x="421" 
 />
    <glyph glyph-name="space" unicode="&#xa0;" horiz-adv-x="421" 
 />
    <glyph glyph-name="FL0021h" unicode="!" horiz-adv-x="284" 
d="M42 164v-164h200v164h-200zM242 626h-200v-388h200v388z" />
    <glyph glyph-name="FL0022h" unicode="&#x22;" horiz-adv-x="509" 
d="M278 626l0.000976562 -248.999c27.333 0 52.666 1.66699 75.999 5s43.333 8.66602 60 15.999s29.667 16.833 39 28.5s14 26.167 14 43.5v156h-189zM42.001 626.001l0.000976562 -248.999c27.333 0 52.666 1.66699 75.999 5s43.333 8.66602 60 15.999
s29.667 16.833 39 28.5s14 26.167 14 43.5v156h-189z" />
    <glyph glyph-name="FL002Ah" unicode="#" 
d="M490 125l-82 141v-266h-200v125h-83l-98 150h181v75h-83l-98 150h181v126h200v-126h108v126h200v-126h85l96 -150h-181v-75h85l96 -150h-181v-125h-200v125h-26zM408 275h108v75h-24l-84 140v-215z" />
    <glyph glyph-name="FL0025h" unicode="$" horiz-adv-x="920" 
d="M621 742v-115.999h257v-164h-257v-74h40c40.667 0 75 -4.83301 103 -14.5s50.333 -22.667 67 -39s28.667 -35.5 36 -57.5s11 -45 11 -69v-6c0 -26 -3.66699 -51 -11 -75s-19.333 -45.5 -36 -64.5s-39 -34.167 -67 -45.5s-62.333 -17 -103 -17h-40v-121h-125v121h-72v-121
h-125v121h-257v164h257v74h-57c-38 0 -69.833 5 -95.5 15s-46.334 23.5 -62.001 40.5s-26.667 36.667 -33 59s-9.5 46.166 -9.5 71.499c0 29.333 3.66699 56.333 11 81s19.333 46 36 64s38.834 32 66.501 42s62.167 15 103.5 15h40v116h125v-116h72v116h125zM424 238.001
v-74h72v74h-72zM424 462.001v-74h72v74h-72zM622 238.001l-1.00098 0.00195312v-74h1c13.333 1.33301 24.333 3.5 33 6.5s15.667 10.5 21 22.5v18c-5.33301 11.333 -11.666 18.166 -18.999 20.499s-17 4.16602 -29 5.49902zM298.999 462.003l-0.999023 -0.00195312
c-13.333 -1.33301 -24.333 -3.5 -33 -6.5s-15.667 -10.5 -21 -22.5v-18c5.33301 -11.333 12.166 -18.166 20.499 -20.499s18.5 -4.16602 30.5 -5.49902l4 -1v74z" />
    <glyph glyph-name="FL0030h" unicode="%" horiz-adv-x="1128" 
d="M845 625h-209l-353 -625h209zM929 207c8 0 14.333 -2.83301 19 -8.5s7 -12.167 7 -19.5v-46c0 -6.66699 -2.33301 -13 -7 -19s-11 -9 -19 -9h-104c-8 0 -14.167 3 -18.5 9s-6.5 12.333 -6.5 19v46c0 7.33301 2.16699 13.833 6.5 19.5s10.833 8.5 19.5 8.5h103zM776 313
c-25.333 0 -45.333 -3.83301 -60 -11.5s-25.667 -18.167 -33 -31.5s-12 -29.166 -14 -47.499s-3 -37.833 -3 -58.5v-15c0 -21.333 1 -41.166 3 -59.499s6.66699 -34.166 14 -47.499s18.333 -23.666 33 -30.999s34.667 -11 60 -11h199c25.333 0 45.333 3.66699 60 11
s25.834 17.666 33.501 30.999s12.5 29.166 14.5 47.499s3 38.166 3 59.499v15c0 20.667 -1 40.167 -3 58.5s-6.83301 34.166 -14.5 47.499s-18.834 23.833 -33.501 31.5s-34.667 11.5 -60 11.5h-199zM305 519c8 0 14.333 -2.83301 19 -8.5s7 -12.167 7 -19.5v-46
c0 -6.66699 -2.33301 -13 -7 -19s-11 -9 -19 -9h-104c-8 0 -14.167 3 -18.5 9s-6.5 12.333 -6.5 19v46c0 7.33301 2.16699 13.833 6.5 19.5s10.833 8.5 19.5 8.5h103zM152 625c-25.333 0 -45.333 -3.83301 -60 -11.5s-25.667 -18.167 -33 -31.5s-12 -29.166 -14 -47.499
s-3 -37.833 -3 -58.5v-15c0 -21.333 1 -41.166 3 -59.499s6.66699 -34.166 14 -47.499s18.333 -23.666 33 -30.999s34.667 -11 60 -11h199c25.333 0 45.333 3.66699 60 11s25.834 17.666 33.501 30.999s12.5 29.166 14.5 47.499s3 38.166 3 59.499v15
c0 20.667 -1 40.167 -3 58.5s-6.83301 34.166 -14.5 47.499s-18.834 23.833 -33.501 31.5s-34.667 11.5 -60 11.5h-199z" />
    <glyph glyph-name="FL0026h" unicode="&#x26;" horiz-adv-x="965" 
d="M842 388l-578.004 0.00195312v40c0 13.333 6.33301 22.333 19 27s25.334 7 38.001 7h444v164h-486c-41.333 0 -75.666 -4.5 -102.999 -13.5s-49.166 -21.5 -65.499 -37.5s-28 -34.833 -35 -56.5s-10.5 -44.834 -10.5 -69.501v-19c0 -9.33301 1.83301 -19.666 5.5 -30.999
s8.83398 -22.333 15.501 -33s14.5 -20.167 23.5 -28.5s18.5 -14.5 28.5 -18.5c-8 -4 -17.5 -9.66699 -28.5 -17s-21.5 -16.5 -31.5 -27.5s-18.5 -24.167 -25.5 -39.5s-10.5 -33 -10.5 -53v-19c0 -24 3.66699 -46 11 -66s19.333 -37.167 36 -51.5s38.834 -25.5 66.501 -33.5
s62.167 -12 103.5 -12h285l84 140v-209h200v173c0 25.333 -2.33301 50.166 -7 74.499s-10.334 44.166 -17.001 59.499h134zM263.996 379.002l106 -141h197c16.667 -1.33301 30.167 -8.5 40.5 -21.5s17.166 -26.5 20.499 -40.5v-12h-307
c-21.333 0 -36.166 2.83301 -44.499 8.5s-12.5 16.167 -12.5 31.5v175z" />
    <glyph glyph-name="FL0027h" unicode="'" horiz-adv-x="284" 
d="M42 626l0.000976562 -248.999c27.333 0 53.166 1.66699 77.499 5s45.5 8.66602 63.5 15.999s32.333 16.833 43 28.5s16 26.167 16 43.5v156h-200z" />
    <glyph glyph-name="FL0028h" unicode="(" horiz-adv-x="524" 
d="M482 523l-0.000976562 163.998h-220c-50 0 -89.667 -7.5 -119 -22.5s-51.5 -35.833 -66.5 -62.5s-24.5 -58.167 -28.5 -94.5s-6 -75.833 -6 -118.5v-158c0 -43.333 2 -83.166 6 -119.499s13.5 -67.666 28.5 -93.999s37.167 -47 66.5 -62s69 -22.5 119 -22.5h220v164h-174
c-10.667 0 -19.667 2.33301 -27 7s-13.5 10.5 -18.5 17.5s-9.16699 15 -12.5 24s-6 17.833 -8 26.5v276c2 8.66699 4.66699 17.5 8 26.5s7.83301 17 13.5 24s12.334 12.833 20.001 17.5s17.167 7 28.5 7h170z" />
    <glyph glyph-name="FL0029h" unicode=")" horiz-adv-x="524" 
d="M42 523v163.998h220c50 0 89.667 -7.5 119 -22.5s51.5 -35.833 66.5 -62.5s24.5 -58.167 28.5 -94.5s6 -75.833 6 -118.5v-158c0 -43.333 -2 -83.166 -6 -119.499s-13.5 -67.666 -28.5 -93.999s-37.167 -47 -66.5 -62s-69 -22.5 -119 -22.5h-220v164h174
c10.667 0 19.667 2.33301 27 7s13.5 10.5 18.5 17.5s9.16699 15 12.5 24s6 17.833 8 26.5v276c-2 8.66699 -4.66699 17.5 -8 26.5s-7.83301 17 -13.5 24s-12.5 12.833 -20.5 17.5s-17.333 7 -28 7h-170z" />
    <glyph glyph-name="FL0F98h" unicode="*" horiz-adv-x="291" 
d="M169 476l70 52l-32 33l52 15l-34 76l-50 -21l7 45h-87l6 -45l-44 21l-25 -76l45 -12l-41 -38l74 -50l30 41z" />
    <glyph glyph-name="FL002Bh" unicode="+" horiz-adv-x="613" 
d="M232 499v-111h-205l98 -150h107v-110h150v110h204l-96 150h-108v111h-150z" />
    <glyph glyph-name="FL002Ch" unicode="," horiz-adv-x="284" 
d="M42 164l0.000976562 -248.999c27.333 0 53.166 1.66699 77.499 5s45.5 8.66602 63.5 15.999s32.333 16.833 43 28.5s16 26.167 16 43.5v156h-200z" />
    <glyph glyph-name="FL002Dh" unicode="-" horiz-adv-x="523" 
d="M400 388h-373l98 -150h371z" />
    <glyph glyph-name="FL002Eh" unicode="." horiz-adv-x="284" 
d="M42 164v-164h200v164h-200z" />
    <glyph glyph-name="FL002Fh" unicode="/" horiz-adv-x="616" 
d="M371 625h218l-344 -625h-218z" />
    <glyph glyph-name="FL0023h" unicode="0" 
d="M362 395v-164h200v164h-200zM262 626c-50 0 -89.667 -7.5 -119 -22.5s-51.5 -35.833 -66.5 -62.5s-24.5 -58.167 -28.5 -94.5s-6 -75.833 -6 -118.5v-30c0 -43.333 2 -83.166 6 -119.499s13.5 -67.666 28.5 -93.999s37.167 -47 66.5 -62s69 -22.5 119 -22.5h399
c50.667 0 90.667 7.5 120 22.5s51.5 35.667 66.5 62s24.5 57.666 28.5 93.999s6 76.166 6 119.499v30c0 42.667 -2 82.167 -6 118.5s-13.5 67.833 -28.5 94.5s-37.167 47.5 -66.5 62.5s-69.333 22.5 -120 22.5h-399zM612 462c22 0 39.167 -7.83301 51.5 -23.5
s18.5 -32.834 18.5 -51.501v-148c0 -18 -6.16699 -35 -18.5 -51s-29.5 -24 -51.5 -24h-304c-10 0 -19.167 2.33301 -27.5 7s-15.333 10.5 -21 17.5s-10 15 -13 24s-4.5 17.833 -4.5 26.5v148c0 20.667 6 38.334 18 53.001s29.333 22 52 22h300z" />
    <glyph glyph-name="FL0031h" unicode="1" horiz-adv-x="366" 
d="M324 626v-626h-200v462h-97l97 164h200z" />
    <glyph glyph-name="FL0032h" unicode="2" horiz-adv-x="920" 
d="M42 208c0 24 3.66699 46.999 11 68.999s19.333 41.167 36 57.5s38.834 29.333 66.501 39s62.167 14.5 103.5 14.5h370c11.333 1.33301 20.833 3.33301 28.5 6s14.167 9.66699 19.5 21v18c-5.33301 12 -12.833 19.5 -22.5 22.5s-21.167 5.16699 -34.5 6.5h-578v164h619
c40.667 0 75 -5 103 -15s50.333 -24 67 -42s28.667 -39.333 36 -64s11 -51.667 11 -81c0 -25.333 -3.16699 -49.166 -9.5 -71.499s-17.333 -42 -33 -59s-36.334 -30.5 -62.001 -40.5s-57.5 -15 -95.5 -15h-387c-11.333 -1.33301 -20.833 -3.33301 -28.5 -6
s-14.167 -9.66699 -19.5 -21v-47h635v-164h-836v208z" />
    <glyph glyph-name="FL0033h" unicode="3" horiz-adv-x="853" 
d="M92 388l93.9971 -150h388c11.333 0 20.333 -3.16699 27 -9.5s10 -14.5 10 -24.5c0 -15.333 -4.16699 -25.833 -12.5 -31.5s-23.166 -8.5 -44.499 -8.5h-512v-164h552c40.667 0 75 4 103 12s50.333 19.167 67 33.5s28.667 31.5 36 51.5s11 42 11 66v19
c0 20 -3.5 37.667 -10.5 53s-15.5 28.5 -25.5 39.5s-20.5 20.167 -31.5 27.5s-20.5 13 -28.5 17c10 4 19.5 10.167 28.5 18.5s16.833 17.833 23.5 28.5s11.834 21.667 15.501 33s5.5 21.666 5.5 30.999v19c0 24.667 -3.5 47.834 -10.5 69.501s-18.667 40.5 -35 56.5
s-38.333 28.5 -66 37.5s-61.834 13.5 -102.501 13.5h-532v-164h490c12.667 0 25.334 -2.33301 38.001 -7s19 -13.667 19 -27c0 -16 -5.16699 -26.667 -15.5 -32s-24.166 -8 -41.499 -8h-440z" />
    <glyph glyph-name="FL0034h" unicode="4" horiz-adv-x="853" 
d="M242 625h-200v-387h493l76 120v-358h200v626h-200v-238h-369v237z" />
    <glyph glyph-name="FL0035h" unicode="5" horiz-adv-x="920" 
d="M878 208c0 24 -3.66699 47 -11 69s-19.333 41.167 -36 57.5s-39 29.333 -67 39s-62.333 14.5 -103 14.5h-417l-3 74h637v164h-836v-388h586c11.333 -1.33301 20.833 -3.33301 28.5 -6s14.167 -9.66699 19.5 -21v-18c-5.33301 -12 -12.833 -19.5 -22.5 -22.5
s-21.167 -5.16699 -34.5 -6.5h-577v-164h619c40.667 0 75 5.66699 103 17s50.333 26.5 67 45.5s28.667 40.5 36 64.5s11 49 11 75v6z" />
    <glyph glyph-name="FL0036h" unicode="6" horiz-adv-x="921" 
d="M879 191l-0.000976562 38.998c0 22.667 -3.66699 43.667 -11 63s-17.5 36 -30.5 50s-28.667 25 -47 33s-38.5 12 -60.5 12h-488c4 18 11.167 34.833 21.5 50.5s26.5 23.5 48.5 23.5h567v164h-617c-50 0 -89.667 -7.5 -119 -22.5s-51.5 -35.833 -66.5 -62.5
s-24.5 -58.167 -28.5 -94.5s-6 -75.833 -6 -118.5v-30c0 -43.333 2 -83.166 6 -119.499s13.5 -67.666 28.5 -93.999s37.167 -47 66.5 -62s69 -22.5 119 -22.5h402c40.667 0 74.334 4.16699 101.001 12.5s48 20.5 64 36.5s27.667 35.833 35 59.5s12.333 51.167 15 82.5z
M679.999 203.998c0 -17.333 -5.33301 -28.333 -16 -33s-24.667 -7 -42 -7h-314c-10.667 0 -19.667 2.33301 -27 7s-13.5 10.5 -18.5 17.5s-9.16699 15 -12.5 24s-6 17.833 -8 26.5v119l76 -120h313c12 0 23.167 -3 33.5 -9s15.5 -14.333 15.5 -25z" />
    <glyph glyph-name="FL0037h" unicode="7" horiz-adv-x="728" 
d="M97 0l327 462h-382v164h644v-140l-352 -486h-237z" />
    <glyph glyph-name="FL0038h" unicode="8" horiz-adv-x="925" 
d="M279 626c-41.333 0 -75.6699 -4.5 -103.003 -13.5s-49.166 -21.5 -65.499 -37.5s-28 -34.833 -35 -56.5s-10.5 -44.834 -10.5 -69.501v-19c0 -9.33301 1.83301 -19.666 5.5 -30.999s8.83398 -22.333 15.501 -33s14.5 -20.167 23.5 -28.5s18.5 -14.5 28.5 -18.5
c-8 -4 -17.5 -9.66699 -28.5 -17s-21.5 -16.5 -31.5 -27.5s-18.5 -24.167 -25.5 -39.5s-10.5 -33 -10.5 -53v-19c0 -24 3.66699 -46 11 -66s19.333 -37.167 36 -51.5s38.834 -25.5 66.501 -33.5s62.167 -12 103.5 -12h407c40.667 0 75 4 103 12s50.333 19.167 67 33.5
s28.667 31.5 36 51.5s11 42 11 66v19c0 20 -3.5 37.667 -10.5 53s-15.5 28.5 -25.5 39.5s-20.5 20.167 -31.5 27.5s-20.5 13 -28.5 17c10 4 19.5 10.167 28.5 18.5s16.833 17.833 23.5 28.5s11.834 21.667 15.501 33s5.5 21.666 5.5 30.999v19
c0 24.667 -3.5 47.834 -10.5 69.501s-18.667 40.5 -35 56.5s-38.333 28.5 -66 37.5s-61.834 13.5 -102.501 13.5h-367zM298.996 164c-21.333 0 -36.168 2.83301 -44.501 8.5s-12.5 16.167 -12.5 31.5v154l76 -120h328c11.333 0 20.333 -3.16699 27 -9.5s10 -14.5 10 -24.5
c0 -15.333 -4.16699 -25.833 -12.5 -31.5s-23.166 -8.5 -44.499 -8.5h-327zM263.994 388l-0.00195312 40c0 13.333 6.33301 22.333 19 27s25.334 7 38.001 7h290c12 -1.33301 23.333 -4.33301 34 -9s16 -13 16 -25c0 -16 -5.16699 -26.667 -15.5 -32s-24.166 -8 -41.499 -8
h-340z" />
    <glyph glyph-name="FL0039h" unicode="9" horiz-adv-x="921" 
d="M41 438l0.000976562 -38.999c0 -22.667 3.66699 -43.834 11 -63.501s17.5 -36.667 30.5 -51s28.667 -25.666 47 -33.999s38.5 -12.5 60.5 -12.5h413l75 121v-121c-4 -18 -11.167 -34.833 -21.5 -50.5s-26.5 -23.5 -48.5 -23.5h-567v-164h617c50 0 89.667 7.5 119 22.5
s51.5 35.833 66.5 62.5s24.5 58.167 28.5 94.5s6 75.833 6 118.5v30c0 42.667 -2 82.334 -6 119.001s-13.5 68.167 -28.5 94.5s-37.167 47 -66.5 62s-69 22.5 -119 22.5h-402c-41.333 0 -75.333 -4 -102 -12s-47.834 -19.833 -63.501 -35.5s-27.167 -35.334 -34.5 -59.001
s-12.333 -50.834 -15 -81.501zM240.001 422.001c0 17.333 5.33301 28.333 16 33s24.667 7 42 7h314c10.667 0 19.667 -2.16699 27 -6.5s13.5 -10 18.5 -17s9.16699 -15 12.5 -24s6 -17.833 8 -26.5h-389c-12 0 -23.167 3 -33.5 9s-15.5 14.333 -15.5 25z" />
    <glyph glyph-name="FL003Ah" unicode=":" horiz-adv-x="284" 
d="M42 164v-164h200v164h-200zM42 462v-164h200v164h-200z" />
    <glyph glyph-name="FL003Bh" unicode=";" horiz-adv-x="284" 
d="M42 462v-164h200v164h-200zM42 164l0.000976562 -248.999c27.333 0 53.166 1.66699 77.499 5s45.5 8.66602 63.5 15.999s32.333 16.833 43 28.5s16 26.167 16 43.5v156h-200z" />
    <glyph glyph-name="FL003Ch" unicode="&#x3c;" horiz-adv-x="526" 
d="M282 625h217l-254 -313l254 -312h-218l-254 312z" />
    <glyph glyph-name="FL003Dh" unicode="=" horiz-adv-x="656" 
d="M533 498h-506l98 -150h504zM533 277h-506l98 -150h504z" />
    <glyph glyph-name="FL003Eh" unicode="&#x3e;" horiz-adv-x="524" 
d="M27 625h216l254 -313l-253 -312h-217l252 312z" />
    <glyph glyph-name="FL003Fh" unicode="?" horiz-adv-x="852" 
d="M610 238c38 0 69.832 5.00293 95.499 15.0029s46.334 23.5 62.001 40.5s26.667 36.667 33 59s9.5 46.166 9.5 71.499c0 29.333 -3.66699 56.333 -11 81s-19.333 46 -36 64s-39 32 -67 42s-62.333 15 -103 15h-551v-164h509c13.333 -1.33301 24.833 -3.5 34.5 -6.5
s17.167 -10.5 22.5 -22.5v-18c-5.33301 -11.333 -12.166 -18.333 -20.499 -21s-18.5 -4.66699 -30.5 -6h-213c-41.333 0 -75.833 -3.33301 -103.5 -10s-49.834 -16.334 -66.501 -29.001s-28.667 -28.334 -36 -47.001s-11 -40 -11 -64h483zM126.999 164.003v-164h200v164
h-200z" />
    <glyph glyph-name="FL0040h" unicode="@" horiz-adv-x="1065" 
d="M312 523c-11.333 0 -20.832 -2.33008 -28.499 -6.99707s-14.334 -10.5 -20.001 -17.5s-10.167 -15 -13.5 -24s-6 -17.833 -8 -26.5v-276c2 -8.66699 4.66699 -17.5 8 -26.5s7.5 -17 12.5 -24s11.167 -12.833 18.5 -17.5s16.333 -7 27 -7h679v-164h-725
c-50 0 -89.667 7.5 -119 22.5s-51.5 35.667 -66.5 62s-24.5 57.666 -28.5 93.999s-6 76.166 -6 119.499v158c0 42.667 2 82.167 6 118.5s13.5 67.833 28.5 94.5s37.167 47.5 66.5 62.5s69 22.5 119 22.5h541c48.667 0 87.5 -8.66699 116.5 -26s51.167 -39 66.5 -65
s25.333 -54.333 30 -85s7 -59.334 7 -86.001c0 -43.333 -3 -81.666 -9 -114.999s-17.167 -61.666 -33.5 -84.999s-38.833 -41 -67.5 -53s-65.334 -18 -110.001 -18h-387c-25.333 0 -45.333 3.66699 -60 11s-25.667 17.666 -33 30.999s-12 29.166 -14 47.499
s-3 38.166 -3 59.499v15c0 20.667 1 40.167 3 58.5s6.66699 34.166 14 47.499s18.333 23.833 33 31.5s34.667 11.5 60 11.5h232c25.333 0 45.333 -3.83301 60 -11.5s25.834 -18.167 33.501 -31.5s12.5 -29.166 14.5 -47.499s3 -37.833 3 -58.5v-53c10 0 18.667 2.33301 26 7
s13.5 10.5 18.5 17.5s9 14.833 12 23.5s5.5 17.334 7.5 26.001v109c-2 8.66699 -4.66699 17.5 -8 26.5s-7.83301 17 -13.5 24s-12.5 12.833 -20.5 17.5s-17.333 7 -28 7h-441zM597.001 356.003h-126c-8.66699 0 -15.167 -2.83301 -19.5 -8.5s-6.5 -12.167 -6.5 -19.5v-36
c0 -6.66699 2.16699 -13 6.5 -19s10.5 -9 18.5 -9h153v64c0 7.33301 -2.33301 13.833 -7 19.5s-11 8.5 -19 8.5z" />
    <glyph glyph-name="FL0080h" unicode="A" 
d="M882 626v-625.998h-200v140l-84 -140h-335c-50.667 0 -90.667 7.5 -120 22.5s-51.5 35.667 -66.5 62s-24.5 57.666 -28.5 93.999s-6 76.166 -6 119.499v30c0 42.667 2 82.167 6 118.5s13.5 67.833 28.5 94.5s37.167 47.5 66.5 62.5s69.333 22.5 120 22.5h619z
M312 462.002c-22.667 0 -40 -7.66797 -52 -23.001s-18 -32.666 -18 -51.999v-148c0 -18 6.16699 -35 18.5 -51s29.5 -24 51.5 -24h370v298h-370z" />
    <glyph glyph-name="FL0042h" unicode="B" horiz-adv-x="920" 
d="M878 163c0 -24 -3.66699 -46 -11 -66s-19.333 -37.167 -36 -51.5s-39 -25.5 -67 -33.5s-62.333 -12 -103 -12h-619v626h599c40.667 0 74.834 -4.5 102.501 -13.5s49.667 -21.5 66 -37.5s28 -34.833 35 -56.5s10.5 -44.834 10.5 -69.501v-19
c0 -9.33301 -1.83301 -19.666 -5.5 -30.999s-8.83398 -22.333 -15.501 -33s-14.5 -20.167 -23.5 -28.5s-18.5 -14.5 -28.5 -18.5c8 -4 17.5 -9.66699 28.5 -17s21.5 -16.5 31.5 -27.5s18.5 -24.167 25.5 -39.5s10.5 -33 10.5 -53v-19zM242 388h357.002
c17.333 0 31.166 2.66699 41.499 8s15.5 16 15.5 32c0 13.333 -6.33301 22.333 -19 27s-25.334 7 -38.001 7h-357v-74zM242.002 358l0.000976562 -194h379c21.333 0 36.166 2.83301 44.499 8.5s12.5 16.167 12.5 31.5c0 10 -3.33301 18.167 -10 24.5s-15.667 9.5 -27 9.5
h-323z" />
    <glyph glyph-name="FL0043h" unicode="C" horiz-adv-x="853" 
d="M811 462l-0.000976562 163.998h-549c-50 0 -89.667 -7.5 -119 -22.5s-51.5 -35.833 -66.5 -62.5s-24.5 -58.167 -28.5 -94.5s-6 -75.833 -6 -118.5v-30c0 -43.333 2 -83.166 6 -119.499s13.5 -67.666 28.5 -93.999s37.167 -47 66.5 -62s69 -22.5 119 -22.5h549v164h-503
c-10.667 0 -19.667 2.33301 -27 7s-13.5 10.5 -18.5 17.5s-9.16699 15 -12.5 24s-6 17.833 -8 26.5v148c2 8.66699 4.66699 17.5 8 26.5s7.83301 17 13.5 24s12.334 12.833 20.001 17.5s17.167 7 28.5 7h499z" />
    <glyph glyph-name="FL0044h" unicode="D" 
d="M42 626v-625.998h619c50.667 0 90.667 7.5 120 22.5s51.5 35.667 66.5 62s24.5 57.666 28.5 93.999s6 76.166 6 119.499v30c0 42.667 -2 82.167 -6 118.5s-13.5 67.833 -28.5 94.5s-37.167 47.5 -66.5 62.5s-69.333 22.5 -120 22.5h-619zM612 462.002
c22.667 0 40 -7.66797 52 -23.001s18 -32.666 18 -51.999v-148c0 -18 -6.16699 -35 -18.5 -51s-29.5 -24 -51.5 -24h-370v438l84 -140h286z" />
    <glyph glyph-name="FL007Dh" unicode="E" horiz-adv-x="853" 
d="M665 388h-423v74h569v164h-769v-626h769v164h-569v194l76 -120h443z" />
    <glyph glyph-name="FL0024h" unicode="F" horiz-adv-x="808" 
d="M620 388h-378v74h524v164h-724v-626h200v358l76 -120h398z" />
    <glyph glyph-name="FL0047h" unicode="G" 
d="M312 462l570.001 -0.00390625v164h-620c-50 0 -89.667 -7.5 -119 -22.5s-51.5 -35.833 -66.5 -62.5s-24.5 -58.167 -28.5 -94.5s-6 -75.833 -6 -118.5v-30c0 -43.333 2 -83.166 6 -119.499s13.5 -67.666 28.5 -93.999s37.167 -47 66.5 -62s69 -22.5 119 -22.5h336l84 140
v-140h200v104c0 42.667 -2 81.5 -6 116.5s-13.5 65 -28.5 90s-37.167 44.167 -66.5 57.5s-69 20 -119 20h-321l98 -150h177c18 0 32.667 -6.5 44 -19.5s18.666 -27.167 21.999 -42.5v-12h-370c-11.333 0 -21.333 2.33301 -30 7s-16 10.667 -22 18s-10.5 15.333 -13.5 24
s-4.5 17.334 -4.5 26.001v148c0 18.667 6.16699 35.834 18.5 51.501s29.5 23.5 51.5 23.5z" />
    <glyph glyph-name="FL0048h" unicode="H" 
d="M682 625h200v-625h-200v238h-364l-76 120v-358h-200v626h200v-238h440v237z" />
    <glyph glyph-name="FL0049h" unicode="I" horiz-adv-x="708" 
d="M666 0v164h-212v298h212v164h-624v-164h212v-298h-212v-164h624z" />
    <glyph glyph-name="FL004Ah" unicode="J" 
d="M682 239c0 -8.66699 -1.66602 -17.501 -4.99902 -26.501s-8 -17 -14 -24s-13.333 -12.833 -22 -17.5s-18.334 -7 -29.001 -7h-304c-10 0 -19.167 2.33301 -27.5 7s-15.333 10.667 -21 18s-10 15.333 -13 24s-4.5 17.334 -4.5 26.001v59h-200
c0 -43.333 2 -83.166 6 -119.499s13.5 -67.666 28.5 -93.999s37.167 -47 66.5 -62s69 -22.5 119 -22.5h399c50.667 0 90.667 7.5 120 22.5s51.5 35.667 66.5 62s24.5 57.666 28.5 93.999s6 76.166 6 119.499v327h-200v-386z" />
    <glyph glyph-name="FL006Bh" unicode="K" horiz-adv-x="877" 
d="M242 388l314 -0.000976562c17.333 0 31.166 2.66699 41.499 8s15.5 16 15.5 32v198h199v-196c0 -9.33301 -1.83301 -19.666 -5.5 -30.999s-8.66699 -22.333 -15 -33s-13.833 -20.167 -22.5 -28.5s-18 -14.5 -28 -18.5c8 -4 17.5 -9.66699 28.5 -17s21.333 -16.5 31 -27.5
s17.834 -24.167 24.501 -39.5s10 -33 10 -53v-182h-200v204c0 10 -3.33301 18.167 -10 24.5s-15.667 9.5 -27 9.5h-280l-76 120v-358h-200v626h200v-238z" />
    <glyph glyph-name="FL004Ch" unicode="L" horiz-adv-x="808" 
d="M242 164v462h-200v-626h724v164h-524z" />
    <glyph glyph-name="FL004Dh" unicode="M" horiz-adv-x="1142" 
d="M502 0c-9.33301 2.66699 -17.832 6.83398 -25.499 12.501s-13.167 11.167 -16.5 16.5l-218 397v-426h-200v626h251c13.333 0 28.833 -4.66699 46.5 -14s32.167 -22.333 43.5 -39l188 -345l188 345c10.667 16.667 25.167 29.667 43.5 39s34.166 14 47.499 14h250v-626
h-199v426l-219 -397c-3.33301 -5.33301 -8.83301 -10.833 -16.5 -16.5s-16.167 -9.83398 -25.5 -12.501h-138z" />
    <glyph glyph-name="FL004Eh" unicode="N" horiz-adv-x="925" 
d="M366 573l317 -373v426h200v-626h-233c-13.333 0 -28 4.5 -44 13.5s-31.333 22.167 -46 39.5l-318 373v-426h-200v626h233c13.333 0 28 -4.66699 44 -14s31.667 -22.333 47 -39z" />
    <glyph glyph-name="FL004Fh" unicode="O" horiz-adv-x="934" 
d="M262 626c-50 0 -89.667 -7.5 -119 -22.5s-51.5 -35.833 -66.5 -62.5s-24.5 -58.167 -28.5 -94.5s-6 -75.833 -6 -118.5v-30c0 -43.333 2 -83.166 6 -119.499s13.5 -67.666 28.5 -93.999s37.167 -47 66.5 -62s69 -22.5 119 -22.5h409c50.667 0 90.667 7.5 120 22.5
s51.5 35.667 66.5 62s24.5 57.666 28.5 93.999s6 76.166 6 119.499v30c0 42.667 -2 82.167 -6 118.5s-13.5 67.833 -28.5 94.5s-37.167 47.5 -66.5 62.5s-69.333 22.5 -120 22.5h-409zM622 462c22 0 39.167 -7.83301 51.5 -23.5s18.5 -32.834 18.5 -51.501v-148
c0 -18 -6.16699 -35 -18.5 -51s-29.5 -24 -51.5 -24h-314c-10 0 -19.167 2.33301 -27.5 7s-15.333 10.5 -21 17.5s-10 15 -13 24s-4.5 17.833 -4.5 26.5v148c0 20.667 6 38.334 18 53.001s29.333 22 52 22h310z" />
    <glyph glyph-name="FL0050h" unicode="P" horiz-adv-x="920" 
d="M878 416v-55.999c0 -31.333 -3.5 -59 -10.5 -83s-18.833 -44.333 -35.5 -61s-39 -29.334 -67 -38.001s-62.667 -13 -104 -13h-343l-76 120v-285h-200v626h619c41.333 0 76 -4.66699 104 -14s50.333 -23 67 -41s28.5 -40 35.5 -66s10.5 -55.667 10.5 -89zM242 314.001
l377 0.00195312c13.333 1.33301 24.833 6.33301 34.5 15s17.167 19 22.5 31c0.666992 3.33301 1.16699 6.16602 1.5 8.49902s0.5 4.16602 0.5 5.49902v28c0 2.66699 -0.166992 5 -0.5 7s-0.833008 4.33301 -1.5 7c-5.33301 12 -12.833 22.333 -22.5 31
s-21.167 13.667 -34.5 15h-377v-148z" />
    <glyph glyph-name="FL0051h" unicode="Q" 
d="M542 277l73 -113h1c10 0 19.167 2.33301 27.5 7s15.333 10.5 21 17.5s10 15 13 24s4.5 17.833 4.5 26.5v148c0 20.667 -6 38.334 -18 53.001s-29.333 22 -52 22h-300c-22 0 -39.167 -7.83301 -51.5 -23.5s-18.5 -32.834 -18.5 -51.501v-148c0 -18 6.16699 -35 18.5 -51
s29.5 -24 51.5 -24h126l-73 113h177zM661 626c50.667 0 90.668 -7.49707 120.001 -22.4971s51.5 -35.833 66.5 -62.5s24.5 -58.167 28.5 -94.5s6 -75.833 6 -118.5v-30c0 -39.333 -1.66699 -75.5 -5 -108.5s-10.5 -62.333 -21.5 -88s-27.333 -46.834 -49 -63.501
s-50.834 -28 -87.501 -34l63 -96h-177l-144 232v-140h-199c-50 0 -89.667 7.5 -119 22.5s-51.5 35.667 -66.5 62s-24.5 57.666 -28.5 93.999s-6 76.166 -6 119.499v30c0 42.667 2 82.167 6 118.5s13.5 67.833 28.5 94.5s37.167 47.5 66.5 62.5s69 22.5 119 22.5h399z" />
    <glyph glyph-name="FL0052h" unicode="R" horiz-adv-x="920" 
d="M878 416v-17.999c-2.66699 -30.667 -9.66699 -59.5 -21 -86.5s-32.333 -49.833 -63 -68.5c25.333 -9.33301 45.666 -24.666 60.999 -45.999s23 -44.333 23 -69v-128h-200v123c0 9.33301 -4.16699 18.333 -12.5 27s-18.166 13.667 -29.499 15h-318l-76 120v-285h-200v626
h619c41.333 0 76 -5.16699 104 -15.5s50.333 -24.833 67 -43.5s28.5 -40.834 35.5 -66.501s10.5 -53.834 10.5 -84.501zM242 314.001h381.002c13.333 2 24.166 7.33301 32.499 16s15.166 18.667 20.499 30c2 10 3 19.667 3 29c0 10 -1 19 -3 27
c-5.33301 12 -12.833 22.333 -22.5 31s-21.167 13.667 -34.5 15h-377v-148z" />
    <glyph glyph-name="FL0053h" unicode="S" horiz-adv-x="920" 
d="M878 208v-5.99902c0 -26 -3.66699 -51 -11 -75s-19.333 -45.5 -36 -64.5s-39 -34.167 -67 -45.5s-62.333 -17 -103 -17h-619v164h578c13.333 1.33301 24.833 3.5 34.5 6.5s17.167 10.5 22.5 22.5v18c-5.33301 11.333 -11.5 18.333 -18.5 21s-16.167 4.66699 -27.5 6h-389
c-38 0 -69.833 5 -95.5 15s-46.334 23.5 -62.001 40.5s-26.667 36.667 -33 59s-9.5 46.166 -9.5 71.499c0 29.333 3.66699 56.333 11 81s19.333 46 36 64s38.834 32 66.501 42s62.167 15 103.5 15h619v-164h-578c-13.333 -1.33301 -24.833 -3.5 -34.5 -6.5
s-17.167 -10.5 -22.5 -22.5v-18c5.33301 -11.333 11.5 -18.333 18.5 -21s16.167 -4.66699 27.5 -6h372c40.667 0 75 -4.83301 103 -14.5s50.333 -22.667 67 -39s28.667 -35.5 36 -57.5s11 -45 11 -69z" />
    <glyph glyph-name="FL0055h" unicode="T" horiz-adv-x="853" 
d="M42 626v-164h284v-462h200v462h285v164h-769z" />
    <glyph glyph-name="FL0056h" unicode="U" 
d="M682 239c0 -8.66699 -1.66602 -17.501 -4.99902 -26.501s-8 -17 -14 -24s-13.333 -12.833 -22 -17.5s-18.334 -7 -29.001 -7h-304c-10 0 -19.167 2.33301 -27.5 7s-15.333 10.667 -21 18s-10 15.333 -13 24s-4.5 17.334 -4.5 26.001v387h-200v-328
c0 -43.333 2 -83.166 6 -119.499s13.5 -67.666 28.5 -93.999s37.167 -47 66.5 -62s69 -22.5 119 -22.5h399c50.667 0 90.667 7.5 120 22.5s51.5 35.667 66.5 62s24.5 57.666 28.5 93.999s6 76.166 6 119.499v327h-200v-386z" />
    <glyph glyph-name="FL0057h" unicode="V" horiz-adv-x="1013" 
d="M515 171l-7.99805 -7l-9 7l-254 455h-217l328 -597c4 -7.33301 11.167 -14 21.5 -20s20.166 -9 29.499 -9h201c9.33301 0 19.166 3 29.499 9s17.5 12.667 21.5 20l328 597h-217z" />
    <glyph glyph-name="FL0058h" unicode="W" horiz-adv-x="1339" 
d="M803 0c-9.33301 2.66699 -17.833 6.83398 -25.5 12.501s-13.167 11.167 -16.5 16.5l-92 167l-91 -167c-2.66699 -5.33301 -8 -10.833 -16 -16.5s-16.667 -9.83398 -26 -12.501h-139c-9.33301 2.66699 -17.833 6.83398 -25.5 12.501s-13.167 11.167 -16.5 16.5l-328 597
h217l223 -398l93 166l-128 232h218l222 -398l223 398h217l-329 -597c-2 -5.33301 -7 -10.833 -15 -16.5s-16.667 -9.83398 -26 -12.501h-139z" />
    <glyph glyph-name="FL00B2h" unicode="X" horiz-adv-x="877" 
d="M242 0h-201.001v182c0 20 3.33301 37.667 10 53s14.834 28.5 24.501 39.5s20 20.167 31 27.5s20.5 13 28.5 17c-10 4 -19.333 10.167 -28 18.5s-16.167 17.833 -22.5 28.5s-11.333 21.667 -15 33s-5.5 21.666 -5.5 30.999v196h199v-238h293
c17.333 0 31.166 2.66699 41.499 8s15.5 16 15.5 32v198h199v-196c0 -9.33301 -1.83301 -19.666 -5.5 -30.999s-8.66699 -22.333 -15 -33s-13.833 -20.167 -22.5 -28.5s-18 -14.5 -28 -18.5c8 -4 17.5 -9.66699 28.5 -17s21.333 -16.5 31 -27.5s17.834 -24.167 24.501 -39.5
s10 -33 10 -53v-182h-200v204c0 10 -3.33301 18.167 -10 24.5s-15.667 9.5 -27 9.5h-291l-65 102v-340z" />
    <glyph glyph-name="FL005Ah" unicode="Y" 
d="M682 405l-0.000976562 220h200v-161c0 -43.333 -2 -83.166 -6 -119.499s-13.5 -67.833 -28.5 -94.5s-37.167 -47.5 -66.5 -62.5s-69.333 -22.5 -120 -22.5h-99v-165h-200v165h-100c-50 0 -89.667 7.5 -119 22.5s-51.5 35.833 -66.5 62.5s-24.5 58.167 -28.5 94.5
s-6 76.166 -6 119.499v162h200v-221c0 -8.66699 1.5 -17.5 4.5 -26.5s7.33301 -17 13 -24s12.667 -12.833 21 -17.5s17.5 -7 27.5 -7h304c10.667 0 20.334 2.33301 29.001 7s16 10.5 22 17.5s10.667 15 14 24s5 17.833 5 26.5z" />
    <glyph glyph-name="FL005Bh" unicode="Z" horiz-adv-x="808" 
d="M42 0v143l415 319h-415v164h724v-143l-415 -319h415v-164h-724z" />
    <glyph glyph-name="FL005Dh" unicode="[" horiz-adv-x="478" 
d="M436 523v164h-394v-754h394v164h-194v426h194z" />
    <glyph glyph-name="FL005Ch" unicode="\" horiz-adv-x="616" 
d="M245 625h-218l344 -625h218z" />
    <glyph glyph-name="FL005Eh" unicode="]" horiz-adv-x="478" 
d="M42 523v164h394v-754h-394v164h194v426h-194z" />
    <glyph glyph-name="FL0060h" unicode="^" horiz-adv-x="1013" 
d="M515 454l-7.99805 7l-9 -7l-254 -454h-217l328 596c4 7.33301 11.167 14 21.5 20s20.166 9 29.499 9h201c9.33301 0 19.166 -3 29.499 -9s17.5 -12.667 21.5 -20l328 -596h-217z" />
    <glyph glyph-name="FL01D9h" unicode="_" horiz-adv-x="763" 
d="M721 81h-679v-108h679v108z" />
    <glyph glyph-name="FL00BCh" unicode="`" horiz-adv-x="310" 
d="M283 625l-92 123h-164l100 -123h156z" />
    <glyph glyph-name="FL0061h" unicode="a" horiz-adv-x="1013" 
d="M368 220l-123.998 -220h-217l328 597c4 7.33301 11.167 14 21.5 20s20.166 9 29.499 9h201c9.33301 0 19.166 -3 29.499 -9s17.5 -12.667 21.5 -20l328 -597h-217l-55 99h-269zM507.002 462l-9 -7l-115 -207h247l-115 207z" />
    <glyph glyph-name="FL0062h" unicode="b" horiz-adv-x="920" 
d="M878 163c0 -24 -3.66699 -46 -11 -66s-19.333 -37.167 -36 -51.5s-39 -25.5 -67 -33.5s-62.333 -12 -103 -12h-619v626h599c40.667 0 74.834 -4.5 102.501 -13.5s49.667 -21.5 66 -37.5s28 -34.833 35 -56.5s10.5 -44.834 10.5 -69.501v-19
c0 -9.33301 -1.83301 -19.666 -5.5 -30.999s-8.83398 -22.333 -15.501 -33s-14.5 -20.167 -23.5 -28.5s-18.5 -14.5 -28.5 -18.5c8 -4 17.5 -9.66699 28.5 -17s21.5 -16.5 31.5 -27.5s18.5 -24.167 25.5 -39.5s10.5 -33 10.5 -53v-19zM242 388h357.002
c17.333 0 31.166 2.66699 41.499 8s15.5 16 15.5 32c0 13.333 -6.33301 22.333 -19 27s-25.334 7 -38.001 7h-357v-74zM242.002 358l0.000976562 -194h379c21.333 0 36.166 2.83301 44.499 8.5s12.5 16.167 12.5 31.5c0 10 -3.33301 18.167 -10 24.5s-15.667 9.5 -27 9.5
h-323z" />
    <glyph glyph-name="FL0063h" unicode="c" horiz-adv-x="853" 
d="M811 462l-0.000976562 163.998h-549c-50 0 -89.667 -7.5 -119 -22.5s-51.5 -35.833 -66.5 -62.5s-24.5 -58.167 -28.5 -94.5s-6 -75.833 -6 -118.5v-30c0 -43.333 2 -83.166 6 -119.499s13.5 -67.666 28.5 -93.999s37.167 -47 66.5 -62s69 -22.5 119 -22.5h549v164h-503
c-10.667 0 -19.667 2.33301 -27 7s-13.5 10.5 -18.5 17.5s-9.16699 15 -12.5 24s-6 17.833 -8 26.5v148c2 8.66699 4.66699 17.5 8 26.5s7.83301 17 13.5 24s12.334 12.833 20.001 17.5s17.167 7 28.5 7h499z" />
    <glyph glyph-name="FL0064h" unicode="d" 
d="M42 626v-625.998h200v140l84 -140h335c50.667 0 90.667 7.5 120 22.5s51.5 35.667 66.5 62s24.5 57.666 28.5 93.999s6 76.166 6 119.499v30c0 42.667 -2 82.167 -6 118.5s-13.5 67.833 -28.5 94.5s-37.167 47.5 -66.5 62.5s-69.333 22.5 -120 22.5h-619zM612 462.002
c22.667 0 40 -7.66797 52 -23.001s18 -32.666 18 -51.999v-148c0 -18 -6.16699 -35 -18.5 -51s-29.5 -24 -51.5 -24h-370v298h370z" />
    <glyph glyph-name="FL0065h" unicode="e" horiz-adv-x="853" 
d="M665 388h-423v37c0 11.333 3 20.333 9 27s13.667 10 23 10h537v164h-672c-10 0 -20.833 -3 -32.5 -9s-22.167 -14 -31.5 -24s-17.166 -21.333 -23.499 -34s-9.5 -25.667 -9.5 -39v-414c0 -13.333 3.16699 -26.333 9.5 -39s14.166 -24 23.499 -34s19.833 -18 31.5 -24
s22.5 -9 32.5 -9h672v164h-537c-9.33301 0 -17 3.33301 -23 10s-9 15.667 -9 27v157l76 -120h443z" />
    <glyph glyph-name="FL0066h" unicode="f" horiz-adv-x="808" 
d="M620 388h-378.001v37c0 11.333 3 20.333 9 27s13.667 10 23 10h492v164h-627c-10 0 -20.833 -3 -32.5 -9s-22.167 -14 -31.5 -24s-17.166 -21.333 -23.499 -34s-9.5 -25.667 -9.5 -39v-520h200v358l76 -120h398z" />
    <glyph glyph-name="FL0067h" unicode="g" horiz-adv-x="896" 
d="M312 462l542 -0.00390625v164h-592c-50 0 -89.667 -7.5 -119 -22.5s-51.5 -35.833 -66.5 -62.5s-24.5 -58.167 -28.5 -94.5s-6 -75.833 -6 -118.5v-30c0 -43.333 2 -83.166 6 -119.499s13.5 -67.666 28.5 -93.999s37.167 -47 66.5 -62s69 -22.5 119 -22.5h308l84 140
v-140h200v332h-200v-168h-342c-11.333 0 -21.333 2.33301 -30 7s-16 10.667 -22 18s-10.5 15.333 -13.5 24s-4.5 17.334 -4.5 26.001v148c0 18.667 6.16699 35.834 18.5 51.501s29.5 23.5 51.5 23.5z" />
    <glyph glyph-name="FL0068h" unicode="h" horiz-adv-x="853" 
d="M611 625h200v-625h-200v238h-293l-76 120v-358h-200v626h200v-238h369v237z" />
    <glyph glyph-name="FL0069h" unicode="i" horiz-adv-x="285" 
d="M243 626h-201v-626h201v626z" />
    <glyph glyph-name="FL006Ah" unicode="j" 
d="M682 239c0 -8.66699 -1.66602 -17.501 -4.99902 -26.501s-8 -17 -14 -24s-13.333 -12.833 -22 -17.5s-18.334 -7 -29.001 -7h-304c-10 0 -19.167 2.33301 -27.5 7s-15.333 10.667 -21 18s-10 15.333 -13 24s-4.5 17.334 -4.5 26.001v59h-200
c0 -43.333 2 -83.166 6 -119.499s13.5 -67.666 28.5 -93.999s37.167 -47 66.5 -62s69 -22.5 119 -22.5h399c50.667 0 90.667 7.5 120 22.5s51.5 35.667 66.5 62s24.5 57.666 28.5 93.999s6 76.166 6 119.499v327h-200v-386z" />
    <glyph glyph-name="FLE003h" unicode="k" horiz-adv-x="856" 
d="M242 388h174l195 238h218l-251 -313l251 -313h-219l-193 238h-99l-76 120v-358h-200v626h200v-238z" />
    <glyph glyph-name="FL006Ch" unicode="l" horiz-adv-x="808" 
d="M242 164l0.000976562 462h-200v-520c0 -13.333 3.16699 -26.333 9.5 -39s14.166 -24 23.499 -34s19.833 -18 31.5 -24s22.5 -9 32.5 -9h627v164h-524z" />
    <glyph glyph-name="FL006Dh" unicode="m" horiz-adv-x="1142" 
d="M502 0c-9.33301 2.66699 -17.832 6.83398 -25.499 12.501s-13.167 11.167 -16.5 16.5l-218 397v-426h-200v626h251c13.333 0 28.833 -4.66699 46.5 -14s32.167 -22.333 43.5 -39l188 -345l188 345c10.667 16.667 25.167 29.667 43.5 39s34.166 14 47.499 14h250v-626
h-199v426l-219 -397c-3.33301 -5.33301 -8.83301 -10.833 -16.5 -16.5s-16.167 -9.83398 -25.5 -12.501h-138z" />
    <glyph glyph-name="FL006Eh" unicode="n" horiz-adv-x="925" 
d="M366 573l317 -373v426h200v-626h-233c-13.333 0 -28 4.5 -44 13.5s-31.333 22.167 -46 39.5l-318 373v-426h-200v626h233c13.333 0 28 -4.66699 44 -14s31.667 -22.333 47 -39z" />
    <glyph glyph-name="FL006Fh" unicode="o" 
d="M262 626c-50 0 -89.667 -7.5 -119 -22.5s-51.5 -35.833 -66.5 -62.5s-24.5 -58.167 -28.5 -94.5s-6 -75.833 -6 -118.5v-30c0 -43.333 2 -83.166 6 -119.499s13.5 -67.666 28.5 -93.999s37.167 -47 66.5 -62s69 -22.5 119 -22.5h399c50.667 0 90.667 7.5 120 22.5
s51.5 35.667 66.5 62s24.5 57.666 28.5 93.999s6 76.166 6 119.499v30c0 42.667 -2 82.167 -6 118.5s-13.5 67.833 -28.5 94.5s-37.167 47.5 -66.5 62.5s-69.333 22.5 -120 22.5h-399zM612 462c22 0 39.167 -7.83301 51.5 -23.5s18.5 -32.834 18.5 -51.501v-148
c0 -18 -6.16699 -35 -18.5 -51s-29.5 -24 -51.5 -24h-304c-10 0 -19.167 2.33301 -27.5 7s-15.333 10.5 -21 17.5s-10 15 -13 24s-4.5 17.833 -4.5 26.5v148c0 20.667 6 38.334 18 53.001s29.333 22 52 22h300z" />
    <glyph glyph-name="FL0070h" unicode="p" horiz-adv-x="920" 
d="M878 416v-55.999c0 -31.333 -3.5 -59 -10.5 -83s-18.833 -44.333 -35.5 -61s-39 -29.334 -67 -38.001s-62.667 -13 -104 -13h-343l-76 120v-285h-200v626h619c41.333 0 76 -4.66699 104 -14s50.333 -23 67 -41s28.5 -40 35.5 -66s10.5 -55.667 10.5 -89zM242 314.001
l377 0.00195312c13.333 1.33301 24.833 6.33301 34.5 15s17.167 19 22.5 31c0.666992 3.33301 1.16699 6.16602 1.5 8.49902s0.5 4.16602 0.5 5.49902v28c0 2.66699 -0.166992 5 -0.5 7s-0.833008 4.33301 -1.5 7c-5.33301 12 -12.833 22.333 -22.5 31
s-21.167 13.667 -34.5 15h-377v-148z" />
    <glyph glyph-name="FL0071h" unicode="q" 
d="M542 277l73 -113h1c10 0 19.167 2.33301 27.5 7s15.333 10.5 21 17.5s10 15 13 24s4.5 17.833 4.5 26.5v148c0 20.667 -6 38.334 -18 53.001s-29.333 22 -52 22h-300c-22 0 -39.167 -7.83301 -51.5 -23.5s-18.5 -32.834 -18.5 -51.501v-148c0 -18 6.16699 -35 18.5 -51
s29.5 -24 51.5 -24h126l-73 113h177zM661 626c50.667 0 90.668 -7.49707 120.001 -22.4971s51.5 -35.833 66.5 -62.5s24.5 -58.167 28.5 -94.5s6 -75.833 6 -118.5v-30c0 -39.333 -1.66699 -75.5 -5 -108.5s-10.5 -62.333 -21.5 -88s-27.333 -46.834 -49 -63.501
s-50.834 -28 -87.501 -34l63 -96h-177l-144 232v-140h-199c-50 0 -89.667 7.5 -119 22.5s-51.5 35.667 -66.5 62s-24.5 57.666 -28.5 93.999s-6 76.166 -6 119.499v30c0 42.667 2 82.167 6 118.5s13.5 67.833 28.5 94.5s37.167 47.5 66.5 62.5s69 22.5 119 22.5h399z" />
    <glyph glyph-name="FL0072h" unicode="r" horiz-adv-x="920" 
d="M878 416v-17.999c-2.66699 -30.667 -9.66699 -59.5 -21 -86.5s-32.333 -49.833 -63 -68.5c25.333 -9.33301 45.666 -24.666 60.999 -45.999s23 -44.333 23 -69v-128h-200v123c0 9.33301 -4.16699 18.333 -12.5 27s-18.166 13.667 -29.499 15h-318l-76 120v-285h-200v626
h619c41.333 0 76 -5.16699 104 -15.5s50.333 -24.833 67 -43.5s28.5 -40.834 35.5 -66.501s10.5 -53.834 10.5 -84.501zM242 314.001h381.002c13.333 2 24.166 7.33301 32.499 16s15.166 18.667 20.499 30c2 10 3 19.667 3 29c0 10 -1 19 -3 27
c-5.33301 12 -12.833 22.333 -22.5 31s-21.167 13.667 -34.5 15h-377v-148z" />
    <glyph glyph-name="FL0073h" unicode="s" horiz-adv-x="877" 
d="M835 202v5.99902c0 24 -3.66699 47 -11 69s-19.333 41.167 -36 57.5s-39 29.333 -67 39s-62.333 14.5 -103 14.5h-329c-11.333 1.33301 -20.5 3.33301 -27.5 6s-13.167 9.66699 -18.5 21v18c5.33301 12 12.833 19.5 22.5 22.5s21.167 5.16699 34.5 6.5h535v164h-576
c-41.333 0 -75.833 -5 -103.5 -15s-49.834 -24 -66.501 -42s-28.667 -39.333 -36 -64s-11 -51.667 -11 -81c0 -25.333 3.16699 -49.166 9.5 -71.499s17.333 -42 33 -59s36.334 -30.5 62.001 -40.5s57.5 -15 95.5 -15h346c11.333 -1.33301 20.5 -3.33301 27.5 -6
s13.167 -9.66699 18.5 -21v-18c-5.33301 -12 -12.833 -19.5 -22.5 -22.5s-21.167 -5.16699 -34.5 -6.5h-535v-164h576c40.667 0 75 5.66699 103 17s50.333 26.5 67 45.5s28.667 40.5 36 64.5s11 49 11 75z" />
    <glyph glyph-name="FL0074h" unicode="t" horiz-adv-x="808" 
d="M766 626v-164h-262v-462h-200v462h-262v164h724z" />
    <glyph glyph-name="FL0075h" unicode="u" 
d="M682 239c0 -8.66699 -1.66602 -17.501 -4.99902 -26.501s-8 -17 -14 -24s-13.333 -12.833 -22 -17.5s-18.334 -7 -29.001 -7h-304c-10 0 -19.167 2.33301 -27.5 7s-15.333 10.667 -21 18s-10 15.333 -13 24s-4.5 17.334 -4.5 26.001v387h-200v-328
c0 -43.333 2 -83.166 6 -119.499s13.5 -67.666 28.5 -93.999s37.167 -47 66.5 -62s69 -22.5 119 -22.5h399c50.667 0 90.667 7.5 120 22.5s51.5 35.667 66.5 62s24.5 57.666 28.5 93.999s6 76.166 6 119.499v327h-200v-386z" />
    <glyph glyph-name="FL0076h" unicode="v" horiz-adv-x="1013" 
d="M515 171l-7.99805 -7l-9 7l-254 455h-217l328 -597c4 -7.33301 11.167 -14 21.5 -20s20.166 -9 29.499 -9h201c9.33301 0 19.166 3 29.499 9s17.5 12.667 21.5 20l328 597h-217z" />
    <glyph glyph-name="FL0077h" unicode="w" horiz-adv-x="1339" 
d="M803 0c-9.33301 2.66699 -17.833 6.83398 -25.5 12.501s-13.167 11.167 -16.5 16.5l-92 167l-91 -167c-2.66699 -5.33301 -8 -10.833 -16 -16.5s-16.667 -9.83398 -26 -12.501h-139c-9.33301 2.66699 -17.833 6.83398 -25.5 12.501s-13.167 11.167 -16.5 16.5l-328 597
h217l223 -398l93 166l-128 232h218l222 -398l223 398h217l-329 -597c-2 -5.33301 -7 -10.833 -15 -16.5s-16.667 -9.83398 -26 -12.501h-139z" />
    <glyph glyph-name="FL0078h" unicode="x" horiz-adv-x="778" 
d="M27 626h216l146 -179l145 179h217l-254 -313l254 -313h-218l-144 179l-145 -179h-217l252 313z" />
    <glyph glyph-name="FL0079h" unicode="y" 
d="M682 405l-0.000976562 220h200v-161c0 -43.333 -2 -83.166 -6 -119.499s-13.5 -67.833 -28.5 -94.5s-37.167 -47.5 -66.5 -62.5s-69.333 -22.5 -120 -22.5h-99v-165h-200v165h-100c-50 0 -89.667 7.5 -119 22.5s-51.5 35.833 -66.5 62.5s-24.5 58.167 -28.5 94.5
s-6 76.166 -6 119.499v162h200v-221c0 -8.66699 1.5 -17.5 4.5 -26.5s7.33301 -17 13 -24s12.667 -12.833 21 -17.5s17.5 -7 27.5 -7h304c10.667 0 20.334 2.33301 29.001 7s16 10.5 22 17.5s10.667 15 14 24s5 17.833 5 26.5z" />
    <glyph glyph-name="FL007Ah" unicode="z" horiz-adv-x="808" 
d="M42 0v143l415 319h-415v164h724v-143l-415 -319h415v-164h-724z" />
    <glyph glyph-name="FL005Fh" unicode="{" 
d="M682 0h200v327c0 42.667 -2 82.334 -6 119.001s-13.5 68.167 -28.5 94.5s-37.167 47 -66.5 62s-69.333 22.5 -120 22.5h-399c-50 0 -89.667 -7.5 -119 -22.5s-51.5 -35.667 -66.5 -62s-24.5 -57.833 -28.5 -94.5s-6 -76.334 -6 -119.001v-328h200v286l77 -120h363v-165z
M242 386c0 8.66699 1.49902 17.333 4.49902 26s7.33301 16.667 13 24s12.667 13.333 21 18s17.5 7 27.5 7h304c10.667 0 20.334 -2.33301 29.001 -7s16 -10.5 22 -17.5s10.667 -15 14 -24s5 -17.833 5 -26.5v-71h-440v71z" />
    <glyph glyph-name="FL007Ch" unicode="|" horiz-adv-x="284" 
d="M42 771h200v-917h-200v917z" />
    <glyph glyph-name="FL00AEh" unicode="}" horiz-adv-x="920" 
d="M878 424l0.000976562 -18.999c-2.66699 -31.333 -7.66699 -58.333 -15 -81s-19 -41.334 -35 -56.001s-37.5 -25.5 -64.5 -32.5s-61.167 -10.5 -102.5 -10.5h-343l-76 120v-345h-200v626h619c44.667 0 80.5 -4.66699 107.5 -14s48.167 -22.833 63.5 -40.5
s26.166 -39 32.499 -64s10.833 -52.833 13.5 -83.5zM242.001 374.001h380.999c12.667 1.33301 23.334 3.5 32.001 6.5s15.667 10.167 21 21.5v31c-5.33301 12 -12.833 19.5 -22.5 22.5s-21.167 5.16699 -34.5 6.5h-377v-88z" />
    <glyph glyph-name="FL007Eh" unicode="~" horiz-adv-x="635" 
d="M506 238l102 150h-167l-55 -85l-58 85h-199l-102 -150h167l54 83l59 -83h199z" />
    <glyph glyph-name="FL007Fh" horiz-adv-x="255" 
 />
    <glyph glyph-name="FL00A1h" unicode="&#xa1;" horiz-adv-x="284" 
d="M242 462v164h-200v-164h200zM42 0h200v388h-200v-388z" />
    <glyph glyph-name="FL00A2h" unicode="&#xa2;" horiz-adv-x="853" 
d="M420 626l150 0.000976562v-58h241v-164h-241v-182h241v-164h-241v-58h-150v58h-158c-50 0 -89.667 4.83301 -119 14.5s-51.5 24.667 -66.5 45s-24.5 46 -28.5 77s-6 68.167 -6 111.5c0 50 2 91.833 6 125.5s13.5 60.667 28.5 81s37.167 34.666 66.5 42.999
s69 12.5 119 12.5h158v58zM420 404.001h-107.999c-11.333 0 -20.833 -2.33301 -28.5 -7s-14.334 -10.5 -20.001 -17.5s-10.167 -15 -13.5 -24s-6 -17.833 -8 -26.5v-32c2 -8.66699 4.66699 -17.5 8 -26.5s7.5 -17 12.5 -24s11.167 -12.833 18.5 -17.5s16.333 -7 27 -7h112
v182z" />
    <glyph glyph-name="FL00A3h" unicode="&#xa3;" horiz-adv-x="870" 
d="M828 164l0.00292969 -164.002h-786v164h137v18c0 9.33301 3.66699 28 11 56h-50l-98 150h170c-6.66699 12.667 -10 26.667 -10 42v19c0 24.667 3.5 47.834 10.5 69.501s18.667 40.5 35 56.5s38.166 28.5 65.499 37.5s61.666 13.5 102.999 13.5h117v-164h-75
c-12.667 0 -25.334 -2.33301 -38.001 -7s-19 -13.667 -19 -27c0 -15.333 4.33301 -25.833 13 -31.5s20.667 -8.5 36 -8.5h173l93 -150h-305c-21.333 -3.33301 -32 -14.666 -32 -33.999c0 -14.667 3.5 -25 10.5 -31s19.5 -9 37.5 -9h401z" />
    <glyph glyph-name="FL00A4h" unicode="&#xa4;" horiz-adv-x="778" 
d="M371 468l-127.999 157.002h-216l166 -206c-6 -13.333 -9.83301 -28.5 -11.5 -45.5s-2.5 -35.167 -2.5 -54.5v-15c0 -19.333 0.833008 -37.5 2.5 -54.5s5.16699 -32.167 10.5 -45.5l-165 -204h217l126 155h37l126 -155h218l-166 204c6 13.333 9.83301 28.333 11.5 45
s2.5 35 2.5 55v15c0 19.333 -0.833008 37.666 -2.5 54.999s-5.83398 32.666 -12.501 45.999l167 205h-217l-127 -157h-36zM447.001 367.002c8 0 14.333 -2.83301 19 -8.5s7 -12.167 7 -19.5v-56c0 -6.66699 -2.33301 -13 -7 -19s-11 -9 -19 -9h-114c-8 0 -14.167 3 -18.5 9
s-6.5 12.333 -6.5 19v56c0 7.33301 2.16699 13.833 6.5 19.5s10.833 8.5 19.5 8.5h113z" />
    <glyph glyph-name="FL00A5h" unicode="&#xa5;" 
d="M682 625h199.999v-139c0 -43.333 -2 -83.166 -6 -119.499s-13.5 -67.833 -28.5 -94.5s-37.167 -47.5 -66.5 -62.5s-69.333 -22.5 -120 -22.5h-99v-41h102l95 -113h-197v-41h102l95 -114h-197v-49h-200v49h-101l-97 114h198v41h-101l-97 113h198v41h-100
c-50 0 -89.667 7.5 -119 22.5s-51.5 35.833 -66.5 62.5s-24.5 58.167 -28.5 94.5s-6 76.166 -6 119.499v140h200v-199c0 -8.66699 1.5 -17.5 4.5 -26.5s7.33301 -17 13 -24s12.667 -12.833 21 -17.5s17.5 -7 27.5 -7h304c10.667 0 20.334 2.33301 29.001 7s16 10.5 22 17.5
s10.667 15 14 24s5 17.833 5 26.5v198z" />
    <glyph glyph-name="FL00A6h" unicode="&#xa6;" horiz-adv-x="284" 
d="M242 -146h-200v409h200v-409zM42 771h200v-408h-200v408z" />
    <glyph glyph-name="FL00A7h" unicode="&#xa7;" horiz-adv-x="920" 
d="M878 318v-3c0 -22 -4.83301 -42.667 -14.5 -62s-19.5 -36.666 -29.5 -51.999c10 -14.667 19.667 -30.667 29 -48s14 -35.666 14 -54.999v-6c0 -26 -3.66699 -51 -11 -75s-19.333 -45.5 -36 -64.5s-39 -34.167 -67 -45.5s-62.333 -17 -103 -17h-619v164h578
c13.333 1.33301 24.833 3.5 34.5 6.5s17.167 10.5 22.5 22.5v18c-5.33301 11.333 -12.166 18.333 -20.499 21s-18.5 4.66699 -30.5 6h-384c-38 0 -69.833 5 -95.5 15s-46.334 23.5 -62.001 40.5s-26.667 36.667 -33 59s-9.5 46.166 -9.5 71.499s4.5 47 13.5 65
s18.5 33.667 28.5 47c-9.33301 15.333 -18.5 32.166 -27.5 50.499s-13.5 37.5 -13.5 57.5c0 29.333 3.66699 56.333 11 81s19.333 46 36 64s38.834 32 66.501 42s62.167 15 103.5 15h619v-164h-578c-13.333 -1.33301 -24.833 -3.5 -34.5 -6.5s-17.167 -10.5 -22.5 -22.5v-18
c5.33301 -11.333 12.166 -18.333 20.499 -21s18.5 -4.66699 30.5 -6h367c40.667 0 75 -4.83301 103 -14.5s50.333 -22.667 67 -39s28.667 -35.5 36 -57.5s11 -45 11 -69zM626 348h-335.997c-11.333 -1.33301 -20.833 -3.66602 -28.5 -6.99902s-13.834 -10.333 -18.501 -21
l-1 -15c5.33301 -11.333 12.166 -18.333 20.499 -21s18.5 -4.66699 30.5 -6h336c11.333 1.33301 20.666 3.66602 27.999 6.99902s13.666 10.333 18.999 21l1 15c-5.33301 11.333 -12.166 18.333 -20.499 21s-18.5 4.66699 -30.5 6z" />
    <glyph glyph-name="FL00ABh" unicode="&#xa8;" horiz-adv-x="524" 
d="M42 749v-123h164v123h-164zM318 749v-123h164v123h-164z" />
    <glyph glyph-name="FL00B1h" unicode="&#xa9;" horiz-adv-x="264" 
d="M132 675c-16 0 -32.333 -4.33105 -49 -12.998c-8.66699 -4.66699 -16 -10.167 -22 -16.5s-11.333 -13.166 -16 -20.499c-4 -8.66699 -7.16699 -16.834 -9.5 -24.501s-3.5 -16.167 -3.5 -25.5c0 -18 4.33301 -34.333 13 -49c5.33301 -8.66699 11 -15.667 17 -21
s12.667 -10.666 20 -15.999c16.667 -8.66699 33.334 -13 50.001 -13c0.666992 0 5.16699 0.666992 13.5 2s20.166 5 35.499 11c8.66699 5.33301 16 10.666 22 15.999s11 12.333 15 21c9.33301 17.333 14 33.666 14 48.999c0 18 -4.66699 34.667 -14 50
c-7.33301 15.333 -20 27.666 -38 36.999c-14.667 8.66699 -30.667 13 -48 13zM132 659.002c13.333 0 26.668 -3.66699 40.001 -11c14 -7.33301 24.667 -17.666 32 -30.999s11 -27.333 11 -42c0 -13.333 -3.66699 -26.666 -11 -39.999c-8.66699 -14.667 -19 -25 -31 -31
c-13.333 -7.33301 -27 -11 -41 -11c-3.33301 0 -15.333 3 -36 9l-6 2c-12.667 9.33301 -22.667 19.666 -30 30.999c-7.33301 13.333 -11 26.666 -11 39.999c0 14.667 3.66699 28.667 11 42c7.33301 14 17.666 24.5 30.999 31.5s27 10.5 41 10.5zM164.002 560.002
c-4 -16.667 -15 -24.999 -33 -24.999c-22 0 -33 13.333 -33 40c0 28 11.667 42 35 42c13.333 0 23 -6.66699 29 -20l16 3c-7.33301 21.333 -22.333 32 -45 32c-16.667 0 -29.667 -4.83301 -39 -14.5s-14 -23.834 -14 -42.501c0 -18 4.66699 -32 14 -42s22 -15 38 -15
c25.333 0 41.333 12.333 48 37z" />
    <glyph glyph-name="FL007Bh" unicode="&#xaa;" horiz-adv-x="921" 
d="M878 328l-0.00195312 -222c0 -13.333 -3.16699 -26.333 -9.5 -39s-14.166 -24 -23.499 -34s-19.833 -18 -31.5 -24s-22.5 -9 -32.5 -9h-525c-41.333 0 -75.166 4.16699 -101.499 12.5s-47.5 20.5 -63.5 36.5s-27.667 35.833 -35 59.5s-12.333 51.167 -15 82.5v39
c0 22.667 3.66699 43.667 11 63s17.5 36 30.5 50s28.667 25 47 33s38.5 12 60.5 12h488c-4 18 -11.167 34.833 -21.5 50.5s-26.5 23.5 -48.5 23.5h-567v164h617c50 0 89.667 -7.5 119 -22.5s51.5 -35.833 66.5 -62.5s24.5 -58.167 28.5 -94.5s6 -75.833 6 -118.5z
M677.998 201v157l-76 -120h-313c-12 0 -23.167 -3 -33.5 -9s-15.5 -14.333 -15.5 -25c0 -17.333 5.33301 -28.333 16 -33s24.667 -7 42 -7h348c9.33301 0 17 3.33301 23 10s9 15.667 9 27z" />
    <glyph glyph-name="FL00ACh" unicode="&#xab;" horiz-adv-x="380" 
d="M215 193l123 -100v164l-74 56l74 56v164l-123 -100v-240zM42 193l123 -100v164l-74 56l74 56v164l-123 -100v-240z" />
    <glyph glyph-name="FL00B3h" unicode="&#xac;" horiz-adv-x="563" 
d="M521 388h-494l98 -150h246v-110h150v260z" />
    <glyph glyph-name="FL00B0h" unicode="&#xad;" horiz-adv-x="359" 
d="M317 388h-275v-150h275v150z" />
    <glyph glyph-name="FL00B5h" unicode="&#xae;" horiz-adv-x="264" 
d="M132 675c-16 0 -32.332 -4.33008 -48.999 -12.9971c-8.66699 -4.66699 -16 -10.167 -22 -16.5s-11.333 -13.166 -16 -20.499c-4 -8.66699 -7.16699 -16.834 -9.5 -24.501s-3.5 -16.167 -3.5 -25.5c0 -18 4.33301 -34.333 13 -49c10.667 -16 23 -28.333 37 -37
c14.667 -8.66699 31.334 -13 50.001 -13c0.666992 0 5.66699 0.5 15 1.5s20.666 4.83301 33.999 11.5c17.333 9.33301 29.666 21.666 36.999 36.999c9.33301 17.333 14 33.666 14 48.999c0 18 -4.66699 34.667 -14 50c-7.33301 15.333 -20 27.666 -38 36.999
c-14.667 8.66699 -30.667 13 -48 13zM132.001 659.003c13.333 0 26.667 -3.66797 40 -11.001c14 -7.33301 24.667 -17.666 32 -30.999s11 -27.333 11 -42l-3 -10.5c-2 -7 -4.66699 -17.167 -8 -30.5c-9.33301 -12.667 -19.666 -22.667 -30.999 -30
c-13.333 -7.33301 -27 -11 -41 -11c-3.33301 0 -15.333 3 -36 9l-6 2c-14 8.66699 -24 18.667 -30 30c-3.33301 13.333 -6 23.5 -8 30.5l-3 10.5c0 14.667 3.66699 28.667 11 42c7.33301 14 17.666 24.5 30.999 31.5s27 10.5 41 10.5zM89.002 521.002l17 -0.000976562v45h10
c6 0 10.333 -1.33301 13 -4c4.66699 -2 11 -10.333 19 -25l9 -16h22l-14 21l-12.5 17c-3 4 -7.16699 7.33301 -12.5 10c9.33301 0.666992 16.833 3.83398 22.5 9.50098s8.5 12.167 8.5 19.5c0 6 -2 11.667 -6 17c-3.33301 4 -7.33301 7 -12 9c-4.66699 2.66699 -14 4 -28 4
h-36v-107zM106.002 580.001l0.000976562 33h19c11.333 0 17.333 -0.333008 18 -1c6.66699 -2.66699 10 -7.66699 10 -15c0 -5.33301 -1.83301 -9.5 -5.5 -12.5s-10.834 -4.5 -21.501 -4.5h-20z" />
    <glyph glyph-name="FL00AFh" unicode="&#xaf;" horiz-adv-x="763" 
d="M721 651h-679v-108h679v108z" />
    <glyph glyph-name="FL00B9h" unicode="&#xb0;" horiz-adv-x="248" 
d="M42 625v123h164v-123h-164zM97 707v-41h54v41h-54z" />
    <glyph glyph-name="FL00B4h" unicode="&#xb1;" horiz-adv-x="613" 
d="M232 575v-111h-205l98 -150h107v-110h150v110h204l-96 150h-108v111h-150zM490 150h-463l98 -150h461z" />
    <glyph glyph-name="FL0ECFh" unicode="&#xb2;" horiz-adv-x="920" 
d="M42 208c0 24 3.66797 46.999 11.001 68.999s19.333 41.167 36 57.5s38.834 29.333 66.501 39s62.167 14.5 103.5 14.5h367c12 1.33301 22.167 3.33301 30.5 6s15.166 9.66699 20.499 21v18c-5.33301 12 -12.833 19.5 -22.5 22.5s-21.167 5.16699 -34.5 6.5h-578v164h619
c40.667 0 75 -5 103 -15s50.333 -24 67 -42s28.667 -39.333 36 -64s11 -51.667 11 -81c0 -25.333 -3.16699 -49.166 -9.5 -71.499s-17.333 -42 -33 -59s-36.334 -30.5 -62.001 -40.5s-57.5 -15 -95.5 -15h-384c-12 -1.33301 -22.167 -3.33301 -30.5 -6
s-15.166 -9.66699 -20.499 -21v-18c5.33301 -12 12.833 -19.5 22.5 -22.5s21.167 -5.16699 34.5 -6.5h578v-164h-619c-41.333 0 -75.833 5.66699 -103.5 17s-49.834 26.5 -66.501 45.5s-28.667 40.5 -36 64.5s-11 49 -11 75v6z" />
    <glyph glyph-name="FL0EA6h" unicode="&#xb3;" horiz-adv-x="921" 
d="M877 438l-0.000976562 -38.999c0 -22.667 -3.66699 -43.834 -11 -63.501s-17.5 -36.667 -30.5 -51s-28.667 -25.666 -47 -33.999s-38.5 -12.5 -60.5 -12.5h-413l-75 121v-121c4 -18 11.167 -34.833 21.5 -50.5s26.5 -23.5 48.5 -23.5h567v-164h-617
c-50 0 -89.667 7.5 -119 22.5s-51.5 35.833 -66.5 62.5s-24.5 58.167 -28.5 94.5s-6 75.833 -6 118.5v30c0 42.667 2 82.334 6 119.001s13.5 68.167 28.5 94.5s37.167 47 66.5 62s69 22.5 119 22.5h402c41.333 0 75.333 -4 102 -12s47.834 -19.833 63.501 -35.5
s27.167 -35.334 34.5 -59.001s12.333 -50.834 15 -81.501zM677.999 422.001c0 17.333 -5.33301 28.333 -16 33s-24.667 7 -42 7h-314c-10.667 0 -19.667 -2.16699 -27 -6.5s-13.5 -10 -18.5 -17s-9.16699 -15 -12.5 -24s-6 -17.833 -8 -26.5h389c12 0 23.167 3 33.5 9
s15.5 14.333 15.5 25z" />
    <glyph glyph-name="FL00B6h" unicode="&#xb4;" horiz-adv-x="310" 
d="M27 625l92 123h164l-100 -123h-156z" />
    <glyph glyph-name="FL00B7h" unicode="&#xb5;" 
d="M682 239l-0.000976562 385.999h200v-327c0 -43.333 -2 -83.166 -6 -119.499s-13.5 -67.666 -28.5 -93.999s-37.167 -47 -66.5 -62s-69.333 -22.5 -120 -22.5h-419v-146h-200v772h200v-387c0 -8.66699 1.5 -17.334 4.5 -26.001s7.33301 -16.667 13 -24
s12.667 -13.333 21 -18s17.5 -7 27.5 -7h304c10.667 0 20.334 2.33301 29.001 7s16 10.5 22 17.5s10.667 15 14 24s5 17.833 5 26.5z" />
    <glyph glyph-name="FL00BDh" unicode="&#xb6;" horiz-adv-x="769" 
d="M42 435v-18c1.33301 -15.333 3.5 -33 6.5 -53s9.16699 -39 18.5 -57s22.833 -33.167 40.5 -45.5s42.167 -18.5 73.5 -18.5v-373h200v592h70l76 120v-712h200v756h-497c-37.333 0 -68 -4.16699 -92 -12.5s-43.167 -20.666 -57.5 -36.999s-24.333 -36.333 -30 -60
s-8.5 -50.834 -8.5 -81.501z" />
    <glyph glyph-name="FL00BAh" unicode="&#xb7;" horiz-adv-x="284" 
d="M42 395v-164h200v164h-200z" />
    <glyph glyph-name="FL00BEh" unicode="&#xb8;" horiz-adv-x="231" 
d="M42 1h147v-169h-217l-71 118h141v51z" />
    <glyph glyph-name="FL0EE9h" unicode="&#xb9;" horiz-adv-x="1339" 
d="M803 625c-9.33301 -2.66699 -17.833 -6.83398 -25.5 -12.501s-13.167 -11.167 -16.5 -16.5l-92 -167l-91 167c-2.66699 5.33301 -8 10.833 -16 16.5s-16.667 9.83398 -26 12.501h-139c-9.33301 -2.66699 -17.833 -6.83398 -25.5 -12.501s-13.167 -11.167 -16.5 -16.5
l-328 -596h217l223 397l93 -166l-128 -231h218l222 397l223 -397h217l-329 596c-2 5.33301 -7 10.833 -15 16.5s-16.667 9.83398 -26 12.501h-139z" />
    <glyph glyph-name="FL0A61h" unicode="&#xba;" horiz-adv-x="468" 
d="M290 575c8 0 14.333 -2.83301 19 -8.5s7 -12.167 7 -19.5v-56c0 -6.66699 -2.33301 -13 -7 -19s-11 -9 -19 -9h-114c-8 0 -14.167 3 -18.5 9s-6.5 12.333 -6.5 19v56c0 7.33301 2.16699 13.833 6.5 19.5s10.833 8.5 19.5 8.5h113zM132 676
c-25.333 0 -45.333 -3.83301 -60 -11.5s-25.667 -18.167 -33 -31.5s-12 -29.166 -14 -47.499s-3 -37.833 -3 -58.5v-15c0 -21.333 1 -41.166 3 -59.499s6.66699 -34.166 14 -47.499s18.333 -23.666 33 -30.999s34.667 -11 60 -11h199c25.333 0 45.333 3.66699 60 11
s25.834 17.666 33.501 30.999s12.5 29.166 14.5 47.499s3 38.166 3 59.499v15c0 20.667 -1 40.167 -3 58.5s-6.83301 34.166 -14.5 47.499s-18.834 23.833 -33.501 31.5s-34.667 11.5 -60 11.5h-199z" />
    <glyph glyph-name="FL00BBh" unicode="&#xbb;" horiz-adv-x="380" 
d="M165 193l-123 -100v164l74 56l-74 56v164l123 -100v-240zM338 193l-123 -100v164l74 56l-74 56v164l123 -100v-240z" />
    <glyph glyph-name="FL0EC1h" unicode="&#xbc;" horiz-adv-x="995" 
d="M968 319l-83.001 -8c36 -45.333 54 -74 54 -86l-0.5 -1c-0.333008 -0.666992 -0.833008 -3 -1.5 -7l-86 15l-6 -102l-84 31l-65 -88l-59 44l-130 -72l6 28l-20 28l-162 -33l19 49l-180 8l52 40l-157 40l73 36l-111 64l83 6l-45 65l-5 30l84 -8l12 102
c26.667 -20.667 47.667 -31 63 -31c6.66699 0 12.334 1.33301 17.001 4l70 84l51 -43l118 64l13 -5l5 -44l170 28l-13 -50h175l-52 -43l150 -37l8 -15h-8l-66 -20l105 -59zM840.999 370l-28 7l-3 -98l19 -2zM830.999 237l-18 8l-14 -13l14 -15zM780.999 244
l-0.000976562 126l-19 7l-4 -90l-65 83v-127l20 2v62c26.667 -42 49.334 -63 68.001 -63zM673.998 245v94c-8 27.333 -18.667 41 -32 41c-10 0 -15.333 -1.33301 -16 -4c-26 -40.667 -42 -83 -48 -127h25c10 20 19.333 30 28 30c10.667 0 20 -10 28 -30zM566.998 377l-22 -7
l-12 -127l27 8zM510.998 239l0.000976562 126l-18 5l-5 -86l-67 81v-128l20 4v60c29.333 -41.333 52.666 -62 69.999 -62zM407.999 329c-6 27.333 -21.666 41.001 -46.999 41.001h-12c-28.667 -18.667 -43 -56.334 -43 -113.001c6 -13.333 19 -20 39 -20
c2.66699 0 5.5 0.166992 8.5 0.5s6.83301 0.833008 11.5 1.5c21.333 0 35.666 30 42.999 90zM297 375.001c-56 -10 -84.002 -34.666 -84.002 -73.999v-8c0 -4.66699 0.666992 -7.66699 2 -9c6.66699 -38 21.334 -57 44.001 -57c4 0 7.33301 0.666992 10 2
s7.33398 2.66602 14.001 3.99902l-2 22c-2.66699 -2.66699 -10 -4 -22 -4c-16 0 -24 8.66699 -24 26c0 19.333 5.66699 36.666 17 51.999c10.667 12 21 18 31 18c4 0 6 -0.333008 6 -1l1.5 -0.5c1 -0.333008 2.5 -1.16602 4.5 -2.49902zM200.998 370.002l-20 -3l-11 -130
l24 10zM652.998 307.002h-36l21 43zM385.998 310.002c0 -7.33301 -0.5 -13.667 -1.5 -19s-3.5 -11.333 -7.5 -18c-14 -8 -24 -12 -30 -12c-12 0 -18 10.333 -18 31v9c8.66699 26.667 19.667 40 33 40c8 0 15.333 -5.33301 22 -16c0.666992 -3.33301 1.16699 -6.33301 1.5 -9
s0.5 -4.66699 0.5 -6z" />
    <glyph glyph-name="FL0192h" unicode="&#xbd;" horiz-adv-x="1036" 
d="M1009 329c0 13.333 -28.666 31.999 -85.999 55.999c32 4 48 17.333 48 40v9l-132 39c17.333 2 26 15.667 26 41l-14 15h-154l7 44l-47 5l-130 -29l-4 8l4 21l-25 24l-117 -65l-59 41c-12 -5.33301 -23.833 -14.5 -35.5 -27.5s-25.834 -32.167 -42.501 -57.5l-72 28h-4
c-20 0 -30 -34 -30 -102l-77 8l-4 -42l37 -52l-71 -14l6 -35l73 -37l-41 -36c0 -18.667 6.66699 -28 20 -28l105 -22l-20 -25v-26l168 -16l-7 -35l20 -14l162 28v-42l20 -8l124 71l40 -43l33 8l63 77l7 -3c12.667 -7.33301 23.167 -13.166 31.5 -17.499
s17.833 -6.5 28.5 -6.5c12 0 20.333 5.33301 25 16l7 86l65 -16c12.667 6 19 16.333 19 31v6c0 -0.666992 -0.166992 -0.166992 -0.5 1.5l-1.5 7.5l-37 56h57l13 30zM988.001 318.999l-83.001 -8c36 -45.333 54 -74 54 -86l-0.5 -1
c-0.333008 -0.666992 -0.833008 -3 -1.5 -7l-86 15l-6 -102l-84 31l-65 -88l-59 44l-130 -72l6 28l-20 28l-162 -33l19 49l-180 8l52 40l-157 40l73 36l-111 64l83 6l-45 65l-5 30l84 -8l12 102c26.667 -20.667 47.667 -31 63 -31c6.66699 0 12.334 1.33301 17.001 4l70 84
l51 -43l118 64l13 -5l5 -44l170 28l-13 -50h175l-52 -43l150 -37l8 -15h-8l-66 -20l105 -59zM861 369.999l-28 7l-3 -98l19 -2zM851 236.999l-18 8l-14 -13l14 -15zM801 243.999l-0.000976562 126l-19 7l-4 -90l-65 83v-127l20 2v62c26.667 -42 49.334 -63 68.001 -63z
M693.999 244.999v94c-8 27.333 -18.667 41 -32 41c-10 0 -15.333 -1.33301 -16 -4c-26 -40.667 -42 -83 -48 -127h25c10 20 19.333 30 28 30c10.667 0 20 -10 28 -30zM586.999 376.999l-22 -7l-12 -127l27 8zM530.999 238.999l0.000976562 126l-18 5l-5 -86l-67 81v-128
l20 4v60c29.333 -41.333 52.666 -62 69.999 -62zM428 328.999c-6 27.333 -21.666 41.001 -46.999 41.001h-12c-28.667 -18.667 -43 -56.334 -43 -113.001c6 -13.333 19 -20 39 -20c2.66699 0 5.5 0.166992 8.5 0.5s6.83301 0.833008 11.5 1.5c21.333 0 35.666 30 42.999 90z
M317.001 375c-56 -10 -84.002 -34.666 -84.002 -73.999v-8c0 -4.66699 0.666992 -7.66699 2 -9c6.66699 -38 21.334 -57 44.001 -57c4 0 7.33301 0.666992 10 2s7.33398 2.66602 14.001 3.99902l-2 22c-2.66699 -2.66699 -10 -4 -22 -4c-16 0 -24 8.66699 -24 26
c0 19.333 5.66699 36.666 17 51.999c10.667 12 21 18 31 18c4 0 6 -0.333008 6 -1l1.5 -0.5c1 -0.333008 2.5 -1.16602 4.5 -2.49902zM220.999 370.001l-20 -3l-11 -130l24 10zM672.999 307.001h-36l21 43zM405.999 310.001c0 -7.33301 -0.5 -13.667 -1.5 -19
s-3.5 -11.333 -7.5 -18c-14 -8 -24 -12 -30 -12c-12 0 -18 10.333 -18 31v9c8.66699 26.667 19.667 40 33 40c8 0 15.333 -5.33301 22 -16c0.666992 -3.33301 1.16699 -6.33301 1.5 -9s0.5 -4.66699 0.5 -6z" />
    <glyph glyph-name="FL0EC6h" unicode="&#xbe;" horiz-adv-x="755" 
d="M713 370l-28 7l-3 -98l19 -2zM703 237l-18 8l-14 -13l14 -15zM653 244l-0.000976562 126l-19 7l-4 -90l-65 83v-127l20 2v62c26.667 -42 49.334 -63 68.001 -63zM545.999 245v94c-8 27.333 -18.667 41 -32 41c-10 0 -15.333 -1.33301 -16 -4
c-26 -40.667 -42 -83 -48 -127h25c10 20 19.333 30 28 30c10.667 0 20 -10 28 -30zM438.999 377l-22 -7l-12 -127l27 8zM382.999 239l0.000976562 126l-18 5l-5 -86l-67 81v-128l20 4v60c29.333 -41.333 52.666 -62 69.999 -62zM280 329
c-6 27.333 -21.666 41.001 -46.999 41.001h-12c-28.667 -18.667 -43 -56.334 -43 -113.001c6 -13.333 19 -20 39 -20c2.66699 0 5.5 0.166992 8.5 0.5s6.83301 0.833008 11.5 1.5c21.333 0 35.666 30 42.999 90zM169.001 375.001c-56 -10 -84.002 -34.666 -84.002 -73.999
v-8c0 -4.66699 0.666992 -7.66699 2 -9c6.66699 -38 21.334 -57 44.001 -57c4 0 7.33301 0.666992 10 2s7.33398 2.66602 14.001 3.99902l-2 22c-2.66699 -2.66699 -10 -4 -22 -4c-16 0 -24 8.66699 -24 26c0 19.333 5.66699 36.666 17 51.999c10.667 12 21 18 31 18
c4 0 6 -0.333008 6 -1l1.5 -0.5c1 -0.333008 2.5 -1.16602 4.5 -2.49902zM72.999 370.002l-20 -3l-11 -130l24 10zM524.999 307.002h-36l21 43zM257.999 310.002c0 -7.33301 -0.5 -13.667 -1.5 -19s-3.5 -11.333 -7.5 -18c-14 -8 -24 -12 -30 -12c-12 0 -18 10.333 -18 31v9
c8.66699 26.667 19.667 40 33 40c8 0 15.333 -5.33301 22 -16c0.666992 -3.33301 1.16699 -6.33301 1.5 -9s0.5 -4.66699 0.5 -6z" />
    <glyph glyph-name="FL00BFh" unicode="&#xbf;" horiz-adv-x="852" 
d="M242 388c-38 0 -69.832 -4.99902 -95.499 -14.999s-46.334 -23.5 -62.001 -40.5s-26.667 -36.833 -33 -59.5s-9.5 -46.334 -9.5 -71.001c0 -29.333 3.66699 -56.333 11 -81s19.333 -46 36 -64s38.834 -32 66.501 -42s62.167 -15 103.5 -15h551v164h-509
c-13.333 1.33301 -24.833 3.5 -34.5 6.5s-17.167 10.5 -22.5 22.5v18c5.33301 11.333 12.166 18.166 20.499 20.499s18.5 4.16602 30.5 5.49902l6 1h207c40.667 0 75 3.33301 103 10s50.333 16.334 67 29.001s28.667 28.334 36 47.001s11 40 11 64h-483zM725.001 462.001
v164h-200v-164h200z" />
    <glyph glyph-name="FL00C0h" unicode="&#xc0;" 
d="M312 462l370 0.000976562v-298h-370c-22 0 -39.167 8 -51.5 24s-18.5 33 -18.5 51v148c0 19.333 6 36.666 18 51.999s29.333 23 52 23zM882 0.000976562v625.998h-619c-50.667 0 -90.667 -7.5 -120 -22.5s-51.5 -35.833 -66.5 -62.5s-24.5 -58.167 -28.5 -94.5
s-6 -75.833 -6 -118.5v-30c0 -43.333 2 -83.166 6 -119.499s13.5 -67.666 28.5 -93.999s37.167 -47 66.5 -62s69.333 -22.5 120 -22.5h335l84 140v-140h200zM586 684.999l-92 123h-164l100 -123h156z" />
    <glyph glyph-name="FL00C1h" unicode="&#xc1;" 
d="M312 462l370 0.000976562v-298h-370c-22 0 -39.167 8 -51.5 24s-18.5 33 -18.5 51v148c0 19.333 6 36.666 18 51.999s29.333 23 52 23zM882 0.000976562v625.998h-619c-50.667 0 -90.667 -7.5 -120 -22.5s-51.5 -35.833 -66.5 -62.5s-24.5 -58.167 -28.5 -94.5
s-6 -75.833 -6 -118.5v-30c0 -43.333 2 -83.166 6 -119.499s13.5 -67.666 28.5 -93.999s37.167 -47 66.5 -62s69.333 -22.5 120 -22.5h335l84 140v-140h200zM526 684.999l100 123h-164l-92 -123h156z" />
    <glyph glyph-name="FL00C2h" unicode="&#xc2;" 
d="M312 462l370 0.000976562v-298h-370c-22 0 -39.167 8 -51.5 24s-18.5 33 -18.5 51v148c0 19.333 6 36.666 18 51.999s29.333 23 52 23zM882 0.000976562v625.998h-619c-50.667 0 -90.667 -7.5 -120 -22.5s-51.5 -35.833 -66.5 -62.5s-24.5 -58.167 -28.5 -94.5
s-6 -75.833 -6 -118.5v-30c0 -43.333 2 -83.166 6 -119.499s13.5 -67.666 28.5 -93.999s37.167 -47 66.5 -62s69.333 -22.5 120 -22.5h335l84 140v-140h200zM358 807.999l-100 -123h164l56 74l56 -74h164l-100 123h-240z" />
    <glyph glyph-name="FL00C3h" unicode="&#xc3;" 
d="M312 462l370 0.000976562v-298h-370c-22 0 -39.167 8 -51.5 24s-18.5 33 -18.5 51v148c0 19.333 6 36.666 18 51.999s29.333 23 52 23zM882 0.000976562v625.998h-619c-50.667 0 -90.667 -7.5 -120 -22.5s-51.5 -35.833 -66.5 -62.5s-24.5 -58.167 -28.5 -94.5
s-6 -75.833 -6 -118.5v-30c0 -43.333 2 -83.166 6 -119.499s13.5 -67.666 28.5 -93.999s37.167 -47 66.5 -62s69.333 -22.5 120 -22.5h335l84 140v-140h200zM664 684.999l100 123h-164l-54 -72l-58 72h-196l-100 -123h164l54 71l58 -71h196z" />
    <glyph glyph-name="FL00C4h" unicode="&#xc4;" 
d="M312 462l370 0.000976562v-298h-370c-22 0 -39.167 8 -51.5 24s-18.5 33 -18.5 51v148c0 19.333 6 36.666 18 51.999s29.333 23 52 23zM882 0.000976562v625.998h-619c-50.667 0 -90.667 -7.5 -120 -22.5s-51.5 -35.833 -66.5 -62.5s-24.5 -58.167 -28.5 -94.5
s-6 -75.833 -6 -118.5v-30c0 -43.333 2 -83.166 6 -119.499s13.5 -67.666 28.5 -93.999s37.167 -47 66.5 -62s69.333 -22.5 120 -22.5h335l84 140v-140h200zM258 807.999v-123h164v123h-164zM534 807.999v-123h164v123h-164z" />
    <glyph glyph-name="FL00C5h" unicode="&#xc5;" 
d="M396 685v123h164v-123h-164zM451 767v-41h54v41h-54zM882 626v-625.998h-200v140l-84 -140h-335c-50.667 0 -90.667 7.5 -120 22.5s-51.5 35.667 -66.5 62s-24.5 57.666 -28.5 93.999s-6 76.166 -6 119.499v30c0 42.667 2 82.167 6 118.5s13.5 67.833 28.5 94.5
s37.167 47.5 66.5 62.5s69.333 22.5 120 22.5h619zM682 462.002l-370 -0.000976562c-22.667 0 -40 -7.66699 -52 -23s-18 -32.666 -18 -51.999v-148c0 -18 6.16699 -35 18.5 -51s29.5 -24 51.5 -24h370v298z" />
    <glyph glyph-name="FL00C6h" unicode="&#xc6;" horiz-adv-x="1493" 
d="M1305 388l96 -149.998h-443l-76 120v-194h569v-164h-769v140l-84 -140h-335c-50.667 0 -90.667 7.5 -120 22.5s-51.5 35.667 -66.5 62s-24.5 57.666 -28.5 93.999s-6 76.166 -6 119.499v30c0 42.667 2 82.167 6 118.5s13.5 67.833 28.5 94.5s37.167 47.5 66.5 62.5
s69.333 22.5 120 22.5h1188v-164h-569v-74h423zM312 462.002c-22.667 0 -40 -7.66797 -52 -23.001s-18 -32.666 -18 -51.999v-148c0 -18 6.16699 -35 18.5 -51s29.5 -24 51.5 -24h370v298h-370z" />
    <glyph glyph-name="FL00C7h" unicode="&#xc7;" horiz-adv-x="853" 
d="M811 462l-498.999 0.00195312c-11.333 0 -20.833 -2.33301 -28.5 -7s-14.334 -10.5 -20.001 -17.5s-10.167 -15 -13.5 -24s-6 -17.833 -8 -26.5v-148c2 -8.66699 4.66699 -17.5 8 -26.5s7.5 -17 12.5 -24s11.167 -12.833 18.5 -17.5s16.333 -7 27 -7h503v-164h-228v-168
h-217l-71 118h141v50h-174c-50 0 -89.667 7.5 -119 22.5s-51.5 35.667 -66.5 62s-24.5 57.666 -28.5 93.999s-6 76.166 -6 119.499v30c0 42.667 2 82.167 6 118.5s13.5 67.833 28.5 94.5s37.167 47.5 66.5 62.5s69 22.5 119 22.5h549v-164z" />
    <glyph glyph-name="FL00C8h" unicode="&#xc8;" horiz-adv-x="853" 
d="M554 685l-92 123h-164l100 -123h156zM665 388h-423v74h569v164h-769v-626h769v164h-569v194l76 -120h443z" />
    <glyph glyph-name="FL00C9h" unicode="&#xc9;" horiz-adv-x="853" 
d="M454 685l100 123h-164l-92 -123h156zM665 388h-423v74h569v164h-769v-626h769v164h-569v194l76 -120h443z" />
    <glyph glyph-name="FL00CAh" unicode="&#xca;" horiz-adv-x="853" 
d="M306 808l-100 -123h164l56 74l56 -74h164l-100 123h-240zM665 388h-423v74h569v164h-769v-626h769v164h-569v194l76 -120h443z" />
    <glyph glyph-name="FL00CBh" unicode="&#xcb;" horiz-adv-x="853" 
d="M206 808v-123h164v123h-164zM482 808v-123h164v123h-164zM665 388h-423v74h569v164h-769v-626h769v164h-569v194l76 -120h443z" />
    <glyph glyph-name="FL00CCh" unicode="&#xcc;" horiz-adv-x="708" 
d="M470 685l-92 123h-164l100 -123h156zM666 0v164h-212v298h212v164h-624v-164h212v-298h-212v-164h624z" />
    <glyph glyph-name="FL00CDh" unicode="&#xcd;" horiz-adv-x="708" 
d="M42 164v-164h624v164h-212v298h212v164h-624v-164h212v-298h-212zM330 808l-92 -123h156l100 123h-164z" />
    <glyph glyph-name="FL00CEh" unicode="&#xce;" horiz-adv-x="708" 
d="M234 808l-100 -123h164l56 74l56 -74h164l-100 123h-240zM666 0v164h-212v298h212v164h-624v-164h212v-298h-212v-164h624z" />
    <glyph glyph-name="FL00CFh" unicode="&#xcf;" horiz-adv-x="708" 
d="M134 808v-123h164v123h-164zM410 808v-123h164v123h-164zM666 0v164h-212v298h212v164h-624v-164h212v-298h-212v-164h624z" />
    <glyph glyph-name="FL00D0h" unicode="&#xd0;" horiz-adv-x="1107" 
d="M225 626l619 -0.00195312c50.667 0 90.667 -7.5 120 -22.5s51.5 -35.833 66.5 -62.5s24.5 -58.167 28.5 -94.5s6 -75.833 6 -118.5v-30c0 -43.333 -2 -83.166 -6 -119.499s-13.5 -67.666 -28.5 -93.999s-37.167 -47 -66.5 -62s-69.333 -22.5 -120 -22.5h-335l-84 140
v-140h-200v238h-100l-98 150h198v238zM583 387.998l96 -149.999h-254v-74h370c22 0 39.167 8 51.5 24s18.5 33 18.5 51v148c0 19.333 -6 36.666 -18 51.999s-29.333 23 -52 23h-370v-74h158z" />
    <glyph glyph-name="FL00D1h" unicode="&#xd1;" horiz-adv-x="925" 
d="M648 685l100 123h-164l-54 -72l-58 72h-196l-100 -123h164l54 71l58 -71h196zM683 200l-317 373c-15.333 16.667 -31 29.667 -47 39s-30.667 14 -44 14h-233v-626h200v426l318 -373c14.667 -17.333 30 -30.5 46 -39.5s30.667 -13.5 44 -13.5h233v626h-200v-426z" />
    <glyph glyph-name="FL00D2h" unicode="&#xd2;" 
d="M570 685l-92 123h-164l100 -123h156zM262 626c-50 0 -89.667 -7.5 -119 -22.5s-51.5 -35.833 -66.5 -62.5s-24.5 -58.167 -28.5 -94.5s-6 -75.833 -6 -118.5v-30c0 -43.333 2 -83.166 6 -119.499s13.5 -67.666 28.5 -93.999s37.167 -47 66.5 -62s69 -22.5 119 -22.5h399
c50.667 0 90.667 7.5 120 22.5s51.5 35.667 66.5 62s24.5 57.666 28.5 93.999s6 76.166 6 119.499v30c0 42.667 -2 82.167 -6 118.5s-13.5 67.833 -28.5 94.5s-37.167 47.5 -66.5 62.5s-69.333 22.5 -120 22.5h-399zM612 462c22 0 39.167 -7.83301 51.5 -23.5
s18.5 -32.834 18.5 -51.501v-148c0 -18 -6.16699 -35 -18.5 -51s-29.5 -24 -51.5 -24h-304c-10 0 -19.167 2.33301 -27.5 7s-15.333 10.5 -21 17.5s-10 15 -13 24s-4.5 17.833 -4.5 26.5v148c0 20.667 6 38.334 18 53.001s29.333 22 52 22h300z" />
    <glyph glyph-name="FL00D3h" unicode="&#xd3;" 
d="M612 462c22.667 0 40 -7.33301 52 -22s18 -32.334 18 -53.001v-148c0 -8.66699 -1.5 -17.5 -4.5 -26.5s-7.33301 -17 -13 -24s-12.667 -12.833 -21 -17.5s-17.5 -7 -27.5 -7h-304c-22 0 -39.167 8 -51.5 24s-18.5 33 -18.5 51v148c0 18.667 6.16699 35.834 18.5 51.501
s29.5 23.5 51.5 23.5h300zM263 626c-50.667 0 -90.667 -7.5 -120 -22.5s-51.5 -35.833 -66.5 -62.5s-24.5 -58.167 -28.5 -94.5s-6 -75.833 -6 -118.5v-30c0 -43.333 2 -83.166 6 -119.499s13.5 -67.666 28.5 -93.999s37.167 -47 66.5 -62s69.333 -22.5 120 -22.5h399
c50 0 89.667 7.5 119 22.5s51.5 35.667 66.5 62s24.5 57.666 28.5 93.999s6 76.166 6 119.499v30c0 42.667 -2 82.167 -6 118.5s-13.5 67.833 -28.5 94.5s-37.167 47.5 -66.5 62.5s-69 22.5 -119 22.5h-399zM510 685l100 123h-164l-92 -123h156z" />
    <glyph glyph-name="FL00D4h" unicode="&#xd4;" 
d="M262 626c-50 0 -89.667 -7.5 -119 -22.5s-51.5 -35.833 -66.5 -62.5s-24.5 -58.167 -28.5 -94.5s-6 -75.833 -6 -118.5v-30c0 -43.333 2 -83.166 6 -119.499s13.5 -67.666 28.5 -93.999s37.167 -47 66.5 -62s69 -22.5 119 -22.5h399c50.667 0 90.667 7.5 120 22.5
s51.5 35.667 66.5 62s24.5 57.666 28.5 93.999s6 76.166 6 119.499v30c0 42.667 -2 82.167 -6 118.5s-13.5 67.833 -28.5 94.5s-37.167 47.5 -66.5 62.5s-69.333 22.5 -120 22.5h-399zM612 462c22 0 39.167 -7.83301 51.5 -23.5s18.5 -32.834 18.5 -51.501v-148
c0 -18 -6.16699 -35 -18.5 -51s-29.5 -24 -51.5 -24h-304c-10 0 -19.167 2.33301 -27.5 7s-15.333 10.5 -21 17.5s-10 15 -13 24s-4.5 17.833 -4.5 26.5v148c0 20.667 6 38.334 18 53.001s29.333 22 52 22h300zM342 808l-100 -123h164l56 74l56 -74h164l-100 123h-240z" />
    <glyph glyph-name="FL00D5h" unicode="&#xd5;" 
d="M648 685l100 123h-164l-54 -72l-58 72h-196l-100 -123h164l54 71l58 -71h196zM262 626c-50 0 -89.667 -7.5 -119 -22.5s-51.5 -35.833 -66.5 -62.5s-24.5 -58.167 -28.5 -94.5s-6 -75.833 -6 -118.5v-30c0 -43.333 2 -83.166 6 -119.499s13.5 -67.666 28.5 -93.999
s37.167 -47 66.5 -62s69 -22.5 119 -22.5h399c50.667 0 90.667 7.5 120 22.5s51.5 35.667 66.5 62s24.5 57.666 28.5 93.999s6 76.166 6 119.499v30c0 42.667 -2 82.167 -6 118.5s-13.5 67.833 -28.5 94.5s-37.167 47.5 -66.5 62.5s-69.333 22.5 -120 22.5h-399zM612 462
c22 0 39.167 -7.83301 51.5 -23.5s18.5 -32.834 18.5 -51.501v-148c0 -18 -6.16699 -35 -18.5 -51s-29.5 -24 -51.5 -24h-304c-10 0 -19.167 2.33301 -27.5 7s-15.333 10.5 -21 17.5s-10 15 -13 24s-4.5 17.833 -4.5 26.5v148c0 20.667 6 38.334 18 53.001s29.333 22 52 22
h300z" />
    <glyph glyph-name="FL00D6h" unicode="&#xd6;" 
d="M242 808v-123h164v123h-164zM518 808v-123h164v123h-164zM262 626c-50 0 -89.667 -7.5 -119 -22.5s-51.5 -35.833 -66.5 -62.5s-24.5 -58.167 -28.5 -94.5s-6 -75.833 -6 -118.5v-30c0 -43.333 2 -83.166 6 -119.499s13.5 -67.666 28.5 -93.999s37.167 -47 66.5 -62
s69 -22.5 119 -22.5h399c50.667 0 90.667 7.5 120 22.5s51.5 35.667 66.5 62s24.5 57.666 28.5 93.999s6 76.166 6 119.499v30c0 42.667 -2 82.167 -6 118.5s-13.5 67.833 -28.5 94.5s-37.167 47.5 -66.5 62.5s-69.333 22.5 -120 22.5h-399zM612 462
c22 0 39.167 -7.83301 51.5 -23.5s18.5 -32.834 18.5 -51.501v-148c0 -18 -6.16699 -35 -18.5 -51s-29.5 -24 -51.5 -24h-304c-10 0 -19.167 2.33301 -27.5 7s-15.333 10.5 -21 17.5s-10 15 -13 24s-4.5 17.833 -4.5 26.5v148c0 20.667 6 38.334 18 53.001s29.333 22 52 22
h300z" />
    <glyph glyph-name="FL00D7h" unicode="&#xd7;" horiz-adv-x="522" 
d="M42 426l106 106l113 -113l113 113l106 -106l-113 -113l112 -112l-106 -106l-112 112l-112 -112l-106 106l112 112z" />
    <glyph glyph-name="FL00D8h" unicode="&#xd8;" 
d="M262 626h399c50.667 0 90.667 -7.5 120 -22.5s51.5 -35.833 66.5 -62.5s24.5 -58.167 28.5 -94.5s6 -75.833 6 -118.5v-30c0 -43.333 -2 -83.166 -6 -119.499s-13.5 -67.666 -28.5 -93.999s-37.167 -47 -66.5 -62s-69.333 -22.5 -120 -22.5h-399
c-50 0 -89.667 7.5 -119 22.5s-51.5 35.667 -66.5 62s-24.5 57.666 -28.5 93.999s-6 76.166 -6 119.499v30c0 42.667 2 82.167 6 118.5s13.5 67.833 28.5 94.5s37.167 47.5 66.5 62.5s69 22.5 119 22.5zM242 239c0 -12.667 2.83203 -24.999 8.49902 -36.999
s13.834 -21.667 24.501 -29l160 289h-123c-22.667 0 -40 -7.33301 -52 -22s-18 -32.334 -18 -53.001v-148zM681.999 387.001c0 12.667 -2.83203 24.999 -8.49902 36.999s-13.834 21.667 -24.501 29l-160 -289h123c22.667 0 40 7.33301 52 22s18 32.334 18 53.001v148z" />
    <glyph glyph-name="FL00D9h" unicode="&#xd9;" 
d="M570 685l-92 123h-164l100 -123h156zM682 239c0 -8.66699 -1.66602 -17.501 -4.99902 -26.501s-8 -17 -14 -24s-13.333 -12.833 -22 -17.5s-18.334 -7 -29.001 -7h-304c-10 0 -19.167 2.33301 -27.5 7s-15.333 10.667 -21 18s-10 15.333 -13 24s-4.5 17.334 -4.5 26.001
v387h-200v-328c0 -43.333 2 -83.166 6 -119.499s13.5 -67.666 28.5 -93.999s37.167 -47 66.5 -62s69 -22.5 119 -22.5h399c50.667 0 90.667 7.5 120 22.5s51.5 35.667 66.5 62s24.5 57.666 28.5 93.999s6 76.166 6 119.499v327h-200v-386z" />
    <glyph glyph-name="FL00DAh" unicode="&#xda;" 
d="M510 685l100 123h-164l-92 -123h156zM682 239c0 -8.66699 -1.66602 -17.501 -4.99902 -26.501s-8 -17 -14 -24s-13.333 -12.833 -22 -17.5s-18.334 -7 -29.001 -7h-304c-10 0 -19.167 2.33301 -27.5 7s-15.333 10.667 -21 18s-10 15.333 -13 24s-4.5 17.334 -4.5 26.001
v387h-200v-328c0 -43.333 2 -83.166 6 -119.499s13.5 -67.666 28.5 -93.999s37.167 -47 66.5 -62s69 -22.5 119 -22.5h399c50.667 0 90.667 7.5 120 22.5s51.5 35.667 66.5 62s24.5 57.666 28.5 93.999s6 76.166 6 119.499v327h-200v-386z" />
    <glyph glyph-name="FL00DBh" unicode="&#xdb;" 
d="M342 808l-100 -123h164l56 74l56 -74h164l-100 123h-240zM682 239c0 -8.66699 -1.66602 -17.501 -4.99902 -26.501s-8 -17 -14 -24s-13.333 -12.833 -22 -17.5s-18.334 -7 -29.001 -7h-304c-10 0 -19.167 2.33301 -27.5 7s-15.333 10.667 -21 18s-10 15.333 -13 24
s-4.5 17.334 -4.5 26.001v387h-200v-328c0 -43.333 2 -83.166 6 -119.499s13.5 -67.666 28.5 -93.999s37.167 -47 66.5 -62s69 -22.5 119 -22.5h399c50.667 0 90.667 7.5 120 22.5s51.5 35.667 66.5 62s24.5 57.666 28.5 93.999s6 76.166 6 119.499v327h-200v-386z" />
    <glyph glyph-name="FL00DCh" unicode="&#xdc;" 
d="M242 808v-123h164v123h-164zM518 808v-123h164v123h-164zM682 239c0 -8.66699 -1.66602 -17.501 -4.99902 -26.501s-8 -17 -14 -24s-13.333 -12.833 -22 -17.5s-18.334 -7 -29.001 -7h-304c-10 0 -19.167 2.33301 -27.5 7s-15.333 10.667 -21 18s-10 15.333 -13 24
s-4.5 17.334 -4.5 26.001v387h-200v-328c0 -43.333 2 -83.166 6 -119.499s13.5 -67.666 28.5 -93.999s37.167 -47 66.5 -62s69 -22.5 119 -22.5h399c50.667 0 90.667 7.5 120 22.5s51.5 35.667 66.5 62s24.5 57.666 28.5 93.999s6 76.166 6 119.499v327h-200v-386z" />
    <glyph glyph-name="FL00DDh" unicode="&#xdd;" 
d="M682 625l0.000976562 -220c0 -8.66699 -1.66699 -17.5 -5 -26.5s-8 -17 -14 -24s-13.333 -12.833 -22 -17.5s-18.334 -7 -29.001 -7h-304c-10 0 -19.167 2.33301 -27.5 7s-15.333 10.5 -21 17.5s-10 15 -13 24s-4.5 17.833 -4.5 26.5v221h-200v-162
c0 -43.333 2 -83.166 6 -119.499s13.5 -67.833 28.5 -94.5s37.167 -47.5 66.5 -62.5s69 -22.5 119 -22.5h100v-165h200v165h99c50.667 0 90.667 7.5 120 22.5s51.5 35.833 66.5 62.5s24.5 58.167 28.5 94.5s6 76.166 6 119.499v161h-200zM510.001 685l100 123h-164l-92 -123
h156z" />
    <glyph glyph-name="FL00DEh" unicode="&#xde;" horiz-adv-x="920" 
d="M242 626v-82.999h419c41.333 0 76 -4.66699 104 -14s50.333 -23 67 -41s28.5 -40 35.5 -66s10.5 -55.667 10.5 -89v-56c0 -31.333 -3.5 -59 -10.5 -83s-18.833 -44.333 -35.5 -61s-39 -29.334 -67 -38.001s-62.667 -13 -104 -13h-343l-76 120v-202h-200v626h200z
M619 231.001c13.333 1.33301 24.833 6.33496 34.5 15.002s17.167 19 22.5 31c0.666992 3.33301 1.16699 6.16602 1.5 8.49902s0.5 4.16602 0.5 5.49902v28c0 2.66699 -0.166992 5 -0.5 7s-0.833008 4.33301 -1.5 7c-5.33301 12 -12.833 22.333 -22.5 31
s-21.167 13.667 -34.5 15h-377v-148h377z" />
    <glyph glyph-name="FL00DFh" unicode="&#xdf;" horiz-adv-x="922" 
d="M242 462l0.00390625 -462h-200v520c0 13.333 3.16699 26.333 9.5 39s14.166 24 23.499 34s19.833 18 31.5 24s22.5 9 32.5 9h504c40.667 0 74.834 -4.5 102.501 -13.5s49.667 -21.5 66 -37.5s28 -34.833 35 -56.5s10.5 -44.834 10.5 -69.501v-19
c0 -9.33301 -1.83301 -19.666 -5.5 -30.999s-8.83398 -22.333 -15.501 -33s-14.5 -20.167 -23.5 -28.5s-18.5 -14.5 -28.5 -18.5c8 -4 17.5 -9.66699 28.5 -17s21.5 -16.5 31.5 -27.5s18.5 -24.167 25.5 -39.5s10.5 -33 10.5 -53v-19c0 -24 -3.66699 -46 -11 -66
s-19.333 -37.167 -36 -51.5s-39 -25.5 -67 -33.5s-62.333 -12 -103 -12h-294v164h254c21.333 0 36.166 2.83301 44.499 8.5s12.5 16.167 12.5 31.5c0 10 -3.33301 18.167 -10 24.5s-15.667 9.5 -27 9.5h-145l-94 150h197c17.333 0 31.166 2.66699 41.499 8s15.5 16 15.5 32
c0 13.333 -6.33301 22.333 -19 27s-25.334 7 -38.001 7h-359z" />
    <glyph glyph-name="FL00E0h" unicode="&#xe0;" horiz-adv-x="1013" 
d="M634 685l-92 123h-164l100 -123h156zM498 454l9 7l8 -7l115 -206h-247zM244 0l123.998 220l77 -121h269l55 -99h217l-328 596c-4 7.33301 -11.167 14 -21.5 20s-20.166 9 -29.499 9h-201c-9.33301 0 -19.166 -3 -29.499 -9s-17.5 -12.667 -21.5 -20l-328 -596h217z" />
    <glyph glyph-name="FL00E1h" unicode="&#xe1;" horiz-adv-x="1013" 
d="M534 685l100 123h-164l-92 -123h156zM498 454l9 7l8 -7l115 -206h-247zM244 0l123.998 220l77 -121h269l55 -99h217l-328 596c-4 7.33301 -11.167 14 -21.5 20s-20.166 9 -29.499 9h-201c-9.33301 0 -19.166 -3 -29.499 -9s-17.5 -12.667 -21.5 -20l-328 -596h217z" />
    <glyph glyph-name="FL00E2h" unicode="&#xe2;" horiz-adv-x="1013" 
d="M386 808l-100 -123h164l56 74l56 -74h164l-100 123h-240zM498 454l9 7l8 -7l115 -206h-247zM244 0l123.998 220l77 -121h269l55 -99h217l-328 596c-4 7.33301 -11.167 14 -21.5 20s-20.166 9 -29.499 9h-201c-9.33301 0 -19.166 -3 -29.499 -9s-17.5 -12.667 -21.5 -20
l-328 -596h217z" />
    <glyph glyph-name="FL00E3h" unicode="&#xe3;" horiz-adv-x="1013" 
d="M692 685l100 123h-164l-54 -72l-58 72h-196l-100 -123h164l54 71l58 -71h196zM498 454l9 7l8 -7l115 -206h-247zM244 0l123.998 220l77 -121h269l55 -99h217l-328 596c-4 7.33301 -11.167 14 -21.5 20s-20.166 9 -29.499 9h-201c-9.33301 0 -19.166 -3 -29.499 -9
s-17.5 -12.667 -21.5 -20l-328 -596h217z" />
    <glyph glyph-name="FL00E4h" unicode="&#xe4;" horiz-adv-x="1013" 
d="M286 808v-123h164v123h-164zM562 808v-123h164v123h-164zM498 454l9 7l8 -7l115 -206h-247zM244 0l123.998 220l77 -121h269l55 -99h217l-328 596c-4 7.33301 -11.167 14 -21.5 20s-20.166 9 -29.499 9h-201c-9.33301 0 -19.166 -3 -29.499 -9s-17.5 -12.667 -21.5 -20
l-328 -596h217z" />
    <glyph glyph-name="FL00E5h" unicode="&#xe5;" horiz-adv-x="1013" 
d="M424 685v123h164v-123h-164zM479 767v-41h54v41h-54zM368 220l-123.998 -220h-217l328 596c4 7.33301 11.167 14 21.5 20s20.166 9 29.499 9h201c9.33301 0 19.166 -3 29.499 -9s17.5 -12.667 21.5 -20l328 -596h-217l-55 99h-269zM507.002 461l-9 -7l-115 -206h247
l-115 206z" />
    <glyph glyph-name="FL00E6h" unicode="&#xe6;" horiz-adv-x="1537" 
d="M1349 388l96.0029 -150h-443l-76 120v-157c0 -11.333 3 -20.333 9 -27s13.667 -10 23 -10h537v-164h-726l-55 99h-269l-77 121l-124 -220h-217l328 596c4 7.33301 11.167 14 21.5 20s20.166 9 29.499 9h201c9.33301 0 19.166 -3 29.499 -9s17.5 -12.667 21.5 -20l68 -124
v48c0 13.333 3.16699 26.333 9.5 39s14.166 24 23.499 34s19.833 18 31.5 24s22.5 9 32.5 9h672v-164h-537c-9.33301 0 -17 -3.33301 -23 -10s-9 -15.667 -9 -27v-37h423zM498.003 454l-115 -206h247l-115 206l-8 7z" />
    <glyph glyph-name="FL00E7h" unicode="&#xe7;" horiz-adv-x="853" 
d="M811 462l-498.999 0.00195312c-11.333 0 -20.833 -2.33301 -28.5 -7s-14.334 -10.5 -20.001 -17.5s-10.167 -15 -13.5 -24s-6 -17.833 -8 -26.5v-148c2 -8.66699 4.66699 -17.5 8 -26.5s7.5 -17 12.5 -24s11.167 -12.833 18.5 -17.5s16.333 -7 27 -7h503v-164h-228v-168
h-217l-71 118h141v50h-174c-50 0 -89.667 7.5 -119 22.5s-51.5 35.667 -66.5 62s-24.5 57.666 -28.5 93.999s-6 76.166 -6 119.499v30c0 42.667 2 82.167 6 118.5s13.5 67.833 28.5 94.5s37.167 47.5 66.5 62.5s69 22.5 119 22.5h549v-164z" />
    <glyph glyph-name="FL00E8h" unicode="&#xe8;" horiz-adv-x="853" 
d="M665 388h-423v37c0 11.333 3 20.333 9 27s13.667 10 23 10h537v164h-672c-10 0 -20.833 -3 -32.5 -9s-22.167 -14 -31.5 -24s-17.166 -21.333 -23.499 -34s-9.5 -25.667 -9.5 -39v-414c0 -13.333 3.16699 -26.333 9.5 -39s14.166 -24 23.499 -34s19.833 -18 31.5 -24
s22.5 -9 32.5 -9h672v164h-537c-9.33301 0 -17 3.33301 -23 10s-9 15.667 -9 27v157l76 -120h443zM547 685l-92 123h-164l100 -123h156z" />
    <glyph glyph-name="FL00E9h" unicode="&#xe9;" horiz-adv-x="853" 
d="M665 388h-423v37c0 11.333 3 20.333 9 27s13.667 10 23 10h537v164h-672c-10 0 -20.833 -3 -32.5 -9s-22.167 -14 -31.5 -24s-17.166 -21.333 -23.499 -34s-9.5 -25.667 -9.5 -39v-414c0 -13.333 3.16699 -26.333 9.5 -39s14.166 -24 23.499 -34s19.833 -18 31.5 -24
s22.5 -9 32.5 -9h672v164h-537c-9.33301 0 -17 3.33301 -23 10s-9 15.667 -9 27v157l76 -120h443zM493 685l100 123h-164l-92 -123h156z" />
    <glyph glyph-name="FL00EAh" unicode="&#xea;" horiz-adv-x="853" 
d="M665 388h-423v37c0 11.333 3 20.333 9 27s13.667 10 23 10h537v164h-672c-10 0 -20.833 -3 -32.5 -9s-22.167 -14 -31.5 -24s-17.166 -21.333 -23.499 -34s-9.5 -25.667 -9.5 -39v-414c0 -13.333 3.16699 -26.333 9.5 -39s14.166 -24 23.499 -34s19.833 -18 31.5 -24
s22.5 -9 32.5 -9h672v164h-537c-9.33301 0 -17 3.33301 -23 10s-9 15.667 -9 27v157l76 -120h443zM306 808l-100 -123h164l56 74l56 -74h164l-100 123h-240z" />
    <glyph glyph-name="FL00EBh" unicode="&#xeb;" horiz-adv-x="853" 
d="M665 388h-423v37c0 11.333 3 20.333 9 27s13.667 10 23 10h537v164h-672c-10 0 -20.833 -3 -32.5 -9s-22.167 -14 -31.5 -24s-17.166 -21.333 -23.499 -34s-9.5 -25.667 -9.5 -39v-414c0 -13.333 3.16699 -26.333 9.5 -39s14.166 -24 23.499 -34s19.833 -18 31.5 -24
s22.5 -9 32.5 -9h672v164h-537c-9.33301 0 -17 3.33301 -23 10s-9 15.667 -9 27v157l76 -120h443zM206 808v-123h164v123h-164zM482 808v-123h164v123h-164z" />
    <glyph glyph-name="FL00ECh" unicode="&#xec;" horiz-adv-x="284" 
d="M270 685l-92 123h-164l100 -123h156zM242 626h-200v-626h200v626z" />
    <glyph glyph-name="FL00EDh" unicode="&#xed;" horiz-adv-x="284" 
d="M170 685l100 123h-164l-92 -123h156zM242 626h-200v-626h200v626z" />
    <glyph glyph-name="FL00EEh" unicode="&#xee;" horiz-adv-x="284" 
d="M22 808l-100 -123h164l56 74l56 -74h164l-100 123h-240zM242 626h-200v-626h200v626z" />
    <glyph glyph-name="FL00EFh" unicode="&#xef;" horiz-adv-x="284" 
d="M-78 808v-123h164v123h-164zM198 808v-123h164v123h-164zM242 626h-200v-626h200v626z" />
    <glyph glyph-name="FL00F0h" unicode="&#xf0;" horiz-adv-x="921" 
d="M353 676l149.999 -0.00195312v-50h155c50 0 89.667 -7.5 119 -22.5s51.5 -35.833 66.5 -62.5s24.5 -58.167 28.5 -94.5s6 -75.833 6 -118.5v-30c0 -43.333 -2 -83.166 -6 -119.499s-13.5 -67.666 -28.5 -93.999s-37.167 -47 -66.5 -62s-69 -22.5 -119 -22.5h-402
c-41.333 0 -75.166 4.16699 -101.499 12.5s-47.5 20.5 -63.5 36.5s-27.667 35.833 -35 59.5s-12.333 51.167 -15 82.5v39c0 22.667 3.66699 43.667 11 63s17.5 36 30.5 50s28.667 25 47 33s38.5 12 60.5 12h488c-4 18 -11.167 34.833 -21.5 50.5s-26.5 23.5 -48.5 23.5h-105
v-45h-150v45h-312v164h312v50zM239.999 203.998c0 -17.333 5.33301 -28.333 16 -33s24.667 -7 42 -7h314c10.667 0 19.667 2.33301 27 7s13.5 10.5 18.5 17.5s9.16699 15 12.5 24s6 17.833 8 26.5v119l-76 -120h-313c-12 0 -23.167 -3 -33.5 -9s-15.5 -14.333 -15.5 -25z
" />
    <glyph glyph-name="FL00F1h" unicode="&#xf1;" horiz-adv-x="925" 
d="M648 685l100 123h-164l-54 -72l-58 72h-196l-100 -123h164l54 71l58 -71h196zM683 200l-317 373c-15.333 16.667 -31 29.667 -47 39s-30.667 14 -44 14h-233v-626h200v426l318 -373c14.667 -17.333 30 -30.5 46 -39.5s30.667 -13.5 44 -13.5h233v626h-200v-426z" />
    <glyph glyph-name="FL00F3h" unicode="&#xf2;" 
d="M570 685l-92 123h-164l100 -123h156zM262 626c-50 0 -89.667 -7.5 -119 -22.5s-51.5 -35.833 -66.5 -62.5s-24.5 -58.167 -28.5 -94.5s-6 -75.833 -6 -118.5v-30c0 -43.333 2 -83.166 6 -119.499s13.5 -67.666 28.5 -93.999s37.167 -47 66.5 -62s69 -22.5 119 -22.5h399
c50.667 0 90.667 7.5 120 22.5s51.5 35.667 66.5 62s24.5 57.666 28.5 93.999s6 76.166 6 119.499v30c0 42.667 -2 82.167 -6 118.5s-13.5 67.833 -28.5 94.5s-37.167 47.5 -66.5 62.5s-69.333 22.5 -120 22.5h-399zM612 462c22 0 39.167 -7.83301 51.5 -23.5
s18.5 -32.834 18.5 -51.501v-148c0 -18 -6.16699 -35 -18.5 -51s-29.5 -24 -51.5 -24h-304c-10 0 -19.167 2.33301 -27.5 7s-15.333 10.5 -21 17.5s-10 15 -13 24s-4.5 17.833 -4.5 26.5v148c0 20.667 6 38.334 18 53.001s29.333 22 52 22h300z" />
    <glyph glyph-name="FL00F7h" unicode="&#xf3;" 
d="M612 462c22.667 0 40 -7.33301 52 -22s18 -32.334 18 -53.001v-148c0 -8.66699 -1.5 -17.5 -4.5 -26.5s-7.33301 -17 -13 -24s-12.667 -12.833 -21 -17.5s-17.5 -7 -27.5 -7h-304c-22 0 -39.167 8 -51.5 24s-18.5 33 -18.5 51v148c0 18.667 6.16699 35.834 18.5 51.501
s29.5 23.5 51.5 23.5h300zM263 626c-50.667 0 -90.667 -7.5 -120 -22.5s-51.5 -35.833 -66.5 -62.5s-24.5 -58.167 -28.5 -94.5s-6 -75.833 -6 -118.5v-30c0 -43.333 2 -83.166 6 -119.499s13.5 -67.666 28.5 -93.999s37.167 -47 66.5 -62s69.333 -22.5 120 -22.5h399
c50 0 89.667 7.5 119 22.5s51.5 35.667 66.5 62s24.5 57.666 28.5 93.999s6 76.166 6 119.499v30c0 42.667 -2 82.167 -6 118.5s-13.5 67.833 -28.5 94.5s-37.167 47.5 -66.5 62.5s-69 22.5 -119 22.5h-399zM510 685l100 123h-164l-92 -123h156z" />
    <glyph glyph-name="FL00F4h" unicode="&#xf4;" 
d="M262 626c-50 0 -89.667 -7.5 -119 -22.5s-51.5 -35.833 -66.5 -62.5s-24.5 -58.167 -28.5 -94.5s-6 -75.833 -6 -118.5v-30c0 -43.333 2 -83.166 6 -119.499s13.5 -67.666 28.5 -93.999s37.167 -47 66.5 -62s69 -22.5 119 -22.5h399c50.667 0 90.667 7.5 120 22.5
s51.5 35.667 66.5 62s24.5 57.666 28.5 93.999s6 76.166 6 119.499v30c0 42.667 -2 82.167 -6 118.5s-13.5 67.833 -28.5 94.5s-37.167 47.5 -66.5 62.5s-69.333 22.5 -120 22.5h-399zM612 462c22 0 39.167 -7.83301 51.5 -23.5s18.5 -32.834 18.5 -51.501v-148
c0 -18 -6.16699 -35 -18.5 -51s-29.5 -24 -51.5 -24h-304c-10 0 -19.167 2.33301 -27.5 7s-15.333 10.5 -21 17.5s-10 15 -13 24s-4.5 17.833 -4.5 26.5v148c0 20.667 6 38.334 18 53.001s29.333 22 52 22h300zM342 808l-100 -123h164l56 74l56 -74h164l-100 123h-240z" />
    <glyph glyph-name="FL00F5h" unicode="&#xf5;" 
d="M648 685l100 123h-164l-54 -72l-58 72h-196l-100 -123h164l54 71l58 -71h196zM262 626c-50 0 -89.667 -7.5 -119 -22.5s-51.5 -35.833 -66.5 -62.5s-24.5 -58.167 -28.5 -94.5s-6 -75.833 -6 -118.5v-30c0 -43.333 2 -83.166 6 -119.499s13.5 -67.666 28.5 -93.999
s37.167 -47 66.5 -62s69 -22.5 119 -22.5h399c50.667 0 90.667 7.5 120 22.5s51.5 35.667 66.5 62s24.5 57.666 28.5 93.999s6 76.166 6 119.499v30c0 42.667 -2 82.167 -6 118.5s-13.5 67.833 -28.5 94.5s-37.167 47.5 -66.5 62.5s-69.333 22.5 -120 22.5h-399zM612 462
c22 0 39.167 -7.83301 51.5 -23.5s18.5 -32.834 18.5 -51.501v-148c0 -18 -6.16699 -35 -18.5 -51s-29.5 -24 -51.5 -24h-304c-10 0 -19.167 2.33301 -27.5 7s-15.333 10.5 -21 17.5s-10 15 -13 24s-4.5 17.833 -4.5 26.5v148c0 20.667 6 38.334 18 53.001s29.333 22 52 22
h300z" />
    <glyph glyph-name="FL00F6h" unicode="&#xf6;" 
d="M242 808v-123h164v123h-164zM518 808v-123h164v123h-164zM262 626c-50 0 -89.667 -7.5 -119 -22.5s-51.5 -35.833 -66.5 -62.5s-24.5 -58.167 -28.5 -94.5s-6 -75.833 -6 -118.5v-30c0 -43.333 2 -83.166 6 -119.499s13.5 -67.666 28.5 -93.999s37.167 -47 66.5 -62
s69 -22.5 119 -22.5h399c50.667 0 90.667 7.5 120 22.5s51.5 35.667 66.5 62s24.5 57.666 28.5 93.999s6 76.166 6 119.499v30c0 42.667 -2 82.167 -6 118.5s-13.5 67.833 -28.5 94.5s-37.167 47.5 -66.5 62.5s-69.333 22.5 -120 22.5h-399zM612 462
c22 0 39.167 -7.83301 51.5 -23.5s18.5 -32.834 18.5 -51.501v-148c0 -18 -6.16699 -35 -18.5 -51s-29.5 -24 -51.5 -24h-304c-10 0 -19.167 2.33301 -27.5 7s-15.333 10.5 -21 17.5s-10 15 -13 24s-4.5 17.833 -4.5 26.5v148c0 20.667 6 38.334 18 53.001s29.333 22 52 22
h300z" />
    <glyph glyph-name="FL0100h" unicode="&#xf7;" horiz-adv-x="667" 
d="M251 557v-123h164v123h-164zM544 388h-517l98 -150h515zM251 192v-123h164v123h-164z" />
    <glyph glyph-name="FL00F8h" unicode="&#xf8;" 
d="M262 626h399c50.667 0 90.667 -7.5 120 -22.5s51.5 -35.833 66.5 -62.5s24.5 -58.167 28.5 -94.5s6 -75.833 6 -118.5v-30c0 -43.333 -2 -83.166 -6 -119.499s-13.5 -67.666 -28.5 -93.999s-37.167 -47 -66.5 -62s-69.333 -22.5 -120 -22.5h-399
c-50 0 -89.667 7.5 -119 22.5s-51.5 35.667 -66.5 62s-24.5 57.666 -28.5 93.999s-6 76.166 -6 119.499v30c0 42.667 2 82.167 6 118.5s13.5 67.833 28.5 94.5s37.167 47.5 66.5 62.5s69 22.5 119 22.5zM242 239c0 -12.667 2.83203 -24.999 8.49902 -36.999
s13.834 -21.667 24.501 -29l160 289h-123c-22.667 0 -40 -7.33301 -52 -22s-18 -32.334 -18 -53.001v-148zM681.999 387.001c0 12.667 -2.83203 24.999 -8.49902 36.999s-13.834 21.667 -24.501 29l-160 -289h123c22.667 0 40 7.33301 52 22s18 32.334 18 53.001v148z" />
    <glyph glyph-name="FL00F9h" unicode="&#xf9;" 
d="M570 685l-92 123h-164l100 -123h156zM682 239c0 -8.66699 -1.66602 -17.501 -4.99902 -26.501s-8 -17 -14 -24s-13.333 -12.833 -22 -17.5s-18.334 -7 -29.001 -7h-304c-10 0 -19.167 2.33301 -27.5 7s-15.333 10.667 -21 18s-10 15.333 -13 24s-4.5 17.334 -4.5 26.001
v387h-200v-328c0 -43.333 2 -83.166 6 -119.499s13.5 -67.666 28.5 -93.999s37.167 -47 66.5 -62s69 -22.5 119 -22.5h399c50.667 0 90.667 7.5 120 22.5s51.5 35.667 66.5 62s24.5 57.666 28.5 93.999s6 76.166 6 119.499v327h-200v-386z" />
    <glyph glyph-name="FL00FAh" unicode="&#xfa;" 
d="M510 685l100 123h-164l-92 -123h156zM682 239c0 -8.66699 -1.66602 -17.501 -4.99902 -26.501s-8 -17 -14 -24s-13.333 -12.833 -22 -17.5s-18.334 -7 -29.001 -7h-304c-10 0 -19.167 2.33301 -27.5 7s-15.333 10.667 -21 18s-10 15.333 -13 24s-4.5 17.334 -4.5 26.001
v387h-200v-328c0 -43.333 2 -83.166 6 -119.499s13.5 -67.666 28.5 -93.999s37.167 -47 66.5 -62s69 -22.5 119 -22.5h399c50.667 0 90.667 7.5 120 22.5s51.5 35.667 66.5 62s24.5 57.666 28.5 93.999s6 76.166 6 119.499v327h-200v-386z" />
    <glyph glyph-name="FL00FBh" unicode="&#xfb;" 
d="M342 808l-100 -123h164l56 74l56 -74h164l-100 123h-240zM682 239c0 -8.66699 -1.66602 -17.501 -4.99902 -26.501s-8 -17 -14 -24s-13.333 -12.833 -22 -17.5s-18.334 -7 -29.001 -7h-304c-10 0 -19.167 2.33301 -27.5 7s-15.333 10.667 -21 18s-10 15.333 -13 24
s-4.5 17.334 -4.5 26.001v387h-200v-328c0 -43.333 2 -83.166 6 -119.499s13.5 -67.666 28.5 -93.999s37.167 -47 66.5 -62s69 -22.5 119 -22.5h399c50.667 0 90.667 7.5 120 22.5s51.5 35.667 66.5 62s24.5 57.666 28.5 93.999s6 76.166 6 119.499v327h-200v-386z" />
    <glyph glyph-name="FL00FCh" unicode="&#xfc;" 
d="M242 808v-123h164v123h-164zM518 808v-123h164v123h-164zM682 239c0 -8.66699 -1.66602 -17.501 -4.99902 -26.501s-8 -17 -14 -24s-13.333 -12.833 -22 -17.5s-18.334 -7 -29.001 -7h-304c-10 0 -19.167 2.33301 -27.5 7s-15.333 10.667 -21 18s-10 15.333 -13 24
s-4.5 17.334 -4.5 26.001v387h-200v-328c0 -43.333 2 -83.166 6 -119.499s13.5 -67.666 28.5 -93.999s37.167 -47 66.5 -62s69 -22.5 119 -22.5h399c50.667 0 90.667 7.5 120 22.5s51.5 35.667 66.5 62s24.5 57.666 28.5 93.999s6 76.166 6 119.499v327h-200v-386z" />
    <glyph glyph-name="FL00FDh" unicode="&#xfd;" 
d="M682 625l0.000976562 -220c0 -8.66699 -1.66699 -17.5 -5 -26.5s-8 -17 -14 -24s-13.333 -12.833 -22 -17.5s-18.334 -7 -29.001 -7h-304c-10 0 -19.167 2.33301 -27.5 7s-15.333 10.5 -21 17.5s-10 15 -13 24s-4.5 17.833 -4.5 26.5v221h-200v-162
c0 -43.333 2 -83.166 6 -119.499s13.5 -67.833 28.5 -94.5s37.167 -47.5 66.5 -62.5s69 -22.5 119 -22.5h100v-165h200v165h99c50.667 0 90.667 7.5 120 22.5s51.5 35.833 66.5 62.5s24.5 58.167 28.5 94.5s6 76.166 6 119.499v161h-200zM510.001 685l100 123h-164l-92 -123
h156z" />
    <glyph glyph-name="FL00FEh" unicode="&#xfe;" horiz-adv-x="920" 
d="M242 626v-82.999h419c41.333 0 76 -4.66699 104 -14s50.333 -23 67 -41s28.5 -40 35.5 -66s10.5 -55.667 10.5 -89v-56c0 -31.333 -3.5 -59 -10.5 -83s-18.833 -44.333 -35.5 -61s-39 -29.334 -67 -38.001s-62.667 -13 -104 -13h-343l-76 120v-202h-200v626h200z
M619 231.001c13.333 1.33301 24.833 6.33496 34.5 15.002s17.167 19 22.5 31c0.666992 3.33301 1.16699 6.16602 1.5 8.49902s0.5 4.16602 0.5 5.49902v28c0 2.66699 -0.166992 5 -0.5 7s-0.833008 4.33301 -1.5 7c-5.33301 12 -12.833 22.333 -22.5 31
s-21.167 13.667 -34.5 15h-377v-148h377z" />
    <glyph glyph-name="FL00FFh" unicode="&#xff;" 
d="M682 625l0.000976562 -220c0 -8.66699 -1.66699 -17.5 -5 -26.5s-8 -17 -14 -24s-13.333 -12.833 -22 -17.5s-18.334 -7 -29.001 -7h-304c-10 0 -19.167 2.33301 -27.5 7s-15.333 10.5 -21 17.5s-10 15 -13 24s-4.5 17.833 -4.5 26.5v221h-200v-162
c0 -43.333 2 -83.166 6 -119.499s13.5 -67.833 28.5 -94.5s37.167 -47.5 66.5 -62.5s69 -22.5 119 -22.5h100v-165h200v165h99c50.667 0 90.667 7.5 120 22.5s51.5 35.833 66.5 62.5s24.5 58.167 28.5 94.5s6 76.166 6 119.499v161h-200zM242.001 808v-123h164v123h-164z
M518.001 808v-123h164v123h-164z" />
    <glyph glyph-name="FL0152h" unicode="&#x152;" horiz-adv-x="1431" 
d="M1243 388l96 -149.998h-443l-76 120v-157c0 -11.333 3 -20.333 9 -27s13.667 -10 23 -10h537v-164h-1127c-50 0 -89.667 7.5 -119 22.5s-51.5 35.667 -66.5 62s-24.5 57.666 -28.5 93.999s-6 76.166 -6 119.499v30c0 42.667 2 82.167 6 118.5s13.5 67.833 28.5 94.5
s37.167 47.5 66.5 62.5s69 22.5 119 22.5h1127v-164h-537c-9.33301 0 -17 -3.33301 -23 -10s-9 -15.667 -9 -27v-37h423zM620 462.002h-307.999c-11.333 0 -20.833 -2.33301 -28.5 -7s-14.334 -10.5 -20.001 -17.5s-10.167 -15 -13.5 -24s-6 -17.833 -8 -26.5v-148
c2 -8.66699 4.66699 -17.5 8 -26.5s7.5 -17 12.5 -24s11.167 -12.833 18.5 -17.5s16.333 -7 27 -7h312v298z" />
    <glyph glyph-name="FL0153h" unicode="&#x153;" horiz-adv-x="1431" 
d="M1243 388l96 -149.998h-443l-76 120v-157c0 -11.333 3 -20.333 9 -27s13.667 -10 23 -10h537v-164h-1127c-50 0 -89.667 7.5 -119 22.5s-51.5 35.667 -66.5 62s-24.5 57.666 -28.5 93.999s-6 76.166 -6 119.499v30c0 42.667 2 82.167 6 118.5s13.5 67.833 28.5 94.5
s37.167 47.5 66.5 62.5s69 22.5 119 22.5h1127v-164h-537c-9.33301 0 -17 -3.33301 -23 -10s-9 -15.667 -9 -27v-37h423zM620 462.002h-307.999c-11.333 0 -20.833 -2.33301 -28.5 -7s-14.334 -10.5 -20.001 -17.5s-10.167 -15 -13.5 -24s-6 -17.833 -8 -26.5v-148
c2 -8.66699 4.66699 -17.5 8 -26.5s7.5 -17 12.5 -24s11.167 -12.833 18.5 -17.5s16.333 -7 27 -7h312v298z" />
    <glyph glyph-name="FL0160h" unicode="&#x160;" horiz-adv-x="920" 
d="M584 685l100 123h-164l-56 -74l-56 74h-164l100 -123h240zM878 208c0 24 -3.66699 46.999 -11 68.999s-19.333 41.167 -36 57.5s-39 29.333 -67 39s-62.333 14.5 -103 14.5h-367c-12 1.33301 -22.167 3.33301 -30.5 6s-15.166 9.66699 -20.499 21v18
c5.33301 12 12.833 19.5 22.5 22.5s21.167 5.16699 34.5 6.5h578v164h-619c-41.333 0 -75.833 -5 -103.5 -15s-49.834 -24 -66.501 -42s-28.667 -39.333 -36 -64s-11 -51.667 -11 -81c0 -25.333 3.16699 -49.166 9.5 -71.499s17.333 -42 33 -59s36.334 -30.5 62.001 -40.5
s57.5 -15 95.5 -15h384c12 -1.33301 22.167 -3.33301 30.5 -6s15.166 -9.66699 20.499 -21v-18c-5.33301 -12 -12.833 -19.5 -22.5 -22.5s-21.167 -5.16699 -34.5 -6.5h-578v-164h619c40.667 0 75 5.66699 103 17s50.333 26.5 67 45.5s28.667 40.5 36 64.5s11 49 11 75v6z
" />
    <glyph glyph-name="FL0161h" unicode="&#x161;" horiz-adv-x="920" 
d="M584 685l100 123h-164l-56 -74l-56 74h-164l100 -123h240zM878 208c0 24 -3.66699 46.999 -11 68.999s-19.333 41.167 -36 57.5s-39 29.333 -67 39s-62.333 14.5 -103 14.5h-367c-12 1.33301 -22.167 3.33301 -30.5 6s-15.166 9.66699 -20.499 21v18
c5.33301 12 12.833 19.5 22.5 22.5s21.167 5.16699 34.5 6.5h578v164h-619c-41.333 0 -75.833 -5 -103.5 -15s-49.834 -24 -66.501 -42s-28.667 -39.333 -36 -64s-11 -51.667 -11 -81c0 -25.333 3.16699 -49.166 9.5 -71.499s17.333 -42 33 -59s36.334 -30.5 62.001 -40.5
s57.5 -15 95.5 -15h384c12 -1.33301 22.167 -3.33301 30.5 -6s15.166 -9.66699 20.499 -21v-18c-5.33301 -12 -12.833 -19.5 -22.5 -22.5s-21.167 -5.16699 -34.5 -6.5h-578v-164h619c40.667 0 75 5.66699 103 17s50.333 26.5 67 45.5s28.667 40.5 36 64.5s11 49 11 75v6z
" />
    <glyph glyph-name="FL0178h" unicode="&#x178;" 
d="M682 625l0.000976562 -220c0 -8.66699 -1.66699 -17.5 -5 -26.5s-8 -17 -14 -24s-13.333 -12.833 -22 -17.5s-18.334 -7 -29.001 -7h-304c-10 0 -19.167 2.33301 -27.5 7s-15.333 10.5 -21 17.5s-10 15 -13 24s-4.5 17.833 -4.5 26.5v221h-200v-162
c0 -43.333 2 -83.166 6 -119.499s13.5 -67.833 28.5 -94.5s37.167 -47.5 66.5 -62.5s69 -22.5 119 -22.5h100v-165h200v165h99c50.667 0 90.667 7.5 120 22.5s51.5 35.833 66.5 62.5s24.5 58.167 28.5 94.5s6 76.166 6 119.499v161h-200zM242.001 808v-123h164v123h-164z
M518.001 808v-123h164v123h-164z" />
    <glyph glyph-name="FL017Dh" unicode="&#x17d;" horiz-adv-x="808" 
d="M524 685l100 123h-164l-56 -74l-56 74h-164l100 -123h240zM766 0v164h-412l412 319v143h-724v-164h412l-412 -319v-143h724z" />
    <glyph glyph-name="FL017Eh" unicode="&#x17e;" horiz-adv-x="808" 
d="M524 685l100 123h-164l-56 -74l-56 74h-164l100 -123h240zM766 0v164h-412l412 319v143h-724v-164h412l-412 -319v-143h724z" />
    <glyph glyph-name="FL00B8h" unicode="&#x192;" horiz-adv-x="808" 
d="M620 388h-378v37c0 11.333 3 20.333 9 27s13.667 10 23 10h492v164h-627c-10 0 -20.833 -3 -32.5 -9s-22.167 -14 -31.5 -24s-17.166 -21.333 -23.499 -34s-9.5 -25.667 -9.5 -39v-414c0 -13.333 3.16699 -26.333 9.5 -39s14.166 -24 23.499 -34s19.833 -18 31.5 -24
s22.5 -9 32.5 -9h627v164h-492c-9.33301 0 -17 3.33301 -23 10s-9 15.667 -9 27v157l76 -120h398z" />
    <glyph glyph-name="FL02C6h" unicode="&#x2c6;" horiz-adv-x="494" 
d="M127 749l-100 -123h164l56 74l56 -74h164l-100 123h-240z" />
    <glyph glyph-name="FL02DCh" unicode="&#x2dc;" horiz-adv-x="626" 
d="M499 625l100 123h-164l-54 -72l-58 72h-196l-100 -123h164l54 71l58 -71h196z" />
    <glyph glyph-name="FL2013h" unicode="&#x2013;" horiz-adv-x="523" 
d="M400 388h-373l98 -150h371z" />
    <glyph glyph-name="FL2015h" unicode="&#x2014;" horiz-adv-x="553" 
d="M511 388h-469v-150h469v150z" />
    <glyph glyph-name="FL2018h" unicode="&#x2018;" horiz-adv-x="284" 
d="M242 377l-0.000976562 248.999c-27.333 0 -53.166 -1.66699 -77.499 -5s-45.5 -8.66602 -63.5 -15.999s-32.333 -17 -43 -29s-16 -26.333 -16 -43v-156h200z" />
    <glyph glyph-name="FL2019h" unicode="&#x2019;" horiz-adv-x="284" 
d="M42 626l0.000976562 -248.999c27.333 0 53.166 1.66699 77.499 5s45.5 8.66602 63.5 15.999s32.333 16.833 43 28.5s16 26.167 16 43.5v156h-200z" />
    <glyph glyph-name="FL201Ah" unicode="&#x201a;" horiz-adv-x="284" 
d="M42 164l0.000976562 -248.999c27.333 0 53.166 1.66699 77.499 5s45.5 8.66602 63.5 15.999s32.333 16.833 43 28.5s16 26.167 16 43.5v156h-200z" />
    <glyph glyph-name="FL201Ch" unicode="&#x201c;" horiz-adv-x="509" 
d="M230 377l-0.000976562 248.999c-27.333 0 -52.666 -1.66699 -75.999 -5s-43.333 -8.66602 -60 -15.999s-29.667 -17 -39 -29s-14 -26.333 -14 -43v-156h189zM465.999 376.999l-0.000976562 248.999c-27.333 0 -52.666 -1.66699 -75.999 -5s-43.333 -8.66602 -60 -15.999
s-29.667 -17 -39 -29s-14 -26.333 -14 -43v-156h189z" />
    <glyph glyph-name="FL201Dh" unicode="&#x201d;" horiz-adv-x="509" 
d="M278 626l0.000976562 -248.999c27.333 0 52.666 1.66699 75.999 5s43.333 8.66602 60 15.999s29.667 16.833 39 28.5s14 26.167 14 43.5v156h-189zM42.001 626.001l0.000976562 -248.999c27.333 0 52.666 1.66699 75.999 5s43.333 8.66602 60 15.999
s29.667 16.833 39 28.5s14 26.167 14 43.5v156h-189z" />
    <glyph glyph-name="FL201Eh" unicode="&#x201e;" horiz-adv-x="538" 
d="M291 164l0.000976562 -248.999c27.333 0 53.166 1.66699 77.499 5s45.5 8.66602 63.5 15.999s32.333 16.833 43 28.5s16 26.167 16 43.5v156h-200zM42.001 164.001l0.000976562 -248.999c27.333 0 53.166 1.66699 77.499 5s45.5 8.66602 63.5 15.999
s32.333 16.833 43 28.5s16 26.167 16 43.5v156h-200z" />
    <glyph glyph-name="FL2020h" unicode="&#x2020;" horiz-adv-x="656" 
d="M428 348v-348h-200v348h-103l-98 150h201v128h200v-128h105l96 -150h-201z" />
    <glyph glyph-name="FL2021h" unicode="&#x2021;" horiz-adv-x="656" 
d="M533 277l96 -150h-201v-127h-200v127h-103l-98 150h201v71h-103l-98 150h201v128h200v-128h105l96 -150h-201v-71h105z" />
    <glyph glyph-name="FL2022h" unicode="&#x2022;" 
d="M262 626c-50 0 -89.667 -7.5 -119 -22.5s-51.5 -35.833 -66.5 -62.5s-24.5 -58.167 -28.5 -94.5s-6 -75.833 -6 -118.5v-30c0 -43.333 2 -83.166 6 -119.499s13.5 -67.666 28.5 -93.999s37.167 -47 66.5 -62s69 -22.5 119 -22.5h399c50.667 0 90.667 7.5 120 22.5
s51.5 35.667 66.5 62s24.5 57.666 28.5 93.999s6 76.166 6 119.499v30c0 42.667 -2 82.167 -6 118.5s-13.5 67.833 -28.5 94.5s-37.167 47.5 -66.5 62.5s-69.333 22.5 -120 22.5h-399z" />
    <glyph glyph-name="FL2026h" unicode="&#x2026;" horiz-adv-x="824" 
d="M582 164v-164h200v164h-200zM312 164v-164h200v164h-200zM42 164v-164h200v164h-200z" />
    <glyph glyph-name="FL2030h" unicode="&#x2030;" horiz-adv-x="1578" 
d="M845 625h-209l-353 -625h209zM929 207c8 0 14.333 -2.83301 19 -8.5s7 -12.167 7 -19.5v-46c0 -6.66699 -2.33301 -13 -7 -19s-11 -9 -19 -9h-104c-8 0 -14.167 3 -18.5 9s-6.5 12.333 -6.5 19v46c0 7.33301 2.16699 13.833 6.5 19.5s10.833 8.5 19.5 8.5h103zM776 313
c-25.333 0 -45.333 -3.83301 -60 -11.5s-25.667 -18.167 -33 -31.5s-12 -29.166 -14 -47.499s-3 -37.833 -3 -58.5v-15c0 -21.333 1 -41.166 3 -59.499s6.66699 -34.166 14 -47.499s18.333 -23.666 33 -30.999s34.667 -11 60 -11h199c25.333 0 45.333 3.66699 60 11
s25.834 17.666 33.501 30.999s12.5 29.166 14.5 47.499s3 38.166 3 59.499v15c0 20.667 -1 40.167 -3 58.5s-6.83301 34.166 -14.5 47.499s-18.834 23.833 -33.501 31.5s-34.667 11.5 -60 11.5h-199zM305 519c8 0 14.333 -2.83301 19 -8.5s7 -12.167 7 -19.5v-46
c0 -6.66699 -2.33301 -13 -7 -19s-11 -9 -19 -9h-104c-8 0 -14.167 3 -18.5 9s-6.5 12.333 -6.5 19v46c0 7.33301 2.16699 13.833 6.5 19.5s10.833 8.5 19.5 8.5h103zM152 625c-25.333 0 -45.333 -3.83301 -60 -11.5s-25.667 -18.167 -33 -31.5s-12 -29.166 -14 -47.499
s-3 -37.833 -3 -58.5v-15c0 -21.333 1 -41.166 3 -59.499s6.66699 -34.166 14 -47.499s18.333 -23.666 33 -30.999s34.667 -11 60 -11h199c25.333 0 45.333 3.66699 60 11s25.834 17.666 33.501 30.999s12.5 29.166 14.5 47.499s3 38.166 3 59.499v15
c0 20.667 -1 40.167 -3 58.5s-6.83301 34.166 -14.5 47.499s-18.834 23.833 -33.501 31.5s-34.667 11.5 -60 11.5h-199zM1379 207c8 0 14.333 -2.83301 19 -8.5s7 -12.167 7 -19.5v-46c0 -6.66699 -2.33301 -13 -7 -19s-11 -9 -19 -9h-104c-8 0 -14.167 3 -18.5 9
s-6.5 12.333 -6.5 19v46c0 7.33301 2.16699 13.833 6.5 19.5s10.833 8.5 19.5 8.5h103zM1226 313c-25.333 0 -45.333 -3.83301 -60 -11.5s-25.667 -18.167 -33 -31.5s-12 -29.166 -14 -47.499s-3 -37.833 -3 -58.5v-15c0 -21.333 1 -41.166 3 -59.499
s6.66699 -34.166 14 -47.499s18.333 -23.666 33 -30.999s34.667 -11 60 -11h199c25.333 0 45.333 3.66699 60 11s25.834 17.666 33.501 30.999s12.5 29.166 14.5 47.499s3 38.166 3 59.499v15c0 20.667 -1 40.167 -3 58.5s-6.83301 34.166 -14.5 47.499
s-18.834 23.833 -33.501 31.5s-34.667 11.5 -60 11.5h-199z" />
    <glyph glyph-name="FL2039h" unicode="&#x2039;" horiz-adv-x="207" 
d="M42 193l123 -100v164l-74 56l74 56v164l-123 -100v-240z" />
    <glyph glyph-name="FL203Ah" unicode="&#x203a;" horiz-adv-x="207" 
d="M164 193l-123 -100v164l74 56l-74 56v164l123 -100v-240z" />
    <glyph glyph-name="FL20ACh" unicode="&#x20ac;" horiz-adv-x="1021" 
d="M698 295l98.9971 -96.9971h-373c5.33301 -10 12 -18.167 20 -24.5s18.667 -9.5 32 -9.5h503v-164h-549c-40 0 -73.167 4.66699 -99.5 14s-47.666 22.666 -63.999 39.999s-28.5 38.166 -36.5 62.499s-13.333 51.5 -16 81.5h-86l-101 97h183v36h-82l-101 96h186
c2.66699 30 8 57.167 16 81.5s20.333 45.166 37 62.499s38.167 30.833 64.5 40.5s59.5 14.5 99.5 14.5h549v-164h-499c-13.333 0 -24.666 -3.33301 -33.999 -10s-16.666 -15 -21.999 -25h274l99 -96h-387v-36h288z" />
    <glyph glyph-name="FL2122h" unicode="&#x2122;" horiz-adv-x="322" 
d="M166 518v131.998c0.666992 2 2.33398 3 5.00098 3c4 0 6 0.333008 6 1v1c3.33301 0 8.66602 -4.16699 15.999 -12.5s13 -17.166 17 -26.499l1 -7c4 -12 7.16699 -21.833 9.5 -29.5l6.5 -21.5c2.66699 7.33301 4.83398 14.333 6.50098 21s3.5 15 5.5 25
c6.66699 20.667 13.667 34.334 21 41.001s15.666 10 24.999 10h5v-137h-14v89l-6 9l-32 -90c-1.33301 -4 -2.5 -6.33301 -3.5 -7s-3.5 -1 -7.5 -1c-2 0 -3.66699 0.333008 -5 1s-3 3 -5 7l-32 88l-5 -7v-89h-14zM78 517.998v115h-46v22h111v-22h-45v-115h-20z" />
    <glyph glyph-name=".null" horiz-adv-x="0" 
 />
    <glyph glyph-name="nonmarkingreturn" horiz-adv-x="500" 
 />
    <glyph glyph-name="FL004Bh" horiz-adv-x="920" 
d="M242 388l357 -0.000976562c17.333 0 31.166 2.66699 41.499 8s15.5 16 15.5 32v198h199v-196c0 -9.33301 -1.83301 -19.666 -5.5 -30.999s-8.66699 -22.333 -15 -33s-13.833 -20.167 -22.5 -28.5s-18 -14.5 -28 -18.5c8 -4 17.5 -9.66699 28.5 -17s21.333 -16.5 31 -27.5
s17.834 -24.167 24.501 -39.5s10 -33 10 -53v-182h-200v204c0 10 -3.33301 18.167 -10 24.5s-15.667 9.5 -27 9.5h-323l-76 120v-358h-200v626h200v-238z" />
    </font>
</defs>
</svg>
