<?xml version="1.0" standalone="no"?>
<!DOCTYPE svg PUBLIC "-//W3C//DTD SVG 20010904//EN"
 "http://www.w3.org/TR/2001/REC-SVG-20010904/DTD/svg10.dtd">
<svg version="1.0" xmlns="http://www.w3.org/2000/svg"
 width="744.000000pt" height="267.000000pt" viewBox="0 0 744.000000 267.000000"
 preserveAspectRatio="xMidYMid meet">

<g transform="translate(0.000000,267.000000) scale(0.100000,-0.100000)"
fill="#000000" stroke="none">
<path d="M0 1425 l0 -1245 649 0 649 0 6 47 c9 67 25 101 48 109 13 4 58 -13
132 -49 62 -30 151 -68 197 -83 78 -26 96 -28 244 -29 146 0 164 2 209 23 111
51 166 126 166 229 0 129 -65 186 -345 300 -148 61 -297 136 -372 189 -171
121 -256 302 -239 506 21 255 196 443 482 519 102 27 322 37 443 19 140 -20
297 -78 342 -126 22 -24 24 -35 27 -152 4 -197 -15 -214 -165 -139 -125 63
-210 88 -328 94 -196 11 -315 -55 -340 -188 -10 -55 10 -112 58 -162 54 -55
136 -100 307 -170 292 -118 430 -208 513 -334 69 -105 89 -169 89 -290 0 -111
-12 -179 -48 -262 -13 -29 -24 -55 -24 -57 0 -2 45 -4 100 -4 55 0 100 2 100
4 0 2 -14 32 -31 66 -17 34 -40 98 -52 143 -22 81 -22 94 -22 802 l0 720 40
20 c34 16 61 19 180 19 94 -1 153 -5 180 -15 l40 -14 6 -685 c6 -748 4 -721
66 -844 71 -140 253 -227 445 -212 210 17 337 108 405 291 17 46 18 102 23
744 l5 695 33 19 c39 23 -18 22 1070 19 l812 -1 0 -176 0 -175 -225 0 -225 0
0 -705 0 -705 895 0 895 0 0 1245 0 1245 -3720 0 -3720 0 0 -1245z"/>
<path d="M4628 1038 c-4 -532 -5 -556 -26 -633 -12 -44 -39 -115 -60 -157
l-38 -78 343 0 343 0 0 710 0 710 -279 0 -280 0 -3 -552z"/>
</g>
</svg>
