<?xml version="1.0" standalone="no"?>
<!DOCTYPE svg PUBLIC "-//W3C//DTD SVG 1.1//EN" "http://www.w3.org/Graphics/SVG/1.1/DTD/svg11.dtd" >
<svg xmlns="http://www.w3.org/2000/svg" xmlns:xlink="http://www.w3.org/1999/xlink" version="1.1">
<metadata>
Created by FontForge 20150827 at Thu Dec 01 12:12:16 2016
 By equispe
2012-2015 Metro UI CSS
</metadata>
<defs>
<font id="metro" horiz-adv-x="1024" >
  <font-face 
    font-family="metro"
    font-weight="400"
    font-stretch="normal"
    units-per-em="1024"
    panose-1="0 0 0 0 0 0 0 0 0 0"
    ascent="960"
    descent="-64"
    bbox="-71 -85 1317 1028"
    underline-thickness="0"
    underline-position="0"
    unicode-range="U+0001-FFFD"
  />
<missing-glyph 
 />
    <glyph glyph-name=".notdef" unicode="&#xfffd;" 
 />
    <glyph glyph-name="glyph1" horiz-adv-x="0" 
d="M0 0v0v0v0z" />
    <glyph glyph-name="glyph1" horiz-adv-x="0" 
d="M0 0v0v0v0z" />
    <glyph glyph-name="nonmarkingreturn" horiz-adv-x="341" 
 />
    <glyph glyph-name="uni0001" horiz-adv-x="0" 
d="M0 0v0v0v0z" />
    <glyph glyph-name="space" unicode=" " horiz-adv-x="512" 
d="M0 0v0v0v0z" />
    <glyph glyph-name="uniE600" unicode="&#xe600;" 
d="M321 22q-53 25 -97 62t-77 83.5t-54 101.5t-27 115h-64q8 -99 51 -184.5t111.5 -149t157.5 -99.5t190 -36q7 0 14 0.5t14 0.5l-162 163l-57 -57v0zM359 300q-6 0 -12 1t-11 3t-9 4.5t-8 5.5q-3 3 -6 7t-5 9q-2 4 -3 9t-1 11h-55q0 -12 2 -22t7 -19q4 -9 10 -16t14 -13
q7 -6 16 -10.5t19 -7.5t20 -4.5t21 -1.5q12 0 23 1.5t21 4.5q10 4 19 8.5t17 10.5q7 7 13 14.5t10 16.5t6.5 19.5t2.5 22.5q0 6 -1 12l-2 12q-2 5 -4.5 10.5t-5.5 10.5t-7.5 10t-9.5 9q-6 4 -12.5 7t-13.5 6q6 3 11.5 6.5t10.5 7.5t9 8.5t7 9.5t5.5 9.5t4.5 10.5l2 10t1 10
q0 12 -2 22t-6 19q-3 9 -8.5 16t-12.5 13t-15.5 10.5t-18.5 7.5t-21 4.5t-23 1.5t-22.5 -1.5t-20.5 -4.5q-9 -4 -17.5 -8.5t-15.5 -10.5q-7 -7 -12.5 -14t-9.5 -15q-4 -9 -6 -18t-2 -19h55q0 6 1 10.5t3 9.5q2 4 5 7.5t6 6.5t7 5.5t9 4.5l10 2t10 1q13 0 22.5 -3.5
t15.5 -9.5q7 -7 10 -16t3 -21q0 -6 -1 -11t-3 -10q-1 -5 -4 -9t-6 -7q-4 -3 -8 -5.5t-10 -4.5q-5 -2 -11 -3t-13 -1h-33v-44h33q7 0 13 -0.5t12 -2.5t10.5 -4.5t8.5 -5.5t7 -7.5t6 -9.5q2 -5 3 -11t1 -14q0 -12 -4 -22t-11 -17t-17 -10.5t-23 -3.5v0zM724 553
q-10 11 -22.5 19t-26.5 14t-29.5 8.5t-32.5 2.5h-101v-341h98q18 0 34 3t30 9q15 5 27.5 13.5t22.5 18.5q10 11 18 23.5t13 27.5q6 15 9 32t3 35v17q0 19 -3 35.5t-9 31.5q-5 15 -13 28t-18 23v0zM707 418q0 -13 -1.5 -25.5t-4.5 -22.5q-3 -11 -7.5 -20t-10.5 -16t-14 -13
t-17 -10t-19.5 -6t-22.5 -2h-39v247h42q23 0 40.5 -7.5t29.5 -22.5q12 -14 18 -35.5t6 -49.5v-17v0zM512 939q-7 0 -14 -0.5t-14 -1.5l162 -163l57 57q52 -25 96.5 -62t77.5 -83.5t54 -101.5t27 -115h64q-8 99 -51 184.5t-111.5 149t-157.5 100t-190 36.5v0z" />
    <glyph glyph-name="uniE601" unicode="&#xe601;" 
d="M939 695l-196 164l-55 -65l196 -165l55 66v0zM336 794l-55 65l-196 -164l55 -65l196 164v0zM533 597h-64v-256l203 -121l32 52l-171 101v224v0zM512 768q-80 0 -150 -30t-122 -82.5t-82 -122t-30 -149.5t30 -149.5t82 -122t122 -82.5t150 -30q79 0 149 30t122.5 82.5
t82.5 122t30 149.5t-30 149.5t-82.5 122t-122.5 82.5t-149 30v0zM512 85q-62 0 -116.5 23.5t-95 64t-64 95t-23.5 116.5t23.5 116.5t64 95t95 64t116.5 23.5t116.5 -23.5t95 -64t64 -95t23.5 -116.5t-23.5 -116.5t-64 -95t-95 -64t-116.5 -23.5v0z" />
    <glyph glyph-name="uniE602" unicode="&#xe602;" 
d="M939 695l-196 164l-55 -65l196 -165l55 66v0zM336 794l-55 65l-196 -164l55 -65l196 164v0zM512 768q-80 0 -150 -30t-122 -82.5t-82 -122t-30 -149.5t30 -149.5t82 -122t122 -82.5t150 -30q79 0 149 30t122.5 82.5t82.5 122t30 149.5t-30 149.5t-82.5 122t-122.5 82.5
t-149 30v0zM512 85q-62 0 -116.5 23.5t-95 64t-64 95t-23.5 116.5t23.5 116.5t64 95t95 64t116.5 23.5t116.5 -23.5t95 -64t64 -95t23.5 -116.5t-23.5 -116.5t-64 -95t-95 -64t-116.5 -23.5v0zM449 319l-90 90l-45 -45l135 -136l257 257l-46 45l-211 -211v0z" />
    <glyph glyph-name="uniE603" unicode="&#xe603;" 
d="M512 28l-62 56q-82 75 -149.5 138.5t-115 122t-74 115t-26.5 116.5q0 49 18.5 92t50 74.5t74.5 50t92 18.5q56 0 106.5 -24t85.5 -65q35 41 85.5 65t106.5 24q49 0 92 -18.5t74.5 -50t50 -74.5t18.5 -92q0 -60 -26.5 -116.5t-74 -115t-115 -122t-149.5 -138.5l-62 -56v0z
" />
    <glyph glyph-name="uniE604" unicode="&#xe604;" 
d="M853 277q-40 0 -78 6.5t-74 18.5q-11 3 -22.5 0.5t-20.5 -11.5l-94 -94q-46 23 -86.5 53t-76.5 65.5t-65.5 76.5t-52.5 86l94 94q8 9 11 21t-1 23q-12 36 -18 74t-6 78q0 18 -12.5 30.5t-30.5 12.5h-149q-18 0 -30.5 -12.5t-12.5 -30.5q0 -150 57 -282t155.5 -230.5
t230.5 -155.5t282 -57q18 0 30.5 12.5t12.5 29.5v150q0 17 -12.5 29.5t-30.5 12.5v0zM512 811v-427l128 128h256v299h-384v0z" />
    <glyph glyph-name="uniE605" unicode="&#xe605;" 
d="M811 597h-598q-53 0 -90.5 -37.5t-37.5 -90.5v-256h171v-170h512v170h171v256q0 53 -37.5 90.5t-90.5 37.5v0zM683 128h-342v213h342v-213v0zM811 427q-18 0 -30.5 12.5t-12.5 29.5q0 18 12.5 30.5t30.5 12.5q17 0 29.5 -12.5t12.5 -30.5q0 -17 -12.5 -29.5t-29.5 -12.5
v0zM768 811h-512v-171h512v171v0z" />
    <glyph glyph-name="uniE606" unicode="&#xe606;" 
d="M469 -85h86v85h-86v-85v0zM299 -85h85v85h-85v-85v0zM640 -85h85v85h-85v-85v0zM755 695l-243 244h-43v-324l-195 196l-61 -61l239 -238l-239 -238l61 -61l195 196v-324h43l243 244l-183 183l183 183v0zM555 775l80 -80l-80 -80v160v0zM635 329l-80 -80v160l80 -80v0z
" />
    <glyph glyph-name="uniE607" unicode="&#xe607;" 
d="M332 650l-66 55l-231 -278l231 -279l66 55l-186 224l186 223v0zM299 384h85v85h-85v-85v0zM725 469h-85v-85h85v85v0zM469 384h86v85h-86v-85v0zM758 705l-66 -55l186 -223l-186 -224l66 -54l231 278l-231 278v0z" />
    <glyph glyph-name="uniE608" unicode="&#xe608;" 
d="M555 555h-86v-86h86v86v0zM725 555h-85v-86h85v86v0zM853 277q-40 0 -78 6.5t-74 18.5q-11 3 -22.5 0.5t-20.5 -11.5l-94 -94q-46 23 -86.5 53t-76.5 65.5t-65.5 76.5t-52.5 86l94 94q8 9 11 20.5t-1 22.5q-12 36 -18 74.5t-6 78.5q0 18 -12.5 30.5t-30.5 12.5h-149
q-18 0 -30.5 -12.5t-12.5 -30.5q0 -150 57 -282t155.5 -230.5t230.5 -155.5t282 -57q18 0 30.5 12.5t12.5 29.5v150q0 17 -12.5 29.5t-30.5 12.5v0zM811 555v-86h85v86h-85v0z" />
    <glyph glyph-name="uniE609" unicode="&#xe609;" 
d="M299 -85h85v85h-85v-85v0zM469 -85h86v85h-86v-85v0zM555 853h-86v-426h86v426v0zM707 749l-62 -61q55 -34 89 -91.5t34 -127.5q0 -53 -20 -99.5t-55 -81t-81.5 -55t-99.5 -20.5t-99.5 20.5t-81.5 55t-55 81t-20 99.5q0 70 34 127.5t89 91.5l-62 61q-33 -23 -60 -53
t-46 -66t-29.5 -76.5t-10.5 -84.5q0 -70 26.5 -132.5t73 -108.5t108.5 -73t133 -27t133 27t108.5 73t73 108.5t26.5 132.5q0 44 -10.5 84.5t-29.5 76.5t-46 66t-60 53v0zM640 -85h85v85h-85v-85v0z" />
    <glyph glyph-name="uniE60A" unicode="&#xe60a;" 
d="M299 -85h85v85h-85v-85v0zM512 384q53 0 90.5 37.5t37.5 90.5v256q0 53 -37.5 90.5t-90.5 37.5t-90.5 -37.5t-37.5 -90.5v-256q0 -53 37.5 -90.5t90.5 -37.5v0zM469 -85h86v85h-86v-85v0zM640 -85h85v85h-85v-85v0zM811 512h-73q0 -48 -18.5 -88t-50 -69t-72.5 -45
t-85 -16t-85 16t-72.5 45t-50 69t-18.5 88h-73q0 -55 20.5 -103.5t55.5 -86.5t81.5 -63.5t98.5 -33.5v-140h86v140q52 8 98.5 33.5t81.5 63.5t55.5 86.5t20.5 103.5v0z" />
    <glyph glyph-name="uniE60B" unicode="&#xe60b;" 
d="M734 555l-187 279q-6 10 -15.5 14t-19.5 4t-19.5 -4.5t-15.5 -13.5l-187 -279h-205q-17 0 -29.5 -12.5t-12.5 -30.5q0 -3 0.5 -6t0.5 -6l108 -395q8 -27 30.5 -44.5t52.5 -17.5h554q30 0 52.5 17.5t29.5 44.5l109 396q0 2 0.5 5t0.5 6q0 18 -12.5 30.5t-29.5 12.5h-205v0
zM384 555l128 187l128 -187h-256v0zM512 213q-35 0 -60 25t-25 61q0 35 25 60t60 25t60 -25t25 -60q0 -36 -25 -61t-60 -25v0z" />
    <glyph glyph-name="uniE60C" unicode="&#xe60c;" 
d="M512 558q-63 0 -118 -23.5t-96 -65.5l60 -60q30 30 69.5 47t84.5 17t84.5 -17t69.5 -47l60 60q-41 42 -96 65.5t-118 23.5v0zM512 381q-26 0 -45 -19t-19 -45q0 -27 19 -45.5t45 -18.5t45 18.5t19 45.5q0 26 -19 45t-45 19v0z" />
    <glyph glyph-name="uniE60D" unicode="&#xe60d;" 
d="M298 387l60 -60q30 30 69.5 47t84.5 17t84.5 -17t69.5 -47l60 60q-41 42 -96 65.5t-118 23.5t-118 -23.5t-96 -65.5v0zM512 671q-52 0 -100.5 -10t-93 -29t-84.5 -46t-74 -61l61 -60q28 28 61 50t70 38t77 24.5t83 8.5t83 -8.5t77 -24.5t70 -38t61 -50l61 60
q-34 34 -74 61t-84.5 46t-93 29t-100.5 10v0zM512 299q-26 0 -45 -19t-19 -45q0 -27 19 -45.5t45 -18.5t45 18.5t19 45.5q0 26 -19 45t-45 19v0z" />
    <glyph glyph-name="uniE60E" unicode="&#xe60e;" 
d="M725 811h-42v-214h42v214v0zM640 725h-85v43h85v43h-128v-128h85v-43h-85v-43h128v128v0zM768 811v-214h43v86h85v128h-128v0zM853 725h-42v43h42v-43v0zM853 277q-40 0 -78 6.5t-74 18.5q-11 3 -22.5 0.5t-20.5 -11.5l-94 -94q-45 23 -86 53t-77 65.5t-65.5 76.5
t-52.5 86l94 94q8 9 11 20.5t-1 22.5q-12 36 -18 74.5t-6 78.5q0 18 -12.5 30.5t-30.5 12.5h-149q-18 0 -30.5 -12.5t-12.5 -30.5q0 -150 57 -282t155.5 -230.5t230.5 -155.5t282 -57q18 0 30.5 12.5t12.5 29.5v150q0 17 -12.5 29.5t-30.5 12.5v0z" />
    <glyph glyph-name="uniE60F" unicode="&#xe60f;" 
d="M512 128q-35 0 -60 -25t-25 -60q0 -36 25 -61t60 -25t60 25t25 61q0 35 -25 60t-60 25v0zM256 896q-35 0 -60 -25t-25 -60q0 -36 25 -61t60 -25t60 25t25 61q0 35 -25 60t-60 25v0zM256 640q-35 0 -60 -25t-25 -60q0 -36 25 -61t60 -25t60 25t25 61q0 35 -25 60t-60 25v0
zM256 384q-35 0 -60 -25t-25 -60q0 -36 25 -61t60 -25t60 25t25 61q0 35 -25 60t-60 25v0zM768 725q35 0 60 25t25 61q0 35 -25 60t-60 25t-60 -25t-25 -60q0 -36 25 -61t60 -25v0zM512 384q-35 0 -60 -25t-25 -60q0 -36 25 -61t60 -25t60 25t25 61q0 35 -25 60t-60 25v0z
M768 384q-35 0 -60 -25t-25 -60q0 -36 25 -61t60 -25t60 25t25 61q0 35 -25 60t-60 25v0zM768 640q-35 0 -60 -25t-25 -60q0 -36 25 -61t60 -25t60 25t25 61q0 35 -25 60t-60 25v0zM512 640q-35 0 -60 -25t-25 -60q0 -36 25 -61t60 -25t60 25t25 61q0 35 -25 60t-60 25v0z
M512 896q-35 0 -60 -25t-25 -60q0 -36 25 -61t60 -25t60 25t25 61q0 35 -25 60t-60 25v0z" />
    <glyph glyph-name="uniE610" unicode="&#xe610;" 
d="M939 811h-854q-35 0 -60 -25t-25 -61v-597q0 -35 25 -60t60 -25h854q35 0 60 25t25 60v597q0 36 -25 61t-60 25v0zM341 683q53 0 90.5 -37.5t37.5 -90.5t-37.5 -90.5t-90.5 -37.5t-90.5 37.5t-37.5 90.5t37.5 90.5t90.5 37.5v0zM597 171h-512v42q0 32 28 57t68 41.5
t84 25.5t76 9t76 -9t84 -25.5t68 -41.5t28 -57v-42v0zM762 341h70l64 -85l-85 -85q-42 31 -72 74.5t-45 95.5q-5 21 -8 42t-3 44q0 22 3 43.5t9 41.5q14 52 44 95.5t72 74.5l85 -85l-64 -85h-70q-7 -20 -11 -41.5t-4 -43.5q0 -23 3.5 -44.5t11.5 -41.5v0z" />
    <glyph glyph-name="uniE611" unicode="&#xe611;" 
d="M896 597v43l-128 -85l-128 85v-43l128 -85l128 85v0zM939 811h-854q-35 0 -60 -25t-25 -61v-597q0 -35 25 -60t60 -25h854q35 0 60 25t25 60v597q0 36 -25 61t-60 25v0zM341 683q53 0 90.5 -37.5t37.5 -90.5t-37.5 -90.5t-90.5 -37.5t-90.5 37.5t-37.5 90.5t37.5 90.5
t90.5 37.5v0zM597 171h-512v42q0 32 28 57t68 41.5t84 25.5t76 9t76 -9t84 -25.5t68 -41.5t28 -57v-42v0zM939 427h-342v256h342v-256v0z" />
    <glyph glyph-name="uniE612" unicode="&#xe612;" 
d="M1011 227q-48 47 -105 84t-120.5 62.5t-132 39.5t-141.5 14t-141.5 -14t-132 -39.5t-120.5 -62.5t-105 -84q-6 -5 -9.5 -13t-3.5 -17t3.5 -16.5t9.5 -13.5l105 -106q6 -5 13.5 -8.5t16.5 -3.5t16.5 3t13.5 9q26 24 54.5 43.5t59.5 35.5q10 5 17 15.5t7 22.5v133
q46 15 95.5 22.5t100.5 7.5t100.5 -7.5t95.5 -22.5v-133q0 -13 7 -23t17 -15q31 -16 60 -36t54 -43q6 -6 13.5 -9t16.5 -3t16.5 3t13.5 9l106 106q5 6 8.5 13.5t3.5 16.5t-3.5 17t-9.5 13v0zM903 672l-61 60l-151 -152l60 -60l23 23.5t51 52t52 52t26 24.5v0zM555 853h-86
v-213h86v213v0zM273 520l60 60l-151 152l-61 -60q2 -1 26 -24.5t52 -52t51 -52l23 -23.5v0z" />
    <glyph glyph-name="uniE613" unicode="&#xe613;" 
d="M789 683q-48 0 -91 -18.5t-74.5 -50.5t-50 -74.5t-18.5 -91.5q0 -43 14 -81t39 -68h-192q25 30 39 68t14 81q0 49 -18.5 91.5t-50 74.5t-74.5 50.5t-92 18.5q-48 0 -91 -18.5t-74.5 -50.5t-50 -74.5t-18.5 -91.5t18.5 -91.5t50.5 -74.5t74.5 -50.5t91.5 -18.5h554
q49 0 91.5 18.5t74.5 50.5t50.5 74.5t18.5 91.5t-18.5 91.5t-50.5 74.5t-74.5 50.5t-91.5 18.5v0zM235 299q-62 0 -106 43.5t-44 105.5t44 105.5t106 43.5t105.5 -43.5t43.5 -105.5t-43.5 -105.5t-105.5 -43.5v0zM789 299q-62 0 -105.5 43.5t-43.5 105.5t43.5 105.5
t105.5 43.5t106 -43.5t44 -105.5t-44 -105.5t-106 -43.5v0z" />
    <glyph glyph-name="uniE614" unicode="&#xe614;" 
d="M938 597q0 23 -11 42.5t-29 30.5l-386 226l-386 -226q-18 -11 -29.5 -30.5t-11.5 -42.5v-426q0 -36 25 -61t61 -25h682q36 0 61 25t25 61l-1 426v0zM512 384l-352 220l352 207l352 -207l-352 -220v0z" />
    <glyph glyph-name="uniE615" unicode="&#xe615;" 
d="M853 768h-682q-36 0 -60.5 -25t-24.5 -60l-1 -512q0 -36 25 -61t61 -25h682q36 0 61 25t25 61v512q0 35 -25 60t-61 25v0zM853 597l-341 -213l-341 213v86l341 -214l341 214v-86v0z" />
    <glyph glyph-name="uniE616" unicode="&#xe616;" 
d="M299 171h85v512h-85v-512v0zM469 0h86v853h-86v-853v0zM128 341h85v171h-85v-171v0zM640 171h85v512h-85v-512v0zM811 512v-171h85v171h-85v0z" />
    <glyph glyph-name="uniE617" unicode="&#xe617;" 
d="M555 384v-341h341v341h-341v0zM128 43h341v341h-341v-341v0zM128 811v-342h341v342h-341v0zM711 867l-242 -242l242 -241l241 241l-241 242v0z" />
    <glyph glyph-name="uniE618" unicode="&#xe618;" 
d="M512 896l-384 -171v-256q0 -89 29 -172.5t80.5 -152t121.5 -117.5t153 -70q83 21 153 70t121.5 117.5t80.5 152t29 172.5v256l-384 171v0zM512 427h299q-9 -66 -34.5 -127t-64.5 -111.5t-89.5 -87.5t-110.5 -55v381h-299v243l299 133v-376v0z" />
    <glyph glyph-name="uniE619" unicode="&#xe619;" 
d="M512 811q-80 0 -149.5 -30.5t-122 -82.5t-82.5 -122t-30 -149q0 -80 30 -150t82.5 -122t122 -82t149.5 -30q27 0 45.5 18.5t18.5 45.5q0 12 -4.5 23t-12.5 20q-7 8 -11.5 19t-4.5 23q0 27 19 45.5t45 18.5h76q44 0 83 17t67.5 45.5t45.5 67.5t17 83q0 71 -30 133
t-82.5 108.5t-122 73.5t-149.5 27v0zM277 427q-26 0 -45 18.5t-19 45.5q0 26 19 45t45 19q27 0 45.5 -19t18.5 -45q0 -27 -18.5 -45.5t-45.5 -18.5v0zM405 597q-26 0 -45 19t-19 45q0 27 19 45.5t45 18.5q27 0 45.5 -18.5t18.5 -45.5q0 -26 -18.5 -45t-45.5 -19v0zM619 597
q-27 0 -45.5 19t-18.5 45q0 27 18.5 45.5t45.5 18.5q26 0 45 -18.5t19 -45.5q0 -26 -19 -45t-45 -19v0zM747 427q-27 0 -45.5 18.5t-18.5 45.5q0 26 18.5 45t45.5 19q26 0 45 -19t19 -45q0 -27 -19 -45.5t-45 -18.5v0z" />
    <glyph glyph-name="uniE61A" unicode="&#xe61a;" 
d="M845 299l51 40l-61 60l-51 -39l61 -61v0zM826 500l70 55l-384 298l-124 -96l336 -336l102 79v0zM140 896l-55 -54l180 -180l-137 -107l70 -54l314 -245l89 70l61 -61l-150 -117l-315 244l-69 -53l384 -299l211 164l161 -161l55 54l-799 799v0z" />
    <glyph glyph-name="uniE61B" unicode="&#xe61b;" 
d="M512 0q80 0 149.5 30t122 82.5t82.5 122t30 149.5q-80 0 -149.5 -30t-122 -82.5t-82.5 -122t-30 -149.5v0zM239 501q0 -44 31.5 -75t75.5 -31q17 0 32 5t28 13l-1 -8q0 -44 31.5 -75t75.5 -31t75.5 31t31.5 75l-1 8q13 -9 28 -13.5t32 -4.5q44 0 75.5 31t31.5 75
q0 32 -17 58t-44 38q27 13 44 38.5t17 57.5q0 44 -31.5 75.5t-75.5 31.5q-17 0 -32 -5t-28 -14l1 8q0 44 -31.5 75.5t-75.5 31.5t-75.5 -31.5t-31.5 -75.5l1 -8q-13 9 -28 14t-32 5q-44 0 -75.5 -31.5t-31.5 -75.5q0 -32 17 -57.5t44 -38.5q-27 -12 -44 -38t-17 -58v0z
M512 704q44 0 75.5 -31.5t31.5 -75.5t-31.5 -75t-75.5 -31t-75.5 31t-31.5 75t31.5 75.5t75.5 31.5v0zM128 384q0 -80 30 -149.5t82.5 -122t122 -82.5t149.5 -30q0 80 -30 149.5t-82.5 122t-122 82.5t-149.5 30v0z" />
    <glyph glyph-name="uniE61C" unicode="&#xe61c;" 
d="M844 630v1l-159 158l-45 -45l90 -90q-30 -11 -49.5 -38t-19.5 -61q0 -44 31.5 -75.5t75.5 -31.5q11 0 22 2.5t21 6.5v-308q0 -17 -12.5 -29.5t-30.5 -12.5t-30.5 12.5t-12.5 29.5v192q0 36 -25 61t-60 25h-43v298q0 36 -25 61t-60 25h-256q-35 0 -60 -25t-25 -61v-682
h426v320h64v-214q0 -44 31.5 -75t75.5 -31t75.5 31t31.5 75v406q0 22 -8.5 41.5t-22.5 33.5v0zM512 512h-256v213h256v-213v0zM768 512q-18 0 -30.5 12.5t-12.5 30.5q0 17 12.5 29.5t30.5 12.5t30.5 -12.5t12.5 -29.5q0 -18 -12.5 -30.5t-30.5 -12.5v0z" />
    <glyph glyph-name="uniE61D" unicode="&#xe61d;" 
d="M391 221q50 -50 121 -50t121 50q49 50 49 120.5t-49 120.5l-242 -241v0zM768 853h-512q-35 0 -60 -25t-25 -60v-683q0 -35 25 -60t60 -25h512q35 0 60 25t25 60v683q0 35 -25 60t-60 25v0zM427 768q17 0 29.5 -12.5t12.5 -30.5q0 -17 -12.5 -29.5t-29.5 -12.5
q-18 0 -30.5 12.5t-12.5 29.5q0 18 12.5 30.5t30.5 12.5v0zM299 768q17 0 29.5 -12.5t12.5 -30.5q0 -17 -12.5 -29.5t-29.5 -12.5q-18 0 -30.5 12.5t-12.5 29.5q0 18 12.5 30.5t30.5 12.5v0zM512 85q-53 0 -99.5 20.5t-81.5 55t-55 81t-20 99.5t20 100t55 81.5t81.5 54.5
t99.5 20t99.5 -20t81.5 -54.5t55 -81.5t20 -100t-20 -99.5t-55 -81t-81.5 -55t-99.5 -20.5v0z" />
    <glyph glyph-name="uniE61E" unicode="&#xe61e;" 
d="M512 597q-71 0 -121 -50t-50 -120q0 -71 50 -121t121 -50t121 50t50 121q0 70 -50 120t-121 50v0zM893 469q-7 67 -36 125.5t-74 103.5t-103.5 74t-124.5 36v88h-86v-88q-66 -7 -124.5 -36t-103.5 -74t-74 -103.5t-36 -125.5h-88v-85h88q7 -67 36 -125.5t74 -103.5
t103.5 -73.5t124.5 -36.5v-88h86v88q66 8 124.5 36.5t103.5 73.5t74 103.5t36 125.5h88v85h-88v0zM512 128q-62 0 -116.5 23.5t-95 64t-64 95t-23.5 116.5t23.5 116t64 94.5t95 64t116.5 23.5t116.5 -23.5t95 -64t64 -94.5t23.5 -116t-23.5 -116.5t-64 -95t-95 -64
t-116.5 -23.5v0z" />
    <glyph glyph-name="uniE61F" unicode="&#xe61f;" 
d="M213 376v-170l299 -163l299 163v170l-299 -163l-299 163v0zM512 811l-469 -256l469 -256l384 209v-295h85v342l-469 256v0z" />
    <glyph glyph-name="uniE620" unicode="&#xe620;" 
d="M875 811q-2 0 -3.5 -0.5t-3.5 -0.5l-228 -89l-256 90l-240 -81q-7 -3 -11.5 -8.5t-4.5 -12.5v-645q0 -9 6.5 -15t14.5 -6h3.5t3.5 1l228 88l256 -89l241 81q6 2 10.5 7.5t4.5 12.5v645q0 9 -6.5 15.5t-14.5 6.5v0zM640 128l-256 90v507l256 -89v-508v0z" />
    <glyph glyph-name="uniE621" unicode="&#xe621;" 
d="M853 512h-128v49q56 14 92 59.5t36 104.5h-128v43q0 18 -12.5 30.5t-29.5 12.5h-342q-17 0 -29.5 -12.5t-12.5 -30.5v-43h-128q0 -59 36.5 -104.5t91.5 -59.5v-49h-128q0 -60 36.5 -105t91.5 -60v-48h-128q0 -60 36.5 -105.5t91.5 -59.5v-49q0 -17 12.5 -29.5t29.5 -12.5
h342q17 0 29.5 12.5t12.5 29.5v49q56 14 92 59.5t36 105.5h-128v48q56 15 92 60t36 105v0zM512 128q-35 0 -60 25t-25 60q0 36 25 61t60 25t60 -25t25 -61q0 -35 -25 -60t-60 -25v0zM512 341q-35 0 -60 25t-25 61q0 35 25 60t60 25t60 -25t25 -60q0 -36 -25 -61t-60 -25v0z
M512 555q-35 0 -60 25t-25 60t25 60t60 25t60 -25t25 -60t-25 -60t-60 -25v0z" />
    <glyph glyph-name="uniE622" unicode="&#xe622;" 
d="M427 668v89q-26 -7 -50 -17t-45 -24l62 -63l16 8t17 7v0zM122 708l101 -101q-25 -39 -38.5 -84.5t-13.5 -95.5q0 -71 27 -133t73 -108l-100 -101h256v256l-96 -95q-35 35 -55 81.5t-20 99.5q0 32 7.5 61.5t21.5 56.5l345 -345l-16 -8t-16 -7v-89q25 7 49 17.5t46 23.5
l100 -100l55 54l-672 671l-54 -54v0zM853 768h-256v-256l96 95q35 -34 55 -80.5t20 -99.5q0 -32 -7.5 -62t-21.5 -57l62 -62q25 39 38.5 85t13.5 96q0 70 -27 132t-73 109l100 100v0z" />
    <glyph glyph-name="uniE623" unicode="&#xe623;" 
d="M128 427q0 -71 27 -133t73 -108l-100 -101h256v256l-95 -95q-35 35 -55.5 81.5t-20.5 99.5q0 41 13 79t35.5 69.5t54 55.5t68.5 37v89q-55 -14 -102 -45t-81 -74.5t-53.5 -97.5t-19.5 -113v0zM469 213h86v86h-86v-86v0zM896 768h-256v-256l95 95q35 -34 55.5 -80.5
t20.5 -99.5q0 -42 -13 -80t-35.5 -69.5t-54 -55t-68.5 -36.5v-89q55 14 102 45t81 74.5t53.5 97t19.5 113.5q0 70 -27 132t-73 109l100 100v0zM469 384h86v256h-86v-256v0z" />
    <glyph glyph-name="uniE624" unicode="&#xe624;" 
d="M939 768v21q0 44 -31.5 75.5t-75.5 31.5t-75.5 -31.5t-31.5 -75.5v-21q-17 0 -29.5 -12.5t-12.5 -30.5v-170q0 -18 12.5 -30.5t29.5 -12.5h214q17 0 29.5 12.5t12.5 30.5v170q0 18 -12.5 30.5t-29.5 12.5v0zM905 768h-146v21q0 30 21.5 51.5t51.5 21.5t51.5 -21.5
t21.5 -51.5v-21v0zM807 427q2 -11 3 -21.5t1 -21.5q0 -67 -24 -126t-66 -104q-8 26 -30.5 42.5t-50.5 16.5h-43v128q0 18 -12.5 30.5t-29.5 12.5h-256v85h85q18 0 30.5 12.5t12.5 30.5v85h85q35 0 60 25t25 61v108q-30 10 -62 15t-66 5q-88 0 -166 -33.5t-135.5 -91.5
t-91 -136t-33.5 -166t33.5 -166t91 -136t135.5 -91.5t166 -33.5q89 0 166.5 33.5t135.5 91.5t91.5 136t33.5 166q0 11 -0.5 21.5t-1.5 21.5h-87v0zM427 46q-63 7 -118 36.5t-95 75t-63 103.5t-23 123q0 20 2.5 39t6.5 37l204 -204v-43q0 -35 25 -60t61 -25v-82v0z" />
    <glyph glyph-name="uniE625" unicode="&#xe625;" 
d="M512 853q-88 0 -166 -33.5t-136 -91t-91.5 -135.5t-33.5 -166q0 -89 33.5 -166.5t91.5 -135.5t136 -91.5t166 -33.5t166 33.5t136 91.5t91.5 135.5t33.5 166.5q0 88 -33.5 166t-91.5 135.5t-136 91t-166 33.5v0zM469 88q-63 8 -117.5 37.5t-94.5 74.5t-63 103t-23 124
q0 19 2 38.5t7 37.5l204 -204v-43q0 -35 25 -60t60 -25v-83v0zM764 196q-9 26 -31 43t-50 17h-43v128q0 18 -12.5 30.5t-30.5 12.5h-256v85h86q17 0 29.5 12.5t12.5 30.5v85h86q35 0 60 25t25 60v18q47 -19 86 -50.5t67.5 -72.5t44 -90.5t15.5 -102.5q0 -67 -24 -126
t-65 -105v0z" />
    <glyph glyph-name="uniE626" unicode="&#xe626;" 
d="M755 610l-243 243h-43v-323l-195 195l-61 -60l239 -238l-239 -239l61 -60l195 196v-324h43l243 243l-183 184l183 183v0zM555 690l80 -80l-80 -80v160v0zM635 243l-80 -80v161l80 -81v0z" />
    <glyph glyph-name="uniE627" unicode="&#xe627;" 
d="M299 427l-86 85l-85 -85l85 -86l86 86v0zM755 610l-243 243h-43v-323l-195 195l-61 -60l239 -238l-239 -239l61 -60l195 196v-324h43l243 243l-183 184l183 183v0zM555 690l80 -80l-80 -80v160v0zM635 243l-80 -80v161l80 -81v0zM811 512l-86 -85l86 -86l85 86l-85 85v0z
" />
    <glyph glyph-name="uniE628" unicode="&#xe628;" 
d="M555 686l80 -80l-68 -68l60 -61l129 129l-244 244h-43v-215l86 -85v136v0zM231 764l-60 -60l281 -281l-239 -238l61 -61l195 196v-324h43l183 184l98 -98l60 60l-622 622v0zM555 160v160l80 -80l-80 -80v0z" />
    <glyph glyph-name="uniE629" unicode="&#xe629;" 
d="M608 426l99 -99q9 23 13.5 48t4.5 52q0 26 -4.5 50.5t-13.5 47.5l-99 -99v0zM833 652l-54 -54q20 -38 31 -81.5t11 -90.5q0 -46 -11 -89.5t-31 -81.5l52 -51q30 49 47.5 106.5t17.5 119.5q0 61 -16.5 117.5t-46.5 104.5v0zM670 610l-243 243h-43v-323l-196 195l-60 -60
l238 -238l-238 -239l60 -60l196 196v-324h43l243 243l-183 184l183 183v0zM469 690l81 -80l-81 -80v160v0zM550 243l-81 -80v161l81 -81v0z" />
    <glyph glyph-name="uniE62A" unicode="&#xe62a;" 
d="M463 399h98l-49 156l-49 -156v0zM853 568v200h-200l-141 141l-141 -141h-200v-200l-142 -141l142 -142v-200h200l141 -141l141 141h200v200l142 142l-142 141v0zM610 256l-30 85h-136l-30 -85h-81l136 384h86l136 -384h-81v0z" />
    <glyph glyph-name="uniE62B" unicode="&#xe62b;" 
d="M160 0v768l133 128h406l133 -128v-768h-672v0zM800 256v480h-608v-704h608v224v0zM768 512h-544v192h544v-192v0zM576 640h-160v-32h160v32v0zM768 288h-544v192h544v-192v0zM576 416h-160v-32h160v32v0zM768 64h-544v192h544v-192v0zM576 192h-160v-32h160v32v0z" />
    <glyph glyph-name="uniE62C" unicode="&#xe62c;" 
d="M864 32h-736q-27 0 -45.5 19t-18.5 45v384l28.5 -14t74 -33.5t103 -40t114.5 -33.5v-39q0 -13 9.5 -22.5t22.5 -9.5h160q13 0 22.5 9.5t9.5 22.5v39q57 13 114.5 33.5t103 40t74 33.5l28.5 14v-384q0 -26 -19 -45t-45 -19v0zM544 416q13 0 22.5 -9.5t9.5 -22.5v-32
q0 -13 -9.5 -22.5t-22.5 -9.5h-96q-13 0 -22.5 9.5t-9.5 22.5v32q0 13 9.5 22.5t22.5 9.5h96v0zM608 416q0 13 -9.5 22.5t-22.5 9.5h-160q-13 0 -22.5 -9.5t-9.5 -22.5v-29q-57 14 -114.5 35t-103 41t-74 34.5l-28.5 14.5v128q0 26 18.5 45t45.5 19h192v64q0 26 19 45t45 19
h224q26 0 45 -19t19 -45v-64h192q26 0 45 -19t19 -45v-128l-28.5 -14.5t-74 -34.5t-103 -41t-114.5 -35v29v0zM608 736q0 13 -9.5 22.5t-22.5 9.5h-160q-13 0 -22.5 -9.5t-9.5 -22.5v-22.5v-9.5h224v9.5v22.5v0z" />
    <glyph glyph-name="uniE62D" unicode="&#xe62d;" 
d="M896 512h-22.5h-9.5v32q0 26 -19 45t-45 19h-640q-26 0 -45 -19t-19 -45v-224q0 -26 19 -45t45 -19h640q26 0 45 19t19 45v32h9.5h22.5t22.5 9.5t9.5 22.5v96q0 13 -9.5 22.5t-22.5 9.5v0zM832 320q0 -13 -9.5 -22.5t-22.5 -9.5h-640q-13 0 -22.5 9.5t-9.5 22.5v224
q0 13 9.5 22.5t22.5 9.5h640q13 0 22.5 -9.5t9.5 -22.5v-224v0zM160 320h192v224h-192v-224v0zM384 320h192v224h-192v-224v0zM608 320h192v224h-192v-224v0z" />
    <glyph glyph-name="uniE62E" unicode="&#xe62e;" 
d="M896 512h-22.5h-9.5v32q0 26 -19 45t-45 19h-640q-27 0 -45.5 -19t-18.5 -45v-224q0 -26 18.5 -45t45.5 -19h640q26 0 45 19t19 45v32h9.5h22.5t22.5 9.5t9.5 22.5v96q0 13 -9.5 22.5t-22.5 9.5v0zM832 320q0 -13 -9.5 -22.5t-22.5 -9.5h-640q-13 0 -22.5 9.5t-9.5 22.5
v224q0 13 9.5 22.5t22.5 9.5h640q13 0 22.5 -9.5t9.5 -22.5v-224v0zM160 320h192v224h-192v-224v0zM384 320h192v224h-192v-224v0z" />
    <glyph glyph-name="uniE62F" unicode="&#xe62f;" 
d="M896 512h-22.5h-9.5v32q0 26 -19 45t-45 19h-640q-27 0 -45.5 -19t-18.5 -45v-224q0 -26 18.5 -45t45.5 -19h640q26 0 45 19t19 45v32h9.5h22.5t22.5 9.5t9.5 22.5v96q0 13 -9.5 22.5t-22.5 9.5v0zM832 320q0 -13 -9.5 -22.5t-22.5 -9.5h-640q-13 0 -22.5 9.5t-9.5 22.5
v224q0 13 9.5 22.5t22.5 9.5h640q13 0 22.5 -9.5t9.5 -22.5v-224v0zM160 320h192v224h-192v-224v0z" />
    <glyph glyph-name="uniE630" unicode="&#xe630;" 
d="M896 352h-22.5h-9.5v-32q0 -26 -18.5 -45t-45.5 -19h-640q-27 0 -45.5 19t-18.5 45v224q0 26 18.5 45t45.5 19h640q27 0 45.5 -19t18.5 -45v-32h9.5h22.5t22.5 -9.5t9.5 -22.5v-96q0 -13 -9.5 -22.5t-22.5 -9.5v0zM832 544q0 13 -9.5 22.5t-22.5 9.5h-640
q-13 0 -22.5 -9.5t-9.5 -22.5v-224q0 -13 9.5 -22.5t22.5 -9.5h640q13 0 22.5 9.5t9.5 22.5v224v0z" />
    <glyph glyph-name="uniE631" unicode="&#xe631;" 
d="M608 32h-224q-27 0 -45.5 19t-18.5 45v608q0 27 18.5 45.5t45.5 18.5h34v1.5v14.5t8 30.5t21 17.5h96q13 0 22.5 -17.5t9.5 -30.5v-14.5v-1.5h33q27 0 45.5 -18.5t18.5 -45.5v-608q0 -26 -18.5 -45t-45.5 -19v0zM543 671h-32v31h-30v-31h-32v-32h32v-32h30v32h32v32v0z
M640 545h-288v-449q0 -13 9 -22.5t23 -9.5h224q13 0 22.5 9.5t9.5 22.5v449v0zM447 162h98v-34h-98v34v0z" />
    <glyph glyph-name="uniE632" unicode="&#xe632;" 
d="M889 706q23 -55 12 -116t-56 -107q-50 -49 -118 -57t-126 25l-57 -62l41 -40l24 24q9 9 22 9t22 -9l195 -197q9 -9 9 -22t-9 -22l-89 -89q-9 -9 -22.5 -9t-22.5 9l-194 197q-10 9 -10 22t10 22l22 22l-39 38l-269 -294q-18 -18 -44 -18t-45 18l-22 23q-18 18 -18 44
t18 44l307 257l-204 204h-64l-75 120l60 60l123 -75v-63l206 -207l60 51q-44 60 -39 135t59 129q45 45 105.5 56t116.5 -11l-132 -130l111 -111l132 130v0zM197 130q-9 9 -22 9t-23 -9q-9 -9 -9 -22t9 -22q10 -10 23 -10t22 10q9 9 9 22t-9 22v0z" />
    <glyph glyph-name="uniE633" unicode="&#xe633;" 
d="M512 853q-88 0 -165.5 -33.5t-135.5 -91.5t-92 -135.5t-34 -165.5t34 -166t92 -136t135.5 -91.5t165.5 -33.5t165.5 33.5t135.5 91.5t92 136t34 166t-34 165.5t-92 135.5t-135.5 91.5t-165.5 33.5v0zM171 427q0 70 27 132t73 108.5t108.5 73.5t132.5 27q59 0 112.5 -19.5
t96.5 -53.5l-478 -477q-33 43 -52.5 96t-19.5 113v0zM512 85q-59 0 -112.5 19.5t-96.5 53.5l478 478q33 -43 52.5 -96.5t19.5 -112.5q0 -71 -27 -133t-73 -108.5t-108.5 -73.5t-132.5 -27v0z" />
    <glyph glyph-name="uniE634" unicode="&#xe634;" 
d="M298 259l60 -60q30 30 69.5 47t84.5 17t84.5 -17t69.5 -47l60 60q-41 42 -96 65.5t-118 23.5t-118 -23.5t-96 -65.5v0zM160 397l61 -60q28 28 61 50t70 38t77 24.5t83 8.5t83 -8.5t77 -24.5t70 -38t61 -50l61 60q-34 34 -74 61t-84.5 46t-93 29t-100.5 10t-100.5 -10
t-93 -29t-84.5 -46t-74 -61v0zM512 737q-72 0 -139.5 -14t-129.5 -40t-117.5 -63.5t-102.5 -84.5l60 -61q41 41 90 74t103.5 56t113.5 35.5t122 12.5t122 -12.5t113.5 -35.5t103.5 -56t90 -74l60 61q-47 47 -102.5 84.5t-117.5 63.5t-129.5 40t-139.5 14v0zM512 171
q-26 0 -45 -19t-19 -45q0 -27 19 -45.5t45 -18.5t45 18.5t19 45.5q0 26 -19 45t-45 19v0z" />
    <glyph glyph-name="uniE635" unicode="&#xe635;" 
 />
    <glyph glyph-name="uniE636" unicode="&#xe636;" 
d="M171 256h128v128h-128v-128v0zM213 341h43v-42h-43v42v0zM341 256h128v128h-128v-128v0zM384 341h43v-42h-43v42v0zM341 85h128v128h-128v-128v0zM384 171h43v-43h-43v43v0zM171 85h128v128h-128v-128v0zM213 171h43v-43h-43v43v0zM512 256h128v128h-128v-128v0zM555 341
h42v-42h-42v42v0zM427 512h42v43h-42v-43v0zM341 512h43v43h-43v-43v0zM171 427h682v384h-682v-384v0zM213 768h598v-299h-598v299v0zM853 939h-682q-53 0 -90.5 -37.5t-37.5 -90.5v-768q0 -53 37.5 -90.5t90.5 -37.5h682q53 0 90.5 37.5t37.5 90.5v768q0 53 -37.5 90.5
t-90.5 37.5v0zM896 43q0 -18 -12.5 -30.5t-30.5 -12.5h-682q-18 0 -30.5 12.5t-12.5 30.5v768q0 17 12.5 29.5t30.5 12.5h682q18 0 30.5 -12.5t12.5 -29.5v-768v0zM512 85h128v128h-128v-128v0zM555 171h42v-43h-42v43v0zM683 85h170v299h-170v-299v0zM725 341h86v-213h-86
v213v0zM256 512h43v43h-43v-43v0z" />
    <glyph glyph-name="uniE637" unicode="&#xe637;" 
d="M929 555q-18 0 -25.5 -25t-7.5 -61v-85q0 -35 7.5 -60t25.5 -25q17 0 24.5 25t7.5 60h63v85h-63q0 36 -7.5 61t-24.5 25v0zM768 683q-32 0 -37.5 -25t-5.5 -61v-128h-426v128q0 36 -5.5 61t-37.5 25q-35 0 -60 -25t-25 -61v-341q0 -35 25 -60t60 -25q32 0 37.5 25t5.5 60
v128h426v-128q0 -35 5.5 -60t37.5 -25q35 0 60 25t25 60v341q0 36 -25 61t-60 25v0zM95 555q18 0 25.5 -25t7.5 -61v-85q0 -35 -7.5 -60t-25.5 -25q-17 0 -24.5 25t-7.5 60h-63v85h63q0 36 7.5 61t24.5 25v0z" />
    <glyph glyph-name="uniE638" unicode="&#xe638;" 
d="M640 640v-171h43v-85h-128v341h85l-128 171l-128 -171h85v-341h-128v88q23 12 37.5 33.5t14.5 49.5q0 39 -27.5 66.5t-66.5 27.5t-66.5 -27.5t-27.5 -66.5q0 -28 14 -49.5t37 -33.5v-88q0 -35 25 -60t60 -25h128v-130q-22 -12 -36.5 -34t-14.5 -50q0 -39 27.5 -66.5
t66.5 -27.5t66.5 27.5t27.5 66.5q0 28 -14.5 50t-36.5 34v130h128q35 0 60 25t25 60v85h43v171h-171v0z" />
    <glyph glyph-name="uniE639" unicode="&#xe639;" 
d="M503 474q-72 18 -100 39.5t-28 51.5q0 35 30.5 57t85.5 22q57 0 80.5 -24.5t25.5 -64.5h95q-2 55 -36 100.5t-101 61.5v94h-128v-92q-62 -14 -106 -53.5t-44 -101.5q0 -73 56 -113.5t145 -62.5q80 -19 104 -46t24 -57q0 -22 -22 -49t-93 -27q-66 0 -95 26t-32 64h-95
q4 -70 50 -110t108 -54v-92h128v91q62 12 105.5 49t43.5 103q0 91 -64 130t-137 58v0z" />
    <glyph glyph-name="uniE63A" unicode="&#xe63a;" 
d="M683 384h-128v427h-86v-427h-128l171 -171l171 171v0zM171 128v-85h682v85h-682v0z" />
    <glyph glyph-name="uniE63B" unicode="&#xe63b;" 
d="M341 128h128v-171h86v171h128l-171 171l-171 -171v0zM683 725h-128v171h-86v-171h-128l171 -170l171 170v0zM171 469v-85h682v85h-682v0z" />
    <glyph glyph-name="uniE63C" unicode="&#xe63c;" 
d="M341 469h128v-426h86v426h128l-171 171l-171 -171v0zM171 811v-86h682v86h-682v0z" />
    <glyph glyph-name="uniE63D" unicode="&#xe63d;" 
d="M811 555h-171v256h-256v-256h-171l299 -299l299 299v0zM213 171v-86h598v86h-598v0z" />
    <glyph glyph-name="uniE63E" unicode="&#xe63e;" 
d="M384 256h256v256h171l-299 299l-299 -299h171v-256zM213 171h598v-86h-598v86z" />
    <glyph glyph-name="uniE63F" unicode="&#xe63f;" 
d="M811 640v-171h-562l153 153l-61 61l-256 -256l256 -256l61 60l-153 153h647v256h-85z" />
    <glyph glyph-name="uniE640" unicode="&#xe640;" 
d="M512 299q53 0 90.5 37.5t37.5 90.5v256q0 53 -37.5 90.5t-90.5 37.5t-90.5 -37.5t-37.5 -90.5v-256q0 -53 37.5 -90.5t90.5 -37.5v0zM738 427q0 -48 -18.5 -88t-50 -69t-72.5 -45t-85 -16t-85 16t-72.5 45t-50 69t-18.5 88h-73q0 -55 20.5 -103.5t55.5 -87t81.5 -63.5
t98.5 -33v-140h86v140q52 8 98.5 33t81.5 63.5t55.5 87t20.5 103.5h-73v0z" />
    <glyph glyph-name="uniE641" unicode="&#xe641;" 
d="M171 683h768v85h-768q-36 0 -61 -25t-25 -60v-470h-85v-128h597v128h-426v470v0zM981 597h-256q-17 0 -29.5 -12.5t-12.5 -29.5v-427q0 -18 12.5 -30.5t29.5 -12.5h256q18 0 30.5 12.5t12.5 30.5v427q0 17 -12.5 29.5t-30.5 12.5v0zM939 213h-171v299h171v-299v0z" />
    <glyph glyph-name="uniE642" unicode="&#xe642;" 
d="M939 683v85h-648l85 -85h563v0zM82 868l-54 -54l77 -77q-9 -11 -14.5 -25t-5.5 -29v-470h-85v-128h756l101 -100l54 54l-829 829v0zM171 671l457 -458h-457v458v0zM981 597h-256q-17 0 -29.5 -12.5t-12.5 -29.5v-179l85 -85v221h171v-299h-93l128 -128h7q18 0 30.5 12.5
t12.5 30.5v427q0 17 -12.5 29.5t-30.5 12.5v0z" />
    <glyph glyph-name="uniE643" unicode="&#xe643;" 
d="M512 512q-62 0 -116.5 -23.5t-95 -64t-64 -95t-23.5 -116.5h86q0 44 16.5 83t45.5 68t68 46t83 17t83 -17t68 -46t45.5 -68t16.5 -83h86q0 62 -23.5 116.5t-64 95t-95 64t-116.5 23.5v0zM512 683q-97 0 -182.5 -37t-149 -101t-100.5 -149.5t-37 -182.5h85q0 80 30 150
t82.5 122t122.5 82t149 30t149 -30t122.5 -82t82.5 -122t30 -150h85q0 97 -37 182.5t-100.5 149.5t-149 101t-182.5 37v0z" />
    <glyph glyph-name="uniE644" unicode="&#xe644;" 
d="M512 148l-315 244l-69 -53l384 -299l384 299l-70 54l-314 -245v0zM512 256l384 299l-384 298l-384 -298l70 -54l314 -245v0z" />
    <glyph glyph-name="uniE645" unicode="&#xe645;" 
d="M896 256v85l-341 214v234q0 27 -19 45.5t-45 18.5q-27 0 -45.5 -18.5t-18.5 -45.5v-234l-342 -214v-85l342 107v-235l-86 -64v-64l150 43l149 -43v64l-85 64v235l341 -107v0z" />
    <glyph glyph-name="uniE646" unicode="&#xe646;" 
d="M299 384q53 0 90.5 37.5t37.5 90.5t-37.5 90.5t-90.5 37.5t-90.5 -37.5t-37.5 -90.5t37.5 -90.5t90.5 -37.5v0zM811 640h-342v-299h-341v384h-85v-640h85v128h768v-128h85v384q0 71 -50 121t-120 50v0z" />
    <glyph glyph-name="uniE647" unicode="&#xe647;" 
d="M171 597h170v171h-170v-171v0zM427 85h170v171h-170v-171v0zM171 85h170v171h-170v-171v0zM171 341h170v171h-170v-171v0zM427 341h170v171h-170v-171v0zM683 768v-171h170v171h-170v0zM427 597h170v171h-170v-171v0zM683 341h170v171h-170v-171v0zM683 85h170v171h-170
v-171v0z" />
    <glyph glyph-name="uniE648" unicode="&#xe648;" 
d="M658 622l-61 61l-256 -256l256 -256l61 60l-196 196z" />
    <glyph glyph-name="uniE649" unicode="&#xe649;" 
d="M427 683l-61 -61l196 -195l-196 -196l61 -60l256 256z" />
    <glyph glyph-name="uniE64A" unicode="&#xe64a;" 
d="M512 597l-256 -256l60 -60l196 196l196 -196l60 60z" />
    <glyph glyph-name="uniE64B" unicode="&#xe64b;" 
d="M708 572l-196 -195l-196 195l-60 -60l256 -256l256 256z" />
    <glyph glyph-name="uniE64C" unicode="&#xe64c;" 
d="M128 171h768v85h-768v-85v0zM128 384h768v85h-768v-85v0zM128 683v-86h768v86h-768v0z" />
    <glyph glyph-name="uniE64D" unicode="&#xe64d;" 
d="M256 512q-35 0 -60 -25t-25 -60q0 -36 25 -61t60 -25t60 25t25 61q0 35 -25 60t-60 25v0zM768 512q-35 0 -60 -25t-25 -60q0 -36 25 -61t60 -25t60 25t25 61q0 35 -25 60t-60 25v0zM512 512q-35 0 -60 -25t-25 -60q0 -36 25 -61t60 -25t60 25t25 61q0 35 -25 60t-60 25v0
z" />
    <glyph glyph-name="uniE64E" unicode="&#xe64e;" 
d="M512 597q35 0 60 25t25 61q0 35 -25 60t-60 25t-60 -25t-25 -60q0 -36 25 -61t60 -25v0zM512 512q-35 0 -60 -25t-25 -60q0 -36 25 -61t60 -25t60 25t25 61q0 35 -25 60t-60 25v0zM512 256q-35 0 -60 -25t-25 -60q0 -36 25 -61t60 -25t60 25t25 61q0 35 -25 60t-60 25v0z
" />
    <glyph glyph-name="uniE64F" unicode="&#xe64f;" 
d="M316 146l61 -61l135 136l135 -136l61 61l-196 195l-196 -195v0zM708 708l-61 60l-135 -135l-135 135l-61 -60l196 -196l196 196v0z" />
    <glyph glyph-name="uniE650" unicode="&#xe650;" 
d="M512 690l135 -135l61 60l-196 196l-196 -196l61 -60l135 135v0zM512 163l-135 136l-61 -61l196 -195l196 195l-61 61l-135 -136v0z" />
    <glyph glyph-name="uniE651" unicode="&#xe651;" 
d="M608 426l99 -99q9 23 13.5 48t4.5 52q0 26 -4.5 50.5t-13.5 47.5l-99 -99v0zM833 652l-54 -54q20 -38 31 -81.5t11 -90.5q0 -46 -11 -89.5t-31 -81.5l52 -51q30 49 47.5 106.5t17.5 119.5q0 61 -16.5 117.5t-46.5 104.5v0zM670 610l-243 243h-43v-323l-196 195l-60 -60
l238 -238l-238 -239l60 -60l196 196v-324h43l243 243l-183 184l183 183v0zM469 690l81 -80l-81 -80v160v0zM550 243l-81 -80v161l81 -81v0z" />
    <glyph glyph-name="uniE652" unicode="&#xe652;" 
d="M807 725q-6 19 -22.5 31t-37.5 12h-470q-21 0 -37.5 -12t-22.5 -31l-89 -256v-341q0 -18 12.5 -30.5t30.5 -12.5h42q18 0 30.5 12.5t12.5 30.5v43h512v-43q0 -18 12.5 -30.5t30.5 -12.5h42q18 0 30.5 12.5t12.5 30.5v341l-89 256v0zM277 299q-26 0 -45 18.5t-19 45.5
q0 26 19 45t45 19q27 0 45.5 -19t18.5 -45q0 -27 -18.5 -45.5t-45.5 -18.5v0zM747 299q-27 0 -45.5 18.5t-18.5 45.5q0 26 18.5 45t45.5 19q26 0 45 -19t19 -45q0 -27 -19 -45.5t-45 -18.5v0zM213 512l64 192h470l64 -192h-598v0z" />
    <glyph glyph-name="uniE653" unicode="&#xe653;" 
d="M705 467l-45 45l-208 -208l-91 90l-45 -45l136 -136l253 254v0zM811 811h-43v85h-85v-85h-342v85h-85v-85h-43q-35 0 -60 -25t-25 -61v-597q0 -35 25 -60t60 -25h598q35 0 60 25t25 60v597q0 36 -25 61t-60 25v0zM811 128h-598v469h598v-469v0z" />
    <glyph glyph-name="uniE654" unicode="&#xe654;" 
d="M397 213l104 104l104 -104l46 46l-104 104l104 104l-46 45l-104 -104l-104 104l-45 -45l104 -104l-104 -104l45 -46v0zM811 811h-43v85h-85v-85h-342v85h-85v-85h-43q-35 0 -60 -25t-25 -61v-597q0 -35 25 -60t60 -25h598q35 0 60 25t25 60v597q0 36 -25 61t-60 25v0z
M811 128h-598v469h598v-469v0z" />
    <glyph glyph-name="uniE655" unicode="&#xe655;" 
d="M853 683h-341l-85 85h-256q-36 0 -61 -25t-25 -60v-512q0 -36 25 -61t61 -25h682q36 0 61 25t25 61v426q0 36 -25 61t-61 25v0zM579 171l-152 89l-153 -89l40 173l-135 117l178 15l70 164l69 -164l178 -15l-135 -117l40 -173v0z" />
    <glyph glyph-name="uniE656" unicode="&#xe656;" 
d="M981 0h-85v43h-43v-43h-85v43h-43v-43h-85v43h-43v-43h-85v43h-43v-43h-85v43h-43v-43h-187l224 135l112 325l165 -290l320 533l-73 44l-245 -408l-187 328l-162 -475l-223 -134v881h-85v-1024h1024v128h-43v-43zM981 939h43v-43h-43v43zM853 939h43v-43h-43v43zM725 939
h43v-43h-43v43zM597 939h43v-43h-43v43zM469 939h43v-43h-43v43zM341 939h43v-43h-43v43zM213 939h43v-43h-43v43zM85 939h43v-43h-43v43zM981 811h43v-43h-43v43zM853 811h43v-43h-43v43zM725 811h43v-43h-43v43zM597 811h43v-43h-43v43zM469 811h43v-43h-43v43zM341 811
h43v-43h-43v43zM213 811h43v-43h-43v43zM85 811h43v-43h-43v43zM981 683h43v-43h-43v43zM725 683h43v-43h-43v43zM597 683h43v-43h-43v43zM341 683h43v-43h-43v43zM213 683h43v-43h-43v43zM85 683h43v-43h-43v43zM981 555h43v-43h-43v43zM597 555h43v-43h-43v43zM341 555h43
v-43h-43v43zM213 555h43v-43h-43v43zM85 555h43v-43h-43v43zM981 427h43v-43h-43v43zM853 427h43v-43h-43v43zM213 427h43v-43h-43v43zM85 427h43v-43h-43v43zM981 299h43v-43h-43v43zM853 299h43v-43h-43v43zM469 299h43v-43h-43v43zM213 299h43v-43h-43v43zM85 299h43v-43
h-43v43zM981 171h43v-43h-43v43zM853 171h43v-43h-43v43zM725 171h43v-43h-43v43zM469 171h43v-43h-43v43zM85 171h43v-43h-43v43z" />
    <glyph glyph-name="uniE657" unicode="&#xe657;" 
d="M627 533l98 98v-162h22l121 122l-91 92l91 91l-121 122h-22v-162l-98 98l-30 -30l120 -119l-120 -120l30 -30v0zM768 814l40 -40l-40 -40v80v0zM768 631l40 -40l-40 -40v80v0zM853 277q-40 0 -78 6.5t-74 18.5q-11 3 -22.5 0.5t-20.5 -11.5l-94 -94q-46 23 -86.5 53
t-76.5 65.5t-65.5 76.5t-52.5 86l94 94q8 9 11 20.5t-1 22.5q-12 36 -18 74.5t-6 78.5q0 18 -12.5 30.5t-30.5 12.5h-149q-18 0 -30.5 -12.5t-12.5 -30.5q0 -150 57 -282t155.5 -230.5t230.5 -155.5t282 -57q18 0 30.5 12.5t12.5 29.5v150q0 17 -12.5 29.5t-30.5 12.5v0z
" />
    <glyph glyph-name="uniE658" unicode="&#xe658;" 
d="M768 469l213 214l-213 213v-128h-171v-171h171v-128v0zM853 277q-40 0 -78 6.5t-74 18.5q-11 3 -22.5 0.5t-20.5 -11.5l-94 -94q-46 23 -86.5 53t-76.5 65.5t-65.5 76.5t-52.5 86l94 94q8 9 11 20.5t-1 22.5q-12 37 -18 75t-6 78q0 18 -12.5 30.5t-30.5 12.5h-149
q-18 0 -30.5 -12.5t-12.5 -30.5q0 -150 57 -282t155.5 -230.5t230.5 -155.5t282 -57q18 0 30.5 12.5t12.5 29.5v150q0 17 -12.5 29.5t-30.5 12.5v0z" />
    <glyph glyph-name="uniE659" unicode="&#xe659;" 
d="M853 277q-40 0 -78 6.5t-74 18.5q-11 3 -22.5 0.5t-20.5 -11.5l-94 -94q-46 23 -86.5 53t-76.5 65.5t-65.5 76.5t-52.5 86l94 94q8 9 11 20.5t-1 22.5q-12 36 -18 74.5t-6 78.5q0 18 -12.5 30.5t-30.5 12.5h-149q-18 0 -30.5 -12.5t-12.5 -30.5q0 -150 57 -282
t155.5 -230.5t230.5 -155.5t282 -57q18 0 30.5 12.5t12.5 29.5v150q0 17 -12.5 29.5t-30.5 12.5v0zM811 427h85q0 79 -30 149t-82.5 122t-122 82.5t-149.5 30.5v-86q62 0 116.5 -23.5t95 -64t64 -94.5t23.5 -116v0zM640 427h85q0 44 -16.5 83t-45.5 67.5t-68 45.5t-83 17
v-85q53 0 90.5 -37.5t37.5 -90.5v0z" />
    <glyph glyph-name="uniE65A" unicode="&#xe65a;" 
d="M853 277q-40 0 -78 6.5t-74 18.5q-11 3 -22.5 0.5t-20.5 -11.5l-94 -94q-46 23 -86.5 53t-76.5 65.5t-65.5 76.5t-52.5 86l94 94q8 9 11 20.5t-1 22.5q-12 36 -18 74.5t-6 78.5q0 18 -12.5 30.5t-30.5 12.5h-149q-18 0 -30.5 -12.5t-12.5 -30.5q0 -150 57 -282
t155.5 -230.5t230.5 -155.5t282 -57q18 0 30.5 12.5t12.5 29.5v150q0 17 -12.5 29.5t-30.5 12.5v0zM853 768v21q0 44 -31 75.5t-75 31.5t-75.5 -31.5t-31.5 -75.5v-21q-18 0 -30.5 -12.5t-12.5 -30.5v-170q0 -18 12.5 -30.5t30.5 -12.5h213q18 0 30.5 12.5t12.5 30.5v170
q0 18 -12.5 30.5t-30.5 12.5v0zM819 768h-145v21q0 30 21.5 51.5t51.5 21.5t51 -21.5t21 -51.5v-21v0z" />
    <glyph glyph-name="uniE65B" unicode="&#xe65b;" 
d="M277 704l235 -235l299 299l-43 43l-256 -256l-192 192h149v64h-256v-256h64v149v0zM1011 227q-48 47 -105 84t-120.5 62.5t-132 39.5t-141.5 14t-141.5 -14t-132 -39.5t-120.5 -62.5t-105 -84q-6 -6 -9.5 -13.5t-3.5 -16.5t3.5 -16.5t9.5 -13.5l105 -106q6 -6 14 -9
t16 -3q9 0 17 3t13 9q26 23 54.5 43t59.5 36q11 5 17.5 15.5t6.5 22.5v133q46 15 95.5 22.5t100.5 7.5t100.5 -7.5t95.5 -22.5v-133q0 -13 7 -23t17 -15q31 -16 60 -36t54 -43q6 -6 13.5 -9.5t16.5 -3.5t16.5 3.5t13.5 9.5l106 106q5 6 8.5 13.5t3.5 16.5t-3.5 16.5
t-9.5 13.5v0z" />
    <glyph glyph-name="uniE65C" unicode="&#xe65c;" 
d="M725 811h-85v-299h85v299v0zM853 277q-40 0 -78 6.5t-74 18.5q-11 3 -22.5 0.5t-20.5 -11.5l-94 -94q-46 23 -86.5 53t-76.5 65.5t-65.5 76.5t-52.5 86l94 94q8 9 11 20.5t-1 22.5q-12 36 -18 74.5t-6 78.5q0 18 -12.5 30.5t-30.5 12.5h-149q-18 0 -30.5 -12.5
t-12.5 -30.5q0 -150 57 -282t155.5 -230.5t230.5 -155.5t282 -57q18 0 30.5 12.5t12.5 29.5v150q0 17 -12.5 29.5t-30.5 12.5v0zM811 811v-299h85v299h-85v0z" />
    <glyph glyph-name="uniE65D" unicode="&#xe65d;" 
d="M768 853h-341l-255 -256l-1 -512q0 -35 25 -60t60 -25h512q35 0 60 25t25 60v683q0 35 -25 60t-60 25v0zM512 597h-85v171h85v-171v0zM640 597h-85v171h85v-171v0zM768 597h-85v171h85v-171v0z" />
    <glyph glyph-name="uniE65E" unicode="&#xe65e;" horiz-adv-x="1054" 
d="M736 817q-34 0 -93 -32t-115 -32t-117 32t-91 32q-103 0 -180 -115.5t-113 -253.5t-23 -253.5t90 -115.5q65 0 107.5 33.5t85.5 74t97.5 74.5t143.5 34q72 0 130.5 -33.5t109.5 -73.5t97.5 -73.5t94.5 -33.5q77 0 90.5 115t-22 253t-112.5 253t-180 115v0zM304 401
q-59 0 -101.5 42.5t-42.5 101.5q0 60 42.5 102t101.5 42q60 0 102 -42t42 -102q0 -59 -42 -101.5t-102 -42.5v0zM686 481q-13 0 -22.5 9.5t-9.5 22.5q0 14 9.5 23t22.5 9q14 0 23 -9t9 -23q0 -13 -9 -22.5t-23 -9.5v0zM784 385q-13 0 -22.5 9.5t-9.5 22.5q0 14 9.5 23
t22.5 9q14 0 23 -9t9 -23q0 -13 -9 -22.5t-23 -9.5v0zM784 577q-13 0 -22.5 9.5t-9.5 22.5q0 14 9.5 23t22.5 9q14 0 23 -9t9 -23q0 -13 -9 -22.5t-23 -9.5v0zM880 481q-13 0 -22.5 9.5t-9.5 22.5q0 14 9.5 23t22.5 9q14 0 23 -9t9 -23q0 -13 -9 -22.5t-23 -9.5v0zM304 625
q-33 0 -56.5 -23.5t-23.5 -56.5t23.5 -56.5t56.5 -23.5q34 0 57 23.5t23 56.5t-23 56.5t-57 23.5v0z" />
    <glyph glyph-name="uniE65F" unicode="&#xe65f;" horiz-adv-x="1064" 
d="M0 292l356 -356l11.5 33.5t16.5 82.5t-6 105t-56 101q-45 44 -100.5 55t-105 6.5t-83 -16l-33.5 -11.5v0zM956 264l-181 -181l23 -23l181 181l-23 23v0zM1046 219l-203 203q-19 19 -45.5 19t-45.5 -19l-17 -17l-50 50l89 89q19 19 17.5 47t-20.5 46l-110 111
q-19 18 -45.5 18t-45.5 -18l-81 -79l-43 43l3 3q19 19 19 45.5t-19 44.5l-203 204q-19 19 -45.5 19t-45.5 -19l-136 -136q-19 -18 -19 -44.5t19 -45.5l204 -204q19 -19 45.5 -19t44.5 19l45 45l44 -45l-82 -82q-19 -18 -17 -91l2 -73l55 -55l72.5 -1.5t91.5 17.5l71 70
l50 -49l-28 -28q-19 -19 -19 -45.5t19 -45.5l203 -204q19 -18 45.5 -18t45.5 18l135 136q19 19 19 45.5t-19 45.5v0zM42 851l136 136q9 9 22 9t23 -9l-181 -181q-10 9 -10 22t10 23v0zM64 783l182 181l22 -23l-181 -181l-23 23v0zM110 738l181 181l22 -23l-181 -181l-22 23
v0zM155 692l181 181l23 -22l-181 -181l-23 22v0zM200 647l181 181l23 -22l-181 -182l-23 23v0zM291 602q-10 -10 -23 -10t-22 10l181 181q9 -10 9 -23t-9 -22l-136 -136v0zM381 432l-17 17l234 234l17 -17l-234 -234v0zM639 264l136 136q9 9 22.5 9t22.5 -9l-181 -181
q-9 9 -9 22.5t9 22.5v0zM1024 151l-136 -136q-9 -9 -22.5 -9t-22.5 9l-136 136l181 181l-23 23l-181 -181l-22 22l181 181l181 -181q9 -9 9 -22.5t-9 -22.5v0zM1001 219l-181 -181l23 -23l181 181l-23 23v0zM911 309l-181 -181l22 -22l181 181l-22 22v0z" />
    <glyph glyph-name="uniE660" unicode="&#xe660;" 
d="M128 -32v512h96v160q0 53 20 99.5t55 81.5t81.5 55t99.5 20h32q53 0 99.5 -20t81.5 -55t55 -81.5t20 -99.5v-160h96v-512h-736v0zM472 231l-24 -167h96l-24 167q18 7 29 23t11 36q0 27 -19 45.5t-45 18.5q-27 0 -45.5 -18.5t-18.5 -45.5q0 -20 11 -36t29 -23v0zM672 624
q0 73 -51.5 124.5t-124.5 51.5t-124.5 -51.5t-51.5 -124.5v-144h352v144v0z" />
    <glyph glyph-name="uniE661" unicode="&#xe661;" 
d="M928 480v144q0 73 -51.5 124.5t-124.5 51.5t-124.5 -51.5t-51.5 -124.5v-146h160v-510h-736v512h480v160q0 53 20 99.5t55 81.5t81.5 55t99.5 20h32q53 0 99.5 -20t81.5 -55t55 -81.5t20 -99.5v-160h-96v0zM368 354q-27 0 -45.5 -19t-18.5 -45q0 -20 11 -36t29 -23
l-24 -167h96l-24 167q18 7 29 23t11 36q0 27 -19 45.5t-45 18.5v0z" />
    <glyph glyph-name="uniE662" unicode="&#xe662;" 
d="M607 390l-249 144q-23 14 -48.5 7t-39.5 -30q-13 -23 -6 -48.5t30 -38.5l249 -144q23 -14 48.5 -7t39.5 30q13 23 6 48.5t-30 38.5v0zM401 546l194 -112l66 184l-134 77l-126 -149v0zM258 74l186 226l-83 48l-103 -274v0zM742 719l-167 96q-17 10 -36 5t-29 -22
q-10 -18 -5 -37t22 -29l167 -96q17 -10 36 -5t29 23q10 17 5 36t-22 29v0z" />
    <glyph glyph-name="uniE663" unicode="&#xe663;" 
d="M994 448q0 -51 -27 -91t-71 -58v-74q0 -13 -9 -22.5t-22 -9.5h-738q-13 0 -22 9.5t-9 22.5v74q-44 18 -71 58t-27 91t27 91t71 58v74q0 13 9 22.5t23 9.5h737q13 0 22 -9.5t9 -22.5v-74q44 -18 71 -58t27 -91v0zM382 448h-127v-32h127v32v0zM534 557q-7 7 -16 10.5
t-21 3.5t-21 -3.5t-16 -10.5q-7 -8 -10.5 -19t-3.5 -27q0 -15 3.5 -26.5t10.5 -18.5q7 -8 13 -11.5t18 -3.5t24 3.5t19 11.5q7 7 10 18.5t3 26.5q0 16 -3 27t-10 19v0zM642 576l-163 -256h32l163 256h-32v0zM693 429q-7 8 -16 11.5t-21 3.5t-21 -3.5t-16 -11.5
q-6 -7 -9.5 -18.5t-3.5 -26.5q0 -16 3.5 -27.5t9.5 -18.5q7 -7 16.5 -11t21.5 -4q11 0 20 4t16 11t10.5 18.5t3.5 27.5q0 15 -3.5 26.5t-10.5 18.5v0zM656 348q-4 0 -6.5 1.5t-4.5 4.5q-3 3 -4 10.5t-1 19.5q0 11 1 18.5t4 11.5q2 3 4.5 4t6.5 1q3 0 6 -1t5 -4
q2 -4 3.5 -11.5t1.5 -18.5q0 -12 -1.5 -19.5t-3.5 -10.5t-5 -4.5t-6 -1.5v0zM497 475q-4 0 -6.5 1.5t-4.5 4.5q-3 4 -4 11.5t-1 18.5t1 18.5t4 11.5q2 3 4.5 4.5t6.5 1.5q3 0 5.5 -1.5t4.5 -4.5q3 -4 4 -11.5t1 -18.5t-1 -18.5t-4 -11.5q-2 -3 -4.5 -4.5t-5.5 -1.5v0z" />
    <glyph glyph-name="uniE664" unicode="&#xe664;" 
d="M896 672h-63v94l-129 2l1 -96h-389l3 96l-127 -2v-96l-64 2q-26 0 -45 -19t-19 -45v-448q0 -26 19 -45t45 -19h768q26 0 45 19t19 45v448q0 26 -19 45t-45 19v0zM736 736h64v-128h-64v128v0zM320 518q29 0 49.5 -27t20.5 -65t-20.5 -65t-49.5 -27t-49.5 27t-20.5 65
t20.5 65t49.5 27v0zM224 736h64v-128h-64v128v0zM181 226l6 31.5t19 40.5t40 14l27 5l18 -17t28 -17t28 17l18 17l27 -5t40 -14q15 -10 20 -41l5 -31h-276v0zM832 256h-288v32h288v-32v0zM832 320h-288v32h288v-32v0zM832 384h-288v32h288v-32v0zM832 448h-288v32h288v-32v0
z" />
    <glyph glyph-name="uniE665" unicode="&#xe665;" 
d="M0 160v576h1024v-576h-1024v0zM64 674v-450h896v450h-896v0zM672 448q0 80 -47 136t-113 56h416v-384h-416q66 0 113 56t47 136v0zM800 384q20 0 34 19t14 45t-14 45t-34 19t-34 -19t-14 -45t14 -45t34 -19v0zM580 529l-1.5 -3l-0.5 -1q-1 -1 -2 -1h-2t-2.5 0.5l-4.5 1.5
q-2 2 -5 3.5t-6 3.5q-4 1 -8 2.5t-9 2.5q-4 2 -9 2.5t-11 0.5q-4 0 -8 -0.5t-7 -1.5t-5.5 -2.5t-5.5 -3.5q-2 -2 -3.5 -4t-2.5 -5q-1 -2 -1.5 -5t-0.5 -5q0 -5 1 -8.5t4 -6.5q2 -4 5 -6.5t7 -5.5q4 -2 8.5 -4.5t9.5 -4.5t10 -4.5t11 -4.5q5 -2 10 -5l10 -6t9.5 -6.5
t8.5 -7.5q4 -5 7 -10t5 -10q3 -6 4 -13t1 -14q0 -11 -2 -20t-5 -16q-4 -8 -9.5 -14.5t-11.5 -11.5q-7 -5 -14.5 -9t-15.5 -6q-2 -1 -3 -1h-2v-35h-31v30h-1h-1q-6 0 -12.5 0.5t-11.5 2.5q-6 1 -11 2t-10 3q-4 1 -8 3l-6 3q-3 2 -5.5 3.5t-3.5 2.5q-1 2 -2 3.5t-2 4.5
q0 2 -0.5 5.5t-0.5 8.5v5.5t1 4.5q0 2 0.5 4t0.5 3t1 2t1 2q1 0 2 0.5t2 0.5t3 -1t5 -2q2 -2 5.5 -4t7.5 -4t8.5 -3.5l10.5 -3.5q5 -2 11.5 -2.5t14.5 -0.5q4 0 8.5 0.5t8.5 1.5t7 2.5t6 3.5q2 3 4 5.5t4 5.5q1 3 2 6.5t1 7.5t-1.5 8t-3.5 7q-3 3 -6 5.5t-7 5.5q-4 2 -8 4.5
t-9 4.5t-10 4.5t-10 4.5l-11 5.5t-10 5.5q-4 3 -8.5 6.5t-8.5 8.5q-4 4 -7 9t-5 11q-3 6 -4 12.5t-1 15.5t1.5 17t5.5 15q3 7 7.5 13t10.5 11q6 4 13 7.5t15 6.5q4 1 8 1.5t9 1.5v33h31v-33h2h2q4 -1 8.5 -2t8.5 -2t7.5 -2.5t6.5 -2.5q3 -2 5 -3t3 -2l2 -2t1 -2l0.5 -1
t0.5 -2q1 -2 1 -3v-3v-4v-5v-5.5v-4.5t-0.5 -3.5t-0.5 -2.5v0zM352 448q0 -80 47 -136t113 -56h-416v384h416q-66 0 -113 -56t-47 -136v0zM224 512q-20 0 -34 -19t-14 -45t14 -45t34 -19t34 19t14 45t-14 45t-34 19v0z" />
    <glyph glyph-name="uniE666" unicode="&#xe666;" horiz-adv-x="1216" 
d="M1152 224l2 547l-994 -1v63h1056v-609h-64v0zM1120 127l-64 1l2 546h-994v62h1056v-609v0zM1026 63h-1026v577h1026v-577v0zM962 578h-898v-451h898v451v0zM865 176q0 -5 1 -9t3 -7h-356q66 0 113 56t47 136t-47 136t-113 56h356q-2 -4 -3 -8t-1 -8q0 -20 14.5 -34
t33.5 -14q5 0 9 1l8 2v-263q-4 2 -8 3t-9 1q-19 0 -33.5 -14.5t-14.5 -33.5v0zM801 419q-20 0 -34 -19t-14 -46q0 -26 14 -45t34 -19t34 19t14 45q0 27 -14 46t-34 19v0zM580 467l0.5 -1t0.5 -2t0.5 -2.5t0.5 -3.5v-4v-5v-5.5v-4.5t-0.5 -3.5t-0.5 -2.5l-1.5 -3l-0.5 -1
q-1 -1 -2 -1h-2t-2.5 0.5l-4.5 1.5q-2 2 -5 3.5t-7 2.5q-3 2 -7 3.5t-9 2.5q-4 2 -9.5 2.5t-10.5 0.5q-4 0 -8 -0.5t-7 -1.5t-6 -2.5t-5 -3.5t-3.5 -4t-2.5 -5q-1 -2 -1.5 -5t-0.5 -6q0 -4 1 -7.5t3 -7.5q3 -3 6 -5.5t7 -5.5q4 -2 8.5 -4.5t9.5 -4.5t10 -4.5t10 -4.5
q6 -2 11 -5l10 -6t9.5 -6.5t8.5 -8.5q4 -4 7 -9t5 -11q3 -5 4 -12t1 -15q0 -10 -2 -19t-5 -17q-4 -7 -9.5 -13.5t-11.5 -11.5q-7 -5 -14.5 -9t-16.5 -7h-2t-2 -1v-35h-32v31h-0.5h-0.5q-7 0 -13 0.5t-12 1.5t-11 2.5t-9 2.5q-5 2 -8.5 3.5t-6.5 3.5t-5 3.5t-3 2.5
q-2 1 -2.5 3t-1.5 4q-1 3 -1 6.5v7.5v6.5v4.5t0.5 3.5t1.5 3.5q0 1 0.5 2t1.5 1l1.5 1.5t1.5 0.5q2 0 4 -1t4 -3q3 -1 6.5 -3t7.5 -4t8.5 -4t10.5 -3q5 -2 11.5 -3t13.5 -1q5 0 9.5 0.5t8.5 2.5q3 1 6.5 2.5t6.5 3.5q2 2 4 4.5t4 6.5q1 3 1.5 6.5t0.5 6.5q0 5 -1 8.5t-3 7.5
q-3 3 -6 5.5t-7 5.5q-4 2 -8 4.5t-9 4.5t-10 4.5t-11 4.5q-5 2 -10 5l-10 6t-9 6.5t-8 8.5q-4 4 -7 9t-6 11q-2 5 -3.5 12t-1.5 16t2 17t5 15q4 7 8.5 13t10.5 11q6 4 13 7.5t15 6.5q4 1 8 1.5t8 1.5v33h32v-33h2h2q4 -1 8.5 -2t8.5 -2t7.5 -2.5t6.5 -2.5q3 -2 5 -3t3 -2
l2 -2t1 -2v0zM353 352q0 -80 46.5 -136t113.5 -56h-356q1 3 2 7t1 9q0 19 -14 33.5t-34 14.5q-4 0 -8 -1t-8 -3v263l8 -2t8 -1q20 0 34 14t14 34q0 4 -1 8l-2 8h356q-67 0 -113.5 -56.5t-46.5 -135.5v0zM224 419q-20 0 -34 -19t-14 -46q0 -26 14 -45t34 -19t34 19t14 45
q0 27 -14 46t-34 19v0z" />
    <glyph glyph-name="uniE667" unicode="&#xe667;" 
d="M541 768h292l-1 -295l-100 100l-94 -95q16 -28 24.5 -59.5t8.5 -66.5q0 -53 -20 -99.5t-55 -81.5t-81.5 -55t-99.5 -20t-99.5 20t-81.5 55t-55 81.5t-20 99.5t20 99.5t55 81.5t81.5 55t99.5 20q37 0 70.5 -10t62.5 -27l94 94l-101 103v0zM287 352q0 -53 37.5 -90.5
t90.5 -37.5t90.5 37.5t37.5 90.5t-37.5 90.5t-90.5 37.5t-90.5 -37.5t-37.5 -90.5v0z" />
    <glyph glyph-name="uniE668" unicode="&#xe668;" 
d="M577 361v-105h128v-128h-128v-128h-130v128h-127v128h127v105q-41 11 -76 34.5t-60.5 56t-40 72.5t-14.5 84q0 53 20 100t55 81.5t81.5 54.5t99.5 20t99.5 -20t81.5 -54.5t55 -81.5t20 -100q0 -44 -14.5 -84.5t-39.5 -73t-60 -55.5t-77 -34v0zM512 736q-53 0 -90.5 -37.5
t-37.5 -90.5q0 -52 37.5 -89.5t90.5 -37.5t90.5 37.5t37.5 89.5q0 53 -37.5 90.5t-90.5 37.5v0z" />
    <glyph glyph-name="uniE669" unicode="&#xe669;" 
d="M0 64v736h992v-736h-992v0zM192 384h-32v384h-128v-672h160v288v0zM384 384h-32v384h-96v-384h-32v-288h160v288v0zM576 384h-32v384h-96v-384h-32v-288h160v288v0zM640 768v-384h-32v-288h160v288h-32v384h-96v0zM960 768h-128v-384h-32v-288h160v672v0z" />
    <glyph glyph-name="uniE66A" unicode="&#xe66a;" 
d="M928 349l-36 -247l-74 71q-22 -18 -53 -38.5t-71.5 -38t-90 -28.5t-108.5 -11t-109.5 11t-91 27.5t-72 36t-53.5 37.5l-67 -65l-38 245l253 -37l-70 -68q37 -27 90.5 -53.5t111.5 -26.5l-1 404q-41 14 -68 50t-27 81q0 58 42 99t102 41t102 -41t42 -99q0 -46 -27.5 -82
t-70.5 -50q0 -30 0.5 -96.5t0.5 -135t-0.5 -120.5l-0.5 -52q55 0 107.5 28.5t89.5 57.5l-65 63l253 37v0zM571 701q0 30 -21.5 51.5t-52.5 21.5t-52.5 -21.5t-21.5 -51.5t21.5 -51t52.5 -21t52.5 21t21.5 51v0z" />
    <glyph glyph-name="uniE66B" unicode="&#xe66b;" 
d="M892 660q10 10 25 10t25 -10t10 -24.5t-10 -25.5l-405 -400q-10 -11 -25 -11t-25 11l-405 400q-10 11 -10 25.5t10 24.5t25 10t25 -10l380 -366l380 366v0z" />
    <glyph glyph-name="uniE66C" unicode="&#xe66c;" 
d="M355 384q11 55 55 91.5t102 36.5t102 -36.5t55 -91.5h64q-6 41 -25.5 76t-49 60.5t-67 40.5t-79.5 15t-79.5 -15t-67 -40.5t-49 -60.5t-25.5 -76h64v0zM512 640q13 0 22.5 9.5t9.5 22.5v64q0 13 -9.5 22.5t-22.5 9.5t-22.5 -9.5t-9.5 -22.5v-64q0 -13 9.5 -22.5
t22.5 -9.5v0zM806 646q-9 10 -22.5 10t-22.5 -10l-45 -45q-10 -9 -10 -22.5t10 -22.5q9 -10 22.5 -10t22.5 10l45 45q10 9 10 22.5t-10 22.5v0zM308 601l-45 45q-9 10 -22.5 10t-22.5 -10q-10 -9 -10 -22.5t10 -22.5l45 -45q9 -10 22.5 -10t22.5 10q10 9 10 22.5t-10 22.5v0
zM704 320h-384q-13 0 -22.5 -9.5t-9.5 -22.5t9.5 -22.5t22.5 -9.5h384q13 0 22.5 9.5t9.5 22.5t-9.5 22.5t-22.5 9.5v0zM640 192h-256q-13 0 -22.5 -9.5t-9.5 -22.5t9.5 -22.5t22.5 -9.5h256q13 0 22.5 9.5t9.5 22.5t-9.5 22.5t-22.5 9.5v0z" />
    <glyph glyph-name="uniE66D" unicode="&#xe66d;" 
d="M512 672q-46 0 -87 -17.5t-71.5 -48t-48 -71.5t-17.5 -87t17.5 -87t48 -71.5t71.5 -48t87 -17.5t87 17.5t71.5 48t48 71.5t17.5 87t-17.5 87t-48 71.5t-71.5 48t-87 17.5v0zM512 288q-66 0 -113 47t-47 113t47 113t113 47t113 -47t47 -113t-47 -113t-113 -47v0zM512 736
q13 0 22.5 9.5t9.5 22.5v64q0 13 -9.5 22.5t-22.5 9.5t-22.5 -9.5t-9.5 -22.5v-64q0 -13 9.5 -22.5t22.5 -9.5v0zM512 160q-13 0 -22.5 -9.5t-9.5 -22.5v-64q0 -13 9.5 -22.5t22.5 -9.5t22.5 9.5t9.5 22.5v64q0 13 -9.5 22.5t-22.5 9.5v0zM761 652l45 45q10 9 10 22.5
t-10 22.5q-9 10 -22.5 10t-22.5 -10l-45 -45q-10 -9 -10 -22.5t10 -22.5q9 -10 22.5 -10t22.5 10v0zM263 244l-45 -45q-10 -9 -10 -22.5t10 -22.5q9 -10 22.5 -10t22.5 10l45 45q10 9 10 22.5t-10 22.5q-9 10 -22.5 10t-22.5 -10v0zM224 448q0 13 -9.5 22.5t-22.5 9.5h-64
q-13 0 -22.5 -9.5t-9.5 -22.5t9.5 -22.5t22.5 -9.5h64q13 0 22.5 9.5t9.5 22.5v0zM896 480h-64q-13 0 -22.5 -9.5t-9.5 -22.5t9.5 -22.5t22.5 -9.5h64q13 0 22.5 9.5t9.5 22.5t-9.5 22.5t-22.5 9.5v0zM263 652q9 -10 22.5 -10t22.5 10q10 9 10 22.5t-10 22.5l-45 45
q-9 10 -22.5 10t-22.5 -10q-10 -9 -10 -22.5t10 -22.5l45 -45v0zM761 244q-9 10 -22.5 10t-22.5 -10q-10 -9 -10 -22t10 -23l45 -45q9 -9 22.5 -9t22.5 9q10 9 10 22.5t-10 22.5l-45 45v0z" />
    <glyph glyph-name="uniE66E" unicode="&#xe66e;" 
d="M700 274q-38 -38 -85 -56.5t-96 -18.5t-96.5 18.5t-84.5 56.5q-38 37 -56.5 84.5t-18.5 96.5t18.5 96t56.5 85q20 20 44 35t51 24q9 3 18 1t16 -8q6 -7 8 -16t-1 -17q-19 -54 -7 -107.5t52 -92.5q39 -40 92.5 -52t107.5 7q8 3 17 1t16 -8q6 -7 8 -16t-1 -18
q-9 -27 -24 -51t-35 -44v0zM383 590q-56 -56 -56 -135.5t56 -135.5q30 -30 68.5 -44t78 -11.5t76.5 20.5t63 51q-54 -3 -105 16t-91 58q-39 40 -58 91t-16 105q-4 -3 -8 -7l-8 -8v0z" />
    <glyph glyph-name="uniE66F" unicode="&#xe66f;" 
d="M542 706q13 0 22.5 9.5t9.5 22.5v64q0 13 -9.5 22.5t-22.5 9.5t-22.5 -9.5t-9.5 -22.5v-64q0 -13 9.5 -22.5t22.5 -9.5v0zM542 130q-13 0 -22.5 -9.5t-9.5 -22.5v-64q0 -13 9.5 -22.5t22.5 -9.5t22.5 9.5t9.5 22.5v64q0 13 -9.5 22.5t-22.5 9.5v0zM293 214l-45 -45
q-10 -9 -10 -22.5t10 -22.5q9 -10 22.5 -10t22.5 10l45 45q10 9 10 22.5t-10 22.5q-9 10 -22.5 10t-22.5 -10v0zM254 418q0 13 -9.5 22.5t-22.5 9.5h-64q-13 0 -22.5 -9.5t-9.5 -22.5t9.5 -22.5t22.5 -9.5h64q13 0 22.5 9.5t9.5 22.5v0zM293 622q9 -10 22.5 -10t22.5 10
q10 9 10 22.5t-10 22.5l-45 45q-9 10 -22.5 10t-22.5 -10q-10 -9 -10 -22.5t10 -22.5l45 -45v0zM670 642q-17 0 -33 -3t-31 -7q-15 4 -31 7t-33 3q-46 0 -87 -17.5t-71.5 -48t-48 -71.5t-17.5 -87t17.5 -87t48 -71.5t71.5 -48t87 -17.5q17 0 33 3t31 7q15 -4 31 -7t33 -3
q46 0 87 17.5t71.5 48t48 71.5t17.5 87t-17.5 87t-48 71.5t-71.5 48t-87 17.5v0zM510 261q-55 11 -91.5 55t-36.5 102t36.5 102t91.5 55q-29 -31 -46.5 -71t-17.5 -86t17.5 -86t46.5 -71v0z" />
    <glyph glyph-name="uniE670" unicode="&#xe670;" 
d="M990 514h-163q-6 54 -30.5 100.5t-62.5 81t-87.5 54.5t-104.5 20q-75 0 -137.5 -35t-101.5 -93h-209q-13 0 -22.5 -9.5t-9.5 -22.5t9.5 -22.5t22.5 -9.5h178q-6 -15 -9.5 -31t-5.5 -33h-99q-13 0 -22.5 -9.5t-9.5 -22.5t9.5 -22.5t22.5 -9.5h99q2 -17 5.5 -33t9.5 -31
h-172q-16 0 -27 -9.5t-11 -22.5t11 -22.5t27 -9.5h203q39 -58 101.5 -93t137.5 -35t137.5 35t101.5 93h75q16 0 27 9.5t11 22.5t-11 22.5t-27 9.5h-44q6 15 9.5 31t5.5 33h163q13 0 22.5 9.5t9.5 22.5t-9.5 22.5t-22.5 9.5v0zM340 578h202q13 0 22.5 9.5t9.5 22.5t-9.5 22.5
t-22.5 9.5h-156q30 30 70 47t86 17q42 0 79.5 -15t67 -40.5t49 -60.5t25.5 -76h-442q3 17 7.5 33t11.5 31v0zM542 258q-46 0 -86 17t-70 47h312q-30 -30 -70 -47t-86 -17v0zM743 386h-403q-7 15 -11.5 31t-7.5 33h442q-3 -17 -7.5 -33t-11.5 -31h-1z" />
    <glyph glyph-name="uniE671" unicode="&#xe671;" 
d="M862 576q-40 0 -68 -28t-28 -68q0 -8 1.5 -16t4.5 -16h-614q-13 0 -22.5 -9.5t-9.5 -22.5t9.5 -22.5t22.5 -9.5h704q40 0 68 28t28 68t-28 68t-68 28v0zM158 512h384q40 0 68 28t28 68t-28 68t-68 28t-68 -28t-28 -68q0 -8 1.5 -16t4.5 -16h-294q-13 0 -22.5 -9.5
t-9.5 -22.5t9.5 -22.5t22.5 -9.5v0zM670 320h-2.5t-3.5 -1q-1 0 -1.5 0.5t-1.5 0.5h-494q-17 0 -29 -9.5t-12 -22.5t12 -22.5t29 -9.5h413q-3 -8 -4.5 -16t-1.5 -16q0 -40 28 -68t68 -28t68 28t28 68t-28 68t-68 28v0z" />
    <glyph glyph-name="uniE672" unicode="&#xe672;" 
d="M766 375l-66 38q2 9 3 17.5t1 17.5t-1 17.5t-3 17.5l66 38q23 13 29.5 38.5t-6.5 48.5t-38.5 30t-48.5 -6l-66 -39q-13 12 -28 20.5t-32 14.5v76q0 27 -18.5 45.5t-45.5 18.5t-45.5 -18.5t-18.5 -45.5v-76q-17 -6 -32 -14.5t-28 -19.5l-66 37q-23 14 -48.5 7t-38.5 -30
t-6.5 -48.5t29.5 -38.5l65 -38q-1 -8 -2 -17t-1 -18t1 -17.5t2 -17.5l-65 -38q-23 -13 -29.5 -38.5t6.5 -48.5t38.5 -30t48.5 7l66 38q13 -12 28 -20.5t32 -14.5v-76q0 -27 18.5 -45.5t45.5 -18.5t45.5 18.5t18.5 45.5v76q17 6 32 14.5t28 20.5l66 -38q23 -14 48.5 -7
t38.5 30t6.5 48.5t-29.5 38.5v0zM448 448q0 27 18.5 45.5t45.5 18.5q26 0 45 -18.5t19 -45.5q0 -26 -19 -45t-45 -19q-27 0 -45.5 19t-18.5 45v0z" />
    <glyph glyph-name="uniE673" unicode="&#xe673;" 
d="M416 832q13 0 22.5 9.5t9.5 22.5v64q0 13 -9.5 22.5t-22.5 9.5t-22.5 -9.5t-9.5 -22.5v-64q0 -13 9.5 -22.5t22.5 -9.5v0zM665 748l45 45q9 9 9 22.5t-9 22.5q-9 10 -22.5 10t-22.5 -10l-45 -45q-10 -9 -10 -22.5t10 -22.5q9 -10 22.5 -10t22.5 10v0zM32 512h64
q13 0 22.5 9.5t9.5 22.5t-9.5 22.5t-22.5 9.5h-64q-13 0 -22.5 -9.5t-9.5 -22.5t9.5 -22.5t22.5 -9.5v0zM704 544q0 -13 9.5 -22.5t22.5 -9.5h64q13 0 22.5 9.5t9.5 22.5t-9.5 22.5t-22.5 9.5h-64q-13 0 -22.5 -9.5t-9.5 -22.5v0zM167 748q9 -10 22.5 -10t22.5 10
q10 9 10 22.5t-10 22.5l-45 45q-9 10 -22.5 10t-22.5 -10q-10 -9 -10 -22.5t10 -22.5l45 -45v0zM800 448q-8 0 -16 -0.5t-16 -1.5q-25 34 -57.5 60t-70.5 43q-1 45 -19 85t-48.5 70t-70.5 47t-86 17t-87 -17.5t-71.5 -48t-48 -71.5t-17.5 -87q0 -26 6 -50.5t17 -46.5
q-45 -2 -84 -20t-68 -48t-46 -70t-17 -85q0 -46 17.5 -87t48 -71.5t71.5 -48t87 -17.5q21 0 40.5 3.5t38.5 11.5q44 -38 97.5 -58.5t111.5 -20.5t111.5 20.5t97.5 58.5q19 -8 38.5 -11.5t40.5 -3.5q46 0 87 17.5t71.5 48t48 71.5t17.5 87t-17.5 87t-48 71.5t-71.5 48
t-87 17.5v0zM416 704q60 0 104 -38.5t53 -95.5l-30 4t-31 2q-69 0 -130.5 -28t-106.5 -78q-9 16 -14 35t-5 39q0 66 47 113t113 47v0zM800 64q-26 0 -49 8t-43 21q-35 -42 -86 -67.5t-110 -25.5t-110 25.5t-86 67.5q-20 -13 -43 -21t-49 -8q-66 0 -113 47t-47 113t47 113
t113 47q12 0 23 -2t21 -5q4 -1 8.5 -2t8.5 -3q6 13 14.5 24.5t17.5 22.5q35 43 85.5 68t109.5 25q15 0 29.5 -2t28.5 -5q16 -4 31 -9.5t29 -13.5q35 -19 63 -47t46 -63q14 6 29.5 9t31.5 3q66 0 113 -47t47 -113t-47 -113t-113 -47v0z" />
    <glyph glyph-name="uniE674" unicode="&#xe674;" 
d="M870 436q7 5 14.5 10.5t14.5 12.5q19 20 34 44t25 52q3 8 1 17t-8 16q-7 6 -16 8.5t-18 -1.5q-53 -18 -106.5 -6t-92.5 51q-40 39 -52 93t7 107q3 8 1 17t-8 16q-7 7 -16 9t-18 -1q-28 -10 -52 -25t-43 -35q-51 -50 -67 -116.5t2 -131.5q-65 -8 -121.5 -41t-94.5 -86
q-8 1 -16 1.5t-16 0.5q-46 0 -87 -17.5t-71.5 -48t-48 -71.5t-17.5 -87t17.5 -87t48 -71.5t71.5 -48t87 -17.5q21 0 40.5 3.5t38.5 11.5q44 -38 97.5 -58.5t111.5 -20.5t111.5 20.5t97.5 58.5q19 -8 38.5 -11.5t40.5 -3.5q46 0 87 17.5t71.5 48t48 71.5t17.5 87
q0 74 -43.5 131.5t-110.5 80.5v0zM582 776q4 4 8 7.5t8 6.5q-3 -54 16 -105t58 -90q40 -40 91 -59t105 -16q-21 -26 -48.5 -42.5t-57.5 -23.5q-41 52 -99.5 83.5t-124.5 36.5q-19 51 -8 106t52 96v0zM800 64q-26 0 -49 8t-43 21q-35 -42 -86 -67.5t-110 -25.5t-110 25.5
t-86 67.5q-20 -13 -43 -21t-49 -8q-66 0 -113 47t-47 113t47 113t113 47q16 0 31.5 -3t29.5 -9q30 59 86.5 97t125.5 42q4 0 7.5 0.5t7.5 0.5q19 0 37.5 -3t36.5 -8q24 -7 45.5 -19t39.5 -27q18 -14 33 -32t27 -38q2 -3 4 -6.5t4 -6.5q14 6 29.5 9t31.5 3q66 0 113 -47
t47 -113t-47 -113t-113 -47v0z" />
    <glyph glyph-name="uniE675" unicode="&#xe675;" 
d="M512 770q13 0 22.5 9.5t9.5 22.5v64q0 13 -9.5 22.5t-22.5 9.5t-22.5 -9.5t-9.5 -22.5v-64q0 -13 9.5 -22.5t22.5 -9.5v0zM761 686l45 45q9 9 9 22.5t-9 22.5q-9 10 -22.5 10t-22.5 -10l-45 -45q-10 -9 -10 -22.5t10 -22.5q9 -10 22.5 -10t22.5 10v0zM128 450h64
q13 0 22.5 9.5t9.5 22.5t-9.5 22.5t-22.5 9.5h-64q-13 0 -22.5 -9.5t-9.5 -22.5t9.5 -22.5t22.5 -9.5v0zM800 482q0 -13 9.5 -22.5t22.5 -9.5h64q13 0 22.5 9.5t9.5 22.5t-9.5 22.5t-22.5 9.5h-64q-13 0 -22.5 -9.5t-9.5 -22.5v0zM263 686q9 -10 22.5 -10t22.5 10
q10 9 10 22.5t-10 22.5l-45 45q-9 10 -22.5 10t-22.5 -10q-10 -9 -10 -22.5t10 -22.5l45 -45v0zM291 450h64l-2 16t-1 16q0 66 47 113t113 47t113 -47t47 -113q0 -8 -1 -16l-2 -16h64l2 16t1 16q0 46 -17.5 87t-48 71.5t-71.5 48t-87 17.5t-87 -17.5t-71.5 -48t-48 -71.5
t-17.5 -87q0 -8 1 -16l2 -16v0zM896 386h-768q-13 0 -22.5 -9.5t-9.5 -22.5t9.5 -22.5t22.5 -9.5h768q13 0 22.5 9.5t9.5 22.5t-9.5 22.5t-22.5 9.5v0zM896 258h-768q-13 0 -22.5 -9.5t-9.5 -22.5t9.5 -22.5t22.5 -9.5h768q13 0 22.5 9.5t9.5 22.5t-9.5 22.5t-22.5 9.5v0z
M896 130h-768q-13 0 -22.5 -9.5t-9.5 -22.5t9.5 -22.5t22.5 -9.5h768q13 0 22.5 9.5t9.5 22.5t-9.5 22.5t-22.5 9.5v0z" />
    <glyph glyph-name="uniE676" unicode="&#xe676;" 
d="M128 322h768q13 0 22.5 9.5t9.5 22.5t-9.5 22.5t-22.5 9.5h-768q-13 0 -22.5 -9.5t-9.5 -22.5t9.5 -22.5t22.5 -9.5v0zM896 258h-768q-13 0 -22.5 -9.5t-9.5 -22.5t9.5 -22.5t22.5 -9.5h768q13 0 22.5 9.5t9.5 22.5t-9.5 22.5t-22.5 9.5v0zM896 130h-768
q-13 0 -22.5 -9.5t-9.5 -22.5t9.5 -22.5t22.5 -9.5h768q13 0 22.5 9.5t9.5 22.5t-9.5 22.5t-22.5 9.5v0zM410 450l-1 0.5t-1 1.5q-56 56 -56 135.5t56 135.5q4 4 8 7.5t8 7.5q-3 -54 16 -105t58 -91q40 -39 91 -58t105 -16q-4 -5 -8.5 -9.5t-9.5 -8.5h83q8 12 14 25t11 27
q3 9 1 18t-8 15q-7 7 -16 9t-18 -1q-53 -19 -106.5 -7t-92.5 52q-40 39 -52 92.5t7 106.5q3 9 1 18t-8 16q-7 6 -16 8t-18 -1q-27 -10 -51.5 -25t-43.5 -34q-33 -33 -51 -73t-22.5 -82t5 -84.5t33.5 -79.5h82v0z" />
    <glyph glyph-name="uniE677" unicode="&#xe677;" 
d="M67 448l-2 16t-1 16q0 66 47 113t113 47q16 0 31.5 -3t29.5 -9q32 62 92 101t135 39t135 -39t92 -101q14 6 29.5 9t31.5 3q66 0 113 -47t47 -113q0 -8 -1 -16l-2 -16h64l2 16t1 16q0 46 -17.5 87t-48 71.5t-71.5 48t-87 17.5q-8 0 -16 -0.5t-16 -1.5q-44 61 -111.5 95.5
t-144.5 34.5t-144.5 -34.5t-111.5 -95.5q-8 1 -16 1.5t-16 0.5q-46 0 -87 -17.5t-71.5 -48t-48 -71.5t-17.5 -87q0 -8 1 -16l2 -16h64v0zM992 384h-960q-13 0 -22.5 -9.5t-9.5 -22.5t9.5 -22.5t22.5 -9.5h960q13 0 22.5 9.5t9.5 22.5t-9.5 22.5t-22.5 9.5v0zM992 256h-960
q-13 0 -22.5 -9.5t-9.5 -22.5t9.5 -22.5t22.5 -9.5h960q13 0 22.5 9.5t9.5 22.5t-9.5 22.5t-22.5 9.5v0zM992 128h-960q-13 0 -22.5 -9.5t-9.5 -22.5t9.5 -22.5t22.5 -9.5h960q13 0 22.5 9.5t9.5 22.5t-9.5 22.5t-22.5 9.5v0z" />
    <glyph glyph-name="uniE678" unicode="&#xe678;" 
d="M224 640h576q13 0 22.5 9.5t9.5 22.5t-9.5 22.5t-22.5 9.5h-576q-13 0 -22.5 -9.5t-9.5 -22.5t9.5 -22.5t22.5 -9.5v0zM800 576h-576q-13 0 -22.5 -9.5t-9.5 -22.5t9.5 -22.5t22.5 -9.5h576q13 0 22.5 9.5t9.5 22.5t-9.5 22.5t-22.5 9.5v0zM800 448h-576
q-13 0 -22.5 -9.5t-9.5 -22.5t9.5 -22.5t22.5 -9.5h576q13 0 22.5 9.5t9.5 22.5t-9.5 22.5t-22.5 9.5v0zM800 320h-576q-13 0 -22.5 -9.5t-9.5 -22.5t9.5 -22.5t22.5 -9.5h576q13 0 22.5 9.5t9.5 22.5t-9.5 22.5t-22.5 9.5v0z" />
    <glyph glyph-name="uniE679" unicode="&#xe679;" 
d="M800 640q-8 0 -16 -0.5t-16 -1.5q-44 61 -111.5 95.5t-144.5 34.5t-144.5 -34.5t-111.5 -95.5q-8 1 -16 1.5t-16 0.5q-46 0 -87 -17.5t-71.5 -48t-48 -71.5t-17.5 -87t17.5 -87t48 -71.5t71.5 -48t87 -17.5q21 0 40.5 3.5t38.5 11.5q44 -38 97.5 -58.5t111.5 -20.5
t111.5 20.5t97.5 58.5q19 -8 38.5 -11.5t40.5 -3.5q46 0 87 17.5t71.5 48t48 71.5t17.5 87t-17.5 87t-48 71.5t-71.5 48t-87 17.5v0zM800 256q-26 0 -49 8t-43 21q-35 -42 -86 -67.5t-110 -25.5t-110 25.5t-86 67.5q-20 -13 -43 -21t-49 -8q-66 0 -113 47t-47 113t47 113
t113 47q16 0 31.5 -3t29.5 -9q32 62 92 101t135 39t135 -39t92 -101q14 6 29.5 9t31.5 3q66 0 113 -47t47 -113t-47 -113t-113 -47v0z" />
    <glyph glyph-name="uniE67A" unicode="&#xe67a;" 
d="M800 832q-8 0 -16 -0.5t-16 -1.5q-44 61 -111.5 95.5t-144.5 34.5t-144.5 -34.5t-111.5 -95.5q-8 1 -16 1.5t-16 0.5q-46 0 -87 -17.5t-71.5 -48t-48 -71.5t-17.5 -87t17.5 -87t48 -71.5t71.5 -48t87 -17.5q21 0 40.5 3.5t38.5 11.5q33 -28 71 -47t80 -26l-70 -70l64 -64
l-64 -192l192 192l-64 64l22 66q52 4 99.5 23t87.5 54q19 -8 38.5 -11.5t40.5 -3.5q46 0 87 17.5t71.5 48t48 71.5t17.5 87t-17.5 87t-48 71.5t-71.5 48t-87 17.5v0zM800 448q-26 0 -49 8t-43 21q-28 -34 -67 -57t-85 -31l-44 -5q-59 0 -110 25.5t-86 67.5q-20 -13 -43 -21
t-49 -8q-66 0 -113 47t-47 113t47 113t113 47q16 0 31.5 -3t29.5 -9q32 62 92 101t135 39t135 -39t92 -101q14 6 29.5 9t31.5 3q66 0 113 -47t47 -113t-47 -113t-113 -47v0z" />
    <glyph glyph-name="uniE67B" unicode="&#xe67b;" 
d="M800 832q-8 0 -16 -0.5t-16 -1.5q-44 61 -111.5 95.5t-144.5 34.5t-144.5 -34.5t-111.5 -95.5q-8 1 -16 1.5t-16 0.5q-46 0 -87 -17.5t-71.5 -48t-48 -71.5t-17.5 -87t17.5 -87t48 -71.5t71.5 -48t87 -17.5q21 0 40.5 3.5t38.5 11.5q19 -16 39.5 -28.5t42.5 -22.5l50 50
q-35 11 -65.5 31t-53.5 48q-20 -13 -43 -21t-49 -8q-66 0 -113 47t-47 113t47 113t113 47q16 0 31.5 -3t29.5 -9q32 62 92 101t135 39t135 -39t92 -101q14 6 29.5 9t31.5 3q66 0 113 -47t47 -113t-47 -113t-113 -47q-26 0 -49 8t-43 21q-15 -18 -34.5 -33.5t-40.5 -27.5
l-27 -80q31 9 60 25t55 38q19 -8 38.5 -11.5t40.5 -3.5q46 0 87 17.5t71.5 48t48 71.5t17.5 87t-17.5 87t-48 71.5t-71.5 48t-87 17.5v0zM384 256l64 -64l-64 -192l192 192l-64 64l64 192l-192 -192v0z" />
    <glyph glyph-name="uniE67C" unicode="&#xe67c;" 
d="M800 768q-8 0 -16 -0.5t-16 -1.5q-44 61 -111.5 95.5t-144.5 34.5t-144.5 -34.5t-111.5 -95.5q-8 1 -16 1.5t-16 0.5q-46 0 -87 -17.5t-71.5 -48t-48 -71.5t-17.5 -87t17.5 -87t48 -71.5t71.5 -48t87 -17.5q21 0 40.5 3.5t38.5 11.5q44 -38 97.5 -58.5t111.5 -20.5
t111.5 20.5t97.5 58.5q19 -8 38.5 -11.5t40.5 -3.5q46 0 87 17.5t71.5 48t48 71.5t17.5 87t-17.5 87t-48 71.5t-71.5 48t-87 17.5v0zM800 384q-26 0 -49 8t-43 21q-35 -42 -86 -67.5t-110 -25.5t-110 25.5t-86 67.5q-20 -13 -43 -21t-49 -8q-66 0 -113 47t-47 113t47 113
t113 47q16 0 31.5 -3t29.5 -9q32 62 92 101t135 39t135 -39t92 -101q14 6 29.5 9t31.5 3q66 0 113 -47t47 -113t-47 -113t-113 -47v0zM448 64q0 -27 18.5 -45.5t45.5 -18.5t45.5 18.5t18.5 45.5t-32 77.5l-32 50.5l-32 -50.5t-32 -77.5v0z" />
    <glyph glyph-name="uniE67D" unicode="&#xe67d;" 
d="M800 832q-8 0 -16 -0.5t-16 -1.5q-44 61 -111.5 95.5t-144.5 34.5t-144.5 -34.5t-111.5 -95.5q-8 1 -16 1.5t-16 0.5q-46 0 -87 -17.5t-71.5 -48t-48 -71.5t-17.5 -87t17.5 -87t48 -71.5t71.5 -48t87 -17.5q21 0 40.5 3.5t38.5 11.5q44 -38 97.5 -58.5t111.5 -20.5
t111.5 20.5t97.5 58.5q19 -8 38.5 -11.5t40.5 -3.5q46 0 87 17.5t71.5 48t48 71.5t17.5 87t-17.5 87t-48 71.5t-71.5 48t-87 17.5v0zM800 448q-26 0 -49 8t-43 21q-35 -42 -86 -67.5t-110 -25.5t-110 25.5t-86 67.5q-20 -13 -43 -21t-49 -8q-66 0 -113 47t-47 113t47 113
t113 47q16 0 31.5 -3t29.5 -9q32 62 92 101t135 39t135 -39t92 -101q14 6 29.5 9t31.5 3q66 0 113 -47t47 -113t-47 -113t-113 -47v0zM450 0q0 -27 18.5 -45.5t45.5 -18.5t45.5 18.5t18.5 45.5t-32 77.5l-32 50.5l-32 -50.5t-32 -77.5v0zM704 64q0 -27 18.5 -45.5
t45.5 -18.5t45.5 18.5t18.5 45.5t-32 77.5l-32 50.5l-32 -50.5t-32 -77.5v0zM192 192q0 -27 18.5 -45.5t45.5 -18.5t45.5 18.5t18.5 45.5t-32 77.5l-32 50.5l-32 -50.5t-32 -77.5v0z" />
    <glyph glyph-name="uniE67E" unicode="&#xe67e;" 
d="M834 628q-36 37 -83.5 57t-99.5 20t-100 -20t-84 -57q-79 -4 -134.5 -61.5t-55.5 -137.5q0 -42 16 -78t43 -63t63 -43t78 -16q8 0 17 1t17 2q31 -20 66.5 -30.5t73.5 -10.5q37 0 72.5 10.5t66.5 30.5q9 -1 17.5 -2t17.5 -1q41 0 77.5 16t63.5 43t42.5 63t15.5 78
q0 80 -55.5 137.5t-134.5 61.5v0zM825 293q-13 0 -25 2.5t-23 6.5q-26 -23 -58.5 -35t-67.5 -12t-67.5 12t-58.5 35q-12 -4 -24 -6.5t-24 -2.5q-56 0 -96 40t-40 96t40 95.5t96 39.5q4 0 9 -0.5t10 -0.5q27 37 67.5 57.5t87.5 20.5q46 0 87 -20.5t68 -57.5q4 0 9 0.5t10 0.5
q56 0 95.5 -39.5t39.5 -95.5t-39.5 -96t-95.5 -40v0zM288 256h-256q-13 0 -22.5 -9.5t-9.5 -22.5t9.5 -22.5t22.5 -9.5h256q13 0 22.5 9.5t9.5 22.5t-9.5 22.5t-22.5 9.5v0zM32 320h128q13 0 22.5 9.5t9.5 22.5t-9.5 22.5t-22.5 9.5h-128q-13 0 -22.5 -9.5t-9.5 -22.5
t9.5 -22.5t22.5 -9.5v0zM96 448h128q13 0 22.5 9.5t9.5 22.5t-9.5 22.5t-22.5 9.5h-128q-13 0 -22.5 -9.5t-9.5 -22.5t9.5 -22.5t22.5 -9.5v0z" />
    <glyph glyph-name="uniE67F" unicode="&#xe67f;" 
d="M834 818q-36 37 -83.5 57.5t-99.5 20.5t-100 -20.5t-84 -57.5q-79 -3 -134.5 -61t-55.5 -138q0 -41 16 -77.5t43 -63.5t63 -42.5t78 -15.5q8 0 17 0.5t17 2.5q31 -20 66.5 -31t73.5 -11q37 0 72.5 11t66.5 31q9 -2 17.5 -2.5t17.5 -0.5q41 0 77.5 15.5t63.5 42.5
t42.5 63.5t15.5 77.5q0 80 -55.5 138t-134.5 61v0zM825 484q-13 0 -25 2t-23 7q-26 -23 -58.5 -35.5t-67.5 -12.5t-67.5 12.5t-58.5 35.5q-12 -5 -24 -7t-24 -2q-56 0 -96 39.5t-40 95.5t40 96t96 40q4 0 9 -0.5t10 -1.5q27 37 67.5 58t87.5 21q46 0 87 -21t68 -58
q4 1 9 1.5t10 0.5q56 0 95.5 -40t39.5 -96t-39.5 -95.5t-95.5 -39.5v0zM288 447h-256q-13 0 -22.5 -9.5t-9.5 -22.5q0 -14 9.5 -23t22.5 -9h256q13 0 22.5 9t9.5 23q0 13 -9.5 22.5t-22.5 9.5v0zM32 511h128q13 0 22.5 9t9.5 23q0 13 -9.5 22.5t-22.5 9.5h-128
q-13 0 -22.5 -9.5t-9.5 -22.5q0 -14 9.5 -23t22.5 -9v0zM96 639h128q13 0 22.5 9t9.5 23q0 13 -9.5 22.5t-22.5 9.5h-128q-13 0 -22.5 -9.5t-9.5 -22.5q0 -14 9.5 -23t22.5 -9v0zM448 192q0 -27 18.5 -45.5t45.5 -18.5t45.5 18.5t18.5 45.5t-32 77.5l-32 50.5l-32 -50.5
t-32 -77.5v0zM704 64q0 -27 18.5 -45.5t45.5 -18.5t45.5 18.5t18.5 45.5t-32 77.5l-32 50.5l-32 -50.5t-32 -77.5v0z" />
    <glyph glyph-name="uniE680" unicode="&#xe680;" 
d="M652 73l-36 20q1 5 1.5 10t0.5 10t-0.5 9.5t-1.5 9.5l36 21q13 7 16.5 21t-3.5 27t-21.5 16.5t-26.5 -3.5l-37 -21q-7 6 -15 11t-18 8v42q0 15 -10 25t-25 10t-25 -10t-10 -25v-42q-10 -3 -18 -8t-15 -11l-37 21q-12 7 -26.5 3.5t-21.5 -16.5t-3.5 -27t16.5 -21l36 -21
q-1 -5 -1.5 -9.5t-0.5 -9.5t0.5 -10t1.5 -10l-36 -20q-13 -8 -16.5 -22t3.5 -27q7 -12 21.5 -16t26.5 3l37 21q7 -6 15 -11t18 -8v-42q0 -14 10 -24.5t25 -10.5t25 10.5t10 24.5v42q10 3 18 8t15 11l37 -21q12 -7 26.5 -3t21.5 16q7 13 3.5 27t-16.5 22v0zM512 77
q-15 0 -25 10.5t-10 25.5q0 14 10 24.5t25 10.5t25 -10.5t10 -24.5q0 -15 -10 -25.5t-25 -10.5v0zM800 832q-8 0 -16 -0.5t-16 -1.5q-44 61 -111.5 95.5t-144.5 34.5t-144.5 -34.5t-111.5 -95.5q-8 1 -16 1.5t-16 0.5q-46 0 -87 -17.5t-71.5 -48t-48 -71.5t-17.5 -87
t17.5 -87t48 -71.5t71.5 -48t87 -17.5q21 0 40.5 3.5t38.5 11.5q44 -38 97.5 -58.5t111.5 -20.5t111.5 20.5t97.5 58.5q19 -8 38.5 -11.5t40.5 -3.5q46 0 87 17.5t71.5 48t48 71.5t17.5 87t-17.5 87t-48 71.5t-71.5 48t-87 17.5v0zM800 448q-26 0 -49 8t-43 21
q-35 -42 -86 -67.5t-110 -25.5t-110 25.5t-86 67.5q-20 -13 -43 -21t-49 -8q-66 0 -113 47t-47 113t47 113t113 47q16 0 31.5 -3t29.5 -9q32 62 92 101t135 39t135 -39t92 -101q14 6 29.5 9t31.5 3q66 0 113 -47t47 -113t-47 -113t-113 -47v0z" />
    <glyph glyph-name="uniE681" unicode="&#xe681;" 
d="M652 265l-36 20q1 5 1.5 10t0.5 10t-0.5 9.5t-1.5 9.5l36 21q13 7 16.5 21t-3.5 27t-21.5 16.5t-26.5 -3.5l-37 -21q-7 6 -15 11t-18 8v42q0 15 -10 25t-25 10t-25 -10t-10 -25v-42q-10 -3 -18 -8t-15 -11l-37 21q-12 7 -26.5 3.5t-21.5 -16.5t-3.5 -27t16.5 -21l36 -21
q-1 -5 -1.5 -9.5t-0.5 -9.5t0.5 -10t1.5 -10l-36 -20q-13 -8 -16.5 -22t3.5 -27q7 -12 21.5 -16t26.5 3l37 21q7 -6 15 -11t18 -8v-42q0 -14 10 -24.5t25 -10.5t25 10.5t10 24.5v42q10 3 18 8t15 11l37 -21q12 -7 26.5 -3t21.5 16q7 13 3.5 27t-16.5 22v0zM512 269
q-15 0 -25 10.5t-10 25.5q0 14 10 24.5t25 10.5t25 -10.5t10 -24.5q0 -15 -10 -25.5t-25 -10.5v0zM800 832q-8 0 -16 -0.5t-16 -1.5q-44 61 -111.5 95.5t-144.5 34.5t-144.5 -34.5t-111.5 -95.5q-8 1 -16 1.5t-16 0.5q-46 0 -87 -17.5t-71.5 -48t-48 -71.5t-17.5 -87
t17.5 -87t48 -71.5t71.5 -48t87 -17.5q18 0 35 3t34 9q1 7 4 14.5t7 14.5q6 10 14 18.5t18 14.5q-5 5 -10.5 9.5t-9.5 9.5q-20 -13 -43 -21t-49 -8q-66 0 -113 47t-47 113t47 113t113 47q16 0 31.5 -3t29.5 -9q32 62 92 101t135 39t135 -39t92 -101q14 6 29.5 9t31.5 3
q66 0 113 -47t47 -113t-47 -113t-113 -47q-26 0 -49 8t-43 21q-4 -5 -9.5 -9.5t-10.5 -9.5q10 -6 18.5 -14.5t13.5 -18.5q4 -7 7 -14.5t4 -14.5q17 -6 34 -9t35 -3q46 0 87 17.5t71.5 48t48 71.5t17.5 87t-17.5 87t-48 71.5t-71.5 48t-87 17.5v0z" />
    <glyph glyph-name="uniE682" unicode="&#xe682;" 
d="M652 73l-36 20q1 5 1.5 10t0.5 10t-0.5 9.5t-1.5 9.5l36 21q13 7 16.5 21t-3.5 27t-21.5 16.5t-26.5 -3.5l-37 -21q-7 6 -15 11t-18 8v42q0 15 -10 25t-25 10t-25 -10t-10 -25v-42q-10 -3 -18 -8t-15 -11l-37 21q-12 7 -26.5 3.5t-21.5 -16.5t-3.5 -27t16.5 -21l36 -21
q-1 -5 -1.5 -9.5t-0.5 -9.5t0.5 -10t1.5 -10l-36 -20q-13 -8 -16.5 -22t3.5 -27q7 -12 21.5 -16t26.5 3l37 21q7 -6 15 -11t18 -8v-42q0 -14 10 -24.5t25 -10.5t25 10.5t10 24.5v42q10 3 18 8t15 11l37 -21q12 -7 26.5 -3t21.5 16q7 13 3.5 27t-16.5 22v0zM512 77
q-15 0 -25 10.5t-10 25.5q0 14 10 24.5t25 10.5t25 -10.5t10 -24.5q0 -15 -10 -25.5t-25 -10.5v0zM948 167l-24 7q0 6 -1.5 11.5t-4.5 10.5l18 17q6 7 6 15.5t-6 14.5t-15 6t-15 -6l-17 -17q-6 2 -11.5 3.5t-10.5 1.5l-7 24q-2 9 -9.5 13.5t-15.5 1.5q-9 -2 -13 -9.5
t-2 -15.5l6 -24q-2 -2 -4.5 -3.5t-4.5 -4.5q-2 -2 -3.5 -4t-3.5 -4l-24 6q-8 2 -15.5 -2.5t-10.5 -12.5q-2 -8 2.5 -15.5t12.5 -10.5l24 -6q1 -6 2.5 -11.5t3.5 -10.5l-18 -18q-6 -6 -6 -14.5t7 -14.5q6 -6 14.5 -6t14.5 6l18 17q5 -2 10.5 -3.5t11.5 -2.5l6 -24
q2 -8 9.5 -12.5t16.5 -2.5q8 3 12.5 10.5t2.5 15.5l-7 24q3 2 5 3.5t4 3.5t4 4.5t4 4.5l23 -6q9 -2 16.5 2t9.5 13q2 8 -2 15.5t-13 9.5v0zM877 154q-7 -6 -15.5 -6t-14.5 6t-6 15t6 15t14.5 6t15.5 -6q6 -6 6 -15t-6 -15v0zM238 275l-24 -6q-2 2 -3.5 4t-3.5 4
q-2 3 -4.5 4.5t-4.5 3.5l6 24q3 8 -1.5 15.5t-12.5 9.5q-9 3 -16.5 -1.5t-9.5 -12.5l-7 -25q-5 0 -10.5 -1.5t-11.5 -3.5l-17 17q-6 6 -15 6t-15 -6t-6 -14.5t6 -15.5l18 -17q-3 -5 -4.5 -10.5t-1.5 -11.5l-24 -6q-9 -3 -13 -10.5t-2 -15.5q2 -9 9.5 -13t16.5 -2l23 6
q2 -2 4 -4.5t4 -4.5t4 -3.5t5 -3.5l-7 -24q-2 -8 2.5 -15.5t12.5 -9.5q9 -3 16.5 1.5t9.5 12.5l6 24q6 1 11.5 2.5t10.5 3.5l18 -17q6 -7 14.5 -6.5t15.5 6.5q6 6 6 14.5t-6 14.5l-18 18q2 5 3.5 10.5t2.5 11.5l24 6q8 3 12.5 10.5t2.5 15.5q-3 8 -10.5 12.5t-15.5 2.5v0z
M177 218q-6 -6 -14.5 -6t-15.5 6q-6 6 -6 15t6 15q7 6 15.5 6t14.5 -6t6 -15t-6 -15v0zM1024 608q0 46 -17.5 87t-48 71.5t-71.5 48t-87 17.5q-8 0 -16 -0.5t-16 -1.5q-44 61 -111.5 95.5t-144.5 34.5t-144.5 -34.5t-111.5 -95.5q-8 1 -16 1.5t-16 0.5q-46 0 -87 -17.5
t-71.5 -48t-48 -71.5t-17.5 -87t17.5 -87t48 -71.5t71.5 -48t87 -17.5q21 0 40.5 3.5t38.5 11.5q44 -38 97.5 -58.5t111.5 -20.5t111.5 20.5t97.5 58.5q19 -8 38.5 -11.5t40.5 -3.5q46 0 87 17.5t71.5 48t48 71.5t17.5 87v0zM708 477q-35 -42 -86 -67.5t-110 -25.5
t-110 25.5t-86 67.5q-20 -13 -43 -21t-49 -8q-66 0 -113 47t-47 113t47 113t113 47q16 0 31.5 -3t29.5 -9q32 62 92 101t135 39t135 -39t92 -101q14 6 29.5 9t31.5 3q66 0 113 -47t47 -113t-47 -113t-113 -47q-26 0 -49 8t-43 21v0z" />
    <glyph glyph-name="uniE683" unicode="&#xe683;" 
d="M800 832q-8 0 -16 -0.5t-16 -1.5q-44 61 -111.5 95.5t-144.5 34.5t-144.5 -34.5t-111.5 -95.5q-8 1 -16 1.5t-16 0.5q-46 0 -87 -17.5t-71.5 -48t-48 -71.5t-17.5 -87t17.5 -87t48 -71.5t71.5 -48t87 -17.5q21 0 40.5 3.5t38.5 11.5q44 -38 97.5 -58.5t111.5 -20.5
t111.5 20.5t97.5 58.5q19 -8 38.5 -11.5t40.5 -3.5q46 0 87 17.5t71.5 48t48 71.5t17.5 87t-17.5 87t-48 71.5t-71.5 48t-87 17.5v0zM800 448q-15 0 -29 2.5t-27 7.5l-36 14l-29 -25q-35 -31 -78 -47t-89 -16t-89 16t-77 47l-29 25l-36 -14q-14 -5 -28 -7.5t-29 -2.5
q-66 0 -113 47t-47 113t47 113t113 47q6 0 11.5 -0.5t10.5 -1.5l38 -5l23 31q37 49 90.5 76.5t114.5 27.5t114.5 -27t90.5 -77l23 -31l38 5q5 1 10.5 1.5t11.5 0.5q66 0 113 -47t47 -113t-47 -113t-113 -47v0zM192 320q-27 0 -45.5 -18.5t-18.5 -45.5t18.5 -45.5t45.5 -18.5
t45.5 18.5t18.5 45.5t-18.5 45.5t-45.5 18.5v0zM512 256q-27 0 -45.5 -18.5t-18.5 -45.5t18.5 -45.5t45.5 -18.5t45.5 18.5t18.5 45.5t-18.5 45.5t-45.5 18.5v0zM832 320q-27 0 -45.5 -18.5t-18.5 -45.5t18.5 -45.5t45.5 -18.5t45.5 18.5t18.5 45.5t-18.5 45.5t-45.5 18.5v0
zM704 64q-27 0 -45.5 -18.5t-18.5 -45.5t18.5 -45.5t45.5 -18.5t45.5 18.5t18.5 45.5t-18.5 45.5t-45.5 18.5v0zM320 64q-27 0 -45.5 -18.5t-18.5 -45.5t18.5 -45.5t45.5 -18.5t45.5 18.5t18.5 45.5t-18.5 45.5t-45.5 18.5v0z" />
    <glyph glyph-name="uniE684" unicode="&#xe684;" 
d="M1024 480q0 74 -52.5 126t-125.5 52h-7.5h-7.5q-34 43 -84 67.5t-107 24.5t-107 -24.5t-84 -67.5h-7.5h-7.5q-73 0 -125.5 -52t-52.5 -126q0 -8 1 -15.5t2 -14.5l-2 -2t-1 -2q-8 1 -16 1.5t-16 0.5q-46 0 -87 -17.5t-71.5 -48t-48 -71.5t-17.5 -87t17.5 -87t48 -71.5
t71.5 -48t87 -17.5q21 0 40.5 3.5t38.5 11.5q44 -38 97.5 -58.5t111.5 -20.5t111.5 20.5t97.5 58.5q19 -8 38.5 -11.5t40.5 -3.5q46 0 87 17.5t71.5 48t48 71.5t17.5 87q0 39 -12.5 73.5t-34.5 62.5q22 24 34.5 54.5t12.5 65.5v0zM800 64q-26 0 -49 8t-43 21
q-35 -42 -86 -67.5t-110 -25.5t-110 25.5t-86 67.5q-20 -13 -43 -21t-49 -8q-66 0 -113 47t-47 113t47 113t113 47q16 0 31.5 -3t29.5 -9q1 1 2 2.5t1 3.5q9 15 19.5 29t22.5 27q34 36 81 57t101 21q75 0 135 -39t92 -101q9 3 18 5.5t18 3.5l25 3q19 0 36 -4.5t33 -11.5
q17 -8 31 -20t26 -26q16 -21 25 -45.5t9 -52.5q0 -66 -47 -113t-113 -47v0zM931 405q-28 20 -61 31.5t-70 11.5q-8 0 -16 -0.5t-16 -1.5q-44 61 -111.5 95.5t-144.5 34.5q-51 0 -98.5 -16t-87.5 -45q11 35 40.5 57t67.5 22q12 0 23 -2t21 -6q23 44 66 72t96 28t96 -28
t66 -72q10 4 21 6t23 2q47 0 80.5 -33.5t33.5 -80.5q0 -22 -8 -41t-21 -34v0z" />
    <glyph glyph-name="uniE685" unicode="&#xe685;" 
d="M1024 690q0 74 -52.5 126.5t-125.5 52.5q-4 0 -7.5 -0.5t-7.5 -0.5q-34 43 -84 67.5t-107 24.5t-107 -24.5t-84 -67.5q-4 0 -7.5 0.5t-7.5 0.5q-73 0 -125.5 -52.5t-52.5 -126.5q0 -7 1 -14.5t2 -15.5l-2 -2t-1 -2q-8 1 -16 1.5t-16 0.5q-46 0 -87 -17.5t-71.5 -48
t-48 -71t-17.5 -87.5q0 -46 17.5 -87t48 -71t71.5 -48t87 -18q21 0 40.5 4t38.5 11q28 -24 60 -40.5t67 -25.5l-46 -31l64 -64l-64 -128l192 128l-64 64l10 19q55 2 106 22t93 56q19 -7 38.5 -11t40.5 -4q46 0 87 18t71.5 48t48 71t17.5 87q0 39 -12.5 73.5t-34.5 62.5
q22 24 34.5 55t12.5 65v0zM800 274q-26 0 -49 8t-43 22q-28 -35 -67.5 -58t-84.5 -31l-48 -4q-58 1 -108 26t-84 67q-20 -14 -43 -22t-49 -8q-66 0 -113 47t-47 113q0 67 47 113.5t113 46.5q16 0 31.5 -3t29.5 -9q1 2 2 3.5t2 2.5q8 16 18.5 30t22.5 26q34 36 81 57t101 21
q75 0 135 -39t92 -101q9 4 18 6l18 4l25 2q19 0 36 -4t33 -12q17 -8 31 -19.5t26 -26.5q16 -20 25 -45t9 -53q0 -66 -47 -113t-113 -47v0zM931 615q-28 20 -61 31.5t-70 11.5q-8 0 -16 -0.5t-16 -1.5q-44 61 -111.5 95.5t-144.5 34.5q-51 0 -98.5 -15.5t-87.5 -44.5
q11 34 40.5 56.5t67.5 22.5q12 0 23 -2.5t21 -6.5q23 44 66 72t96 28t96 -28t66 -72q10 4 21 6.5t23 2.5q47 0 80.5 -33.5t33.5 -81.5q0 -21 -8 -40.5t-21 -34.5v0z" />
    <glyph glyph-name="uniE686" unicode="&#xe686;" 
d="M384 192l64 -64l-64 -192l192 192l-64 64l64 128l-192 -128v0zM1024 690q0 74 -52.5 126.5t-125.5 52.5q-4 0 -7.5 -0.5t-7.5 -0.5q-34 43 -84 67.5t-107 24.5t-107 -24.5t-84 -67.5q-4 0 -7.5 0.5t-7.5 0.5q-73 0 -125.5 -52.5t-52.5 -126.5q0 -7 1 -14.5t2 -15.5l-2 -2
t-1 -2q-8 1 -16 1.5t-16 0.5q-46 0 -87 -17.5t-71.5 -48t-48 -71t-17.5 -87.5q0 -46 17.5 -87t48 -71t71.5 -48t87 -18q21 0 40.5 4t38.5 11q2 -1 4 -2.5t3 -2.5l57 38q-14 10 -27 21t-24 25q-20 -14 -43 -22t-49 -8q-66 0 -113 47t-47 113q0 67 47 113.5t113 46.5
q16 0 31.5 -3t29.5 -9q1 2 2 3.5t1 2.5q9 16 19.5 30t22.5 26q34 36 81 57t101 21q75 0 135 -39t92 -101q9 4 18 6l18 4l25 2q18 0 35.5 -4t33.5 -12q17 -8 31 -19.5t26 -26.5q16 -20 25 -45t9 -53q0 -66 -47 -113t-113 -47q-26 0 -49 8t-43 22q-21 -26 -48 -44.5t-58 -30.5
l-12 -24l36 -37q26 10 49.5 24.5t45.5 32.5q19 -7 38.5 -11t40.5 -4q46 0 87 18t71.5 48t48 71t17.5 87q0 39 -12.5 73.5t-34.5 62.5q22 24 34.5 55t12.5 65v0zM931 615q-28 20 -61 31.5t-70 11.5q-8 0 -16 -0.5t-16 -1.5q-44 61 -111.5 95.5t-144.5 34.5q-51 0 -98.5 -15.5
t-87.5 -44.5q11 34 40.5 56.5t67.5 22.5q12 0 23 -2.5t21 -6.5q23 44 66 72t96 28t96 -28t66 -72q10 4 21 6.5t23 2.5q47 0 80.5 -33.5t33.5 -81.5q0 -21 -8 -40.5t-21 -34.5v0z" />
    <glyph glyph-name="uniE687" unicode="&#xe687;" 
d="M512 672q-46 0 -87 -17.5t-71.5 -48t-48 -71.5t-17.5 -87t17.5 -87t48 -71.5t71.5 -48t87 -17.5t87 17.5t71.5 48t48 71.5t17.5 87t-17.5 87t-48 71.5t-71.5 48t-87 17.5v0zM512 736q13 0 22.5 9.5t9.5 22.5v64q0 13 -9.5 22.5t-22.5 9.5t-22.5 -9.5t-9.5 -22.5v-64
q0 -13 9.5 -22.5t22.5 -9.5v0zM512 160q-13 0 -22.5 -9.5t-9.5 -22.5v-64q0 -13 9.5 -22.5t22.5 -9.5t22.5 9.5t9.5 22.5v64q0 13 -9.5 22.5t-22.5 9.5v0zM761 652l45 45q9 9 9 22.5t-9 22.5q-9 10 -22.5 10t-22.5 -10l-45 -45q-10 -9 -10 -22.5t10 -22.5q9 -10 22 -10
t23 10v0zM263 244l-45 -45q-10 -9 -10 -22.5t10 -22.5q9 -10 22.5 -10t22.5 10l45 45q10 9 10 22.5t-10 22.5q-9 10 -22.5 10t-22.5 -10v0zM224 448q0 13 -9.5 22.5t-22.5 9.5h-64q-13 0 -22.5 -9.5t-9.5 -22.5t9.5 -22.5t22.5 -9.5h64q13 0 22.5 9.5t9.5 22.5v0zM896 480
h-64q-13 0 -22.5 -9.5t-9.5 -22.5t9.5 -22.5t22.5 -9.5h64q13 0 22.5 9.5t9.5 22.5t-9.5 22.5t-22.5 9.5v0zM263 652q9 -10 22.5 -10t22.5 10q10 9 10 22.5t-10 22.5l-45 45q-9 10 -22.5 10t-22.5 -10q-10 -9 -10 -22.5t10 -22.5l45 -45v0zM761 244q-10 10 -23 10t-22 -10
q-10 -9 -10 -22t10 -23l45 -45q9 -9 22.5 -9t22.5 9q10 9 10 22.5t-10 22.5l-45 45v0z" />
    <glyph glyph-name="uniE688" unicode="&#xe688;" 
d="M496 432q-47 47 -60 110.5t8 122.5q-23 -8 -44 -21t-40 -31q-32 -33 -48.5 -74t-16.5 -84t16.5 -84.5t48.5 -74.5q33 -32 74.5 -48.5t84.5 -16.5t84 16.5t74 48.5q19 19 31.5 40t20.5 44q-59 -21 -122.5 -8t-110.5 60v0z" />
    <glyph glyph-name="uniE689" unicode="&#xe689;" 
d="M416 832q13 0 22.5 9.5t9.5 22.5v64q0 13 -9.5 22.5t-22.5 9.5t-22.5 -9.5t-9.5 -22.5v-64q0 -13 9.5 -22.5t22.5 -9.5v0zM665 748l45 45q9 9 9 22.5t-9 22.5q-9 10 -22.5 10t-22.5 -10l-45 -45q-10 -9 -10 -22.5t10 -22.5q9 -10 22.5 -10t22.5 10v0zM32 512h64
q13 0 22.5 9.5t9.5 22.5t-9.5 22.5t-22.5 9.5h-64q-13 0 -22.5 -9.5t-9.5 -22.5t9.5 -22.5t22.5 -9.5v0zM704 544q0 -13 9.5 -22.5t22.5 -9.5h64q13 0 22.5 9.5t9.5 22.5t-9.5 22.5t-22.5 9.5h-64q-13 0 -22.5 -9.5t-9.5 -22.5v0zM167 748q9 -10 22.5 -10t22.5 10
q10 9 10 22.5t-10 22.5l-45 45q-9 10 -22.5 10t-22.5 -10q-10 -9 -10 -22.5t10 -22.5l45 -45v0zM800 448q-8 0 -16 -0.5t-16 -1.5q-25 34 -57.5 60t-70.5 43q-1 45 -19 85t-48.5 70t-70.5 47t-86 17t-87 -17.5t-71.5 -48t-48 -71.5t-17.5 -87q0 -26 6 -50.5t17 -46.5
q-45 -2 -84 -20t-68 -48t-46 -70t-17 -85q0 -46 17.5 -87t48 -71.5t71.5 -48t87 -17.5q21 0 40.5 3.5t38.5 11.5q44 -38 97.5 -58.5t111.5 -20.5t111.5 20.5t97.5 58.5q19 -8 38.5 -11.5t40.5 -3.5q46 0 87 17.5t71.5 48t48 71.5t17.5 87t-17.5 87t-48 71.5t-71.5 48
t-87 17.5v0zM512 576q-69 0 -130.5 -28t-106.5 -78q-9 16 -14 35t-5 39q0 66 47 113t113 47q60 0 104 -38.5t53 -95.5l-30 4t-31 2v0z" />
    <glyph glyph-name="uniE68A" unicode="&#xe68a;" 
d="M870 436q7 5 14.5 10.5t14.5 12.5q19 20 34 44t25 52q3 8 1 17t-8 16q-7 6 -16 8.5t-18 -1.5q-53 -18 -106.5 -6t-92.5 51q-40 39 -52 93t7 107q3 8 1 17t-8 16q-7 7 -16 9t-18 -1q-28 -10 -52 -25t-43 -35q-51 -50 -67 -116.5t2 -131.5q-65 -8 -121.5 -41t-94.5 -86
q-8 1 -16 1.5t-16 0.5q-46 0 -87 -17.5t-71.5 -48t-48 -71.5t-17.5 -87t17.5 -87t48 -71.5t71.5 -48t87 -17.5q21 0 40.5 3.5t38.5 11.5q44 -38 97.5 -58.5t111.5 -20.5t111.5 20.5t97.5 58.5q19 -8 38.5 -11.5t40.5 -3.5q46 0 87 17.5t71.5 48t48 71.5t17.5 87
q0 74 -43.5 131.5t-110.5 80.5v0zM582 776q4 4 8 7.5t8 6.5q-3 -54 16 -105t58 -90q40 -40 91 -59t105 -16q-21 -26 -48.5 -42.5t-57.5 -23.5q-41 52 -99.5 83.5t-124.5 36.5q-19 51 -8 106t52 96v0z" />
    <glyph glyph-name="uniE68B" unicode="&#xe68b;" 
d="M800 640q-8 0 -16 -0.5t-16 -1.5q-44 61 -111.5 95.5t-144.5 34.5t-144.5 -34.5t-111.5 -95.5q-8 1 -16 1.5t-16 0.5q-46 0 -87 -17.5t-71.5 -48t-48 -71.5t-17.5 -87t17.5 -87t48 -71.5t71.5 -48t87 -17.5q21 0 40.5 3.5t38.5 11.5q44 -38 97.5 -58.5t111.5 -20.5
t111.5 20.5t97.5 58.5q19 -8 38.5 -11.5t40.5 -3.5q46 0 87 17.5t71.5 48t48 71.5t17.5 87t-17.5 87t-48 71.5t-71.5 48t-87 17.5v0z" />
    <glyph glyph-name="uniE68C" unicode="&#xe68c;" 
d="M800 832q-8 0 -16 -0.5t-16 -1.5q-44 61 -111.5 95.5t-144.5 34.5t-144.5 -34.5t-111.5 -95.5q-8 1 -16 1.5t-16 0.5q-46 0 -87 -17.5t-71.5 -48t-48 -71.5t-17.5 -87t17.5 -87t48 -71.5t71.5 -48t87 -17.5q21 0 40.5 3.5t38.5 11.5q33 -28 71 -47t80 -26l-70 -70l64 -64
l-64 -192l192 192l-64 64l22 66q52 4 99.5 23t87.5 54q19 -8 38.5 -11.5t40.5 -3.5q46 0 87 17.5t71.5 48t48 71.5t17.5 87t-17.5 87t-48 71.5t-71.5 48t-87 17.5v0z" />
    <glyph glyph-name="uniE68D" unicode="&#xe68d;" 
d="M800 768q-8 0 -16 -0.5t-16 -1.5q-44 61 -111.5 95.5t-144.5 34.5t-144.5 -34.5t-111.5 -95.5q-8 1 -16 1.5t-16 0.5q-46 0 -87 -17.5t-71.5 -48t-48 -71.5t-17.5 -87t17.5 -87t48 -71.5t71.5 -48t87 -17.5q21 0 40.5 3.5t38.5 11.5q44 -38 97.5 -58.5t111.5 -20.5
t111.5 20.5t97.5 58.5q19 -8 38.5 -11.5t40.5 -3.5q46 0 87 17.5t71.5 48t48 71.5t17.5 87t-17.5 87t-48 71.5t-71.5 48t-87 17.5v0zM448 64q0 -27 18.5 -45.5t45.5 -18.5t45.5 18.5t18.5 45.5t-32 77.5l-32 50.5l-32 -50.5t-32 -77.5v0z" />
    <glyph glyph-name="uniE68E" unicode="&#xe68e;" 
d="M800 832q-8 0 -16 -0.5t-16 -1.5q-44 61 -111.5 95.5t-144.5 34.5t-144.5 -34.5t-111.5 -95.5q-8 1 -16 1.5t-16 0.5q-46 0 -87 -17.5t-71.5 -48t-48 -71.5t-17.5 -87t17.5 -87t48 -71.5t71.5 -48t87 -17.5q21 0 40.5 3.5t38.5 11.5q44 -38 97.5 -58.5t111.5 -20.5
t111.5 20.5t97.5 58.5q19 -8 38.5 -11.5t40.5 -3.5q46 0 87 17.5t71.5 48t48 71.5t17.5 87t-17.5 87t-48 71.5t-71.5 48t-87 17.5v0zM450 0q0 -27 18.5 -45.5t45.5 -18.5t45.5 18.5t18.5 45.5t-32 77.5l-32 50.5l-32 -50.5t-32 -77.5v0zM704 64q0 -27 18.5 -45.5t45.5 -18.5
t45.5 18.5t18.5 45.5t-32 77.5l-32 50.5l-32 -50.5t-32 -77.5v0zM192 192q0 -27 18.5 -45.5t45.5 -18.5t45.5 18.5t18.5 45.5t-32 77.5l-32 50.5l-32 -50.5t-32 -77.5v0z" />
    <glyph glyph-name="uniE68F" unicode="&#xe68f;" 
d="M834 628q-36 37 -83.5 57t-99.5 20t-100 -20t-84 -57q-79 -4 -134.5 -61.5t-55.5 -137.5q0 -42 16 -78t43 -63t63 -43t78 -16q8 0 17 1t17 2q31 -20 66.5 -30.5t73.5 -10.5q37 0 72.5 10.5t66.5 30.5q9 -1 17.5 -2t17.5 -1q41 0 77.5 16t63.5 43t42.5 63t15.5 78
q0 80 -55.5 137.5t-134.5 61.5v0zM288 256h-256q-13 0 -22.5 -9.5t-9.5 -22.5t9.5 -22.5t22.5 -9.5h256q13 0 22.5 9.5t9.5 22.5t-9.5 22.5t-22.5 9.5v0zM32 320h128q13 0 22.5 9.5t9.5 22.5t-9.5 22.5t-22.5 9.5h-128q-13 0 -22.5 -9.5t-9.5 -22.5t9.5 -22.5t22.5 -9.5v0z
M96 448h128q13 0 22.5 9.5t9.5 22.5t-9.5 22.5t-22.5 9.5h-128q-13 0 -22.5 -9.5t-9.5 -22.5t9.5 -22.5t22.5 -9.5v0z" />
    <glyph glyph-name="uniE690" unicode="&#xe690;" 
d="M834 818q-36 37 -83.5 57.5t-99.5 20.5t-100 -20.5t-84 -57.5q-79 -3 -134.5 -61t-55.5 -138q0 -41 16 -77.5t43 -63.5t63 -42.5t78 -15.5q8 0 17 0.5t17 2.5q31 -20 66.5 -31t73.5 -11q37 0 72.5 11t66.5 31q9 -2 17.5 -2.5t17.5 -0.5q41 0 77.5 15.5t63.5 42.5
t42.5 63.5t15.5 77.5q0 80 -55.5 138t-134.5 61v0zM288 447h-256q-13 0 -22.5 -9.5t-9.5 -22.5q0 -14 9.5 -23t22.5 -9h256q13 0 22.5 9t9.5 23q0 13 -9.5 22.5t-22.5 9.5v0zM32 511h128q13 0 22.5 9t9.5 23q0 13 -9.5 22.5t-22.5 9.5h-128q-13 0 -22.5 -9.5t-9.5 -22.5
q0 -14 9.5 -23t22.5 -9v0zM96 639h128q13 0 22.5 9t9.5 23q0 13 -9.5 22.5t-22.5 9.5h-128q-13 0 -22.5 -9.5t-9.5 -22.5q0 -14 9.5 -23t22.5 -9v0zM448 192q0 -27 18.5 -45.5t45.5 -18.5t45.5 18.5t18.5 45.5t-32 77.5l-32 50.5l-32 -50.5t-32 -77.5v0zM704 64
q0 -27 18.5 -45.5t45.5 -18.5t45.5 18.5t18.5 45.5t-32 77.5l-32 50.5l-32 -50.5t-32 -77.5v0z" />
    <glyph glyph-name="uniE691" unicode="&#xe691;" 
d="M652 73l-36 20q1 5 1.5 10t0.5 10t-0.5 9.5t-1.5 9.5l36 21q13 7 16.5 21t-3.5 27t-21.5 16.5t-26.5 -3.5l-37 -21q-7 6 -15 11t-18 8v42q0 15 -10 25t-25 10t-25 -10t-10 -25v-42q-10 -3 -18 -8t-15 -11l-37 21q-12 7 -26.5 3.5t-21.5 -16.5t-3.5 -27t16.5 -21l36 -21
q-1 -5 -1.5 -9.5t-0.5 -9.5t0.5 -10t1.5 -10l-36 -20q-13 -8 -16.5 -22t3.5 -27q7 -12 21.5 -16t26.5 3l37 21q7 -6 15 -11t18 -8v-42q0 -14 10 -24.5t25 -10.5t25 10.5t10 24.5v42q10 3 18 8t15 11l37 -21q12 -7 26.5 -3t21.5 16q7 13 3.5 27t-16.5 22v0zM512 77
q-15 0 -25 10.5t-10 25.5q0 14 10 24.5t25 10.5t25 -10.5t10 -24.5q0 -15 -10 -25.5t-25 -10.5v0zM800 832q-8 0 -16 -0.5t-16 -1.5q-44 61 -111.5 95.5t-144.5 34.5t-144.5 -34.5t-111.5 -95.5q-8 1 -16 1.5t-16 0.5q-46 0 -87 -17.5t-71.5 -48t-48 -71.5t-17.5 -87
t17.5 -87t48 -71.5t71.5 -48t87 -17.5q21 0 40.5 3.5t38.5 11.5q44 -38 97.5 -58.5t111.5 -20.5t111.5 20.5t97.5 58.5q19 -8 38.5 -11.5t40.5 -3.5q46 0 87 17.5t71.5 48t48 71.5t17.5 87t-17.5 87t-48 71.5t-71.5 48t-87 17.5v0z" />
    <glyph glyph-name="uniE692" unicode="&#xe692;" 
d="M652 73l-36 20q1 5 1.5 10t0.5 10t-0.5 9.5t-1.5 9.5l36 21q13 7 16.5 21t-3.5 27t-21.5 16.5t-26.5 -3.5l-37 -21q-7 6 -15 11t-18 8v42q0 15 -10 25t-25 10t-25 -10t-10 -25v-42q-10 -3 -18 -8t-15 -11l-37 21q-12 7 -26.5 3.5t-21.5 -16.5t-3.5 -27t16.5 -21l36 -21
q-1 -5 -1.5 -9.5t-0.5 -9.5t0.5 -10t1.5 -10l-36 -20q-13 -8 -16.5 -22t3.5 -27q7 -12 21.5 -16t26.5 3l37 21q7 -6 15 -11t18 -8v-42q0 -14 10 -24.5t25 -10.5t25 10.5t10 24.5v42q10 3 18 8t15 11l37 -21q12 -7 26.5 -3t21.5 16q7 13 3.5 27t-16.5 22v0zM512 77
q-15 0 -25 10.5t-10 25.5q0 14 10 24.5t25 10.5t25 -10.5t10 -24.5q0 -15 -10 -25.5t-25 -10.5v0zM948 167l-24 7q0 6 -1.5 11.5t-4.5 10.5l18 17q6 7 6 15.5t-6 14.5t-15 6t-15 -6l-17 -17q-6 2 -11.5 3.5t-10.5 1.5l-7 24q-2 9 -9.5 13.5t-15.5 1.5q-9 -2 -13 -9.5
t-2 -15.5l6 -24q-2 -2 -4.5 -3.5t-4.5 -4.5q-2 -2 -3.5 -4t-3.5 -4l-24 6q-8 2 -15.5 -2.5t-10.5 -12.5q-2 -8 2.5 -15.5t12.5 -10.5l24 -6q1 -6 2.5 -11.5t3.5 -10.5l-18 -18q-6 -6 -6 -14.5t7 -14.5q6 -6 14.5 -6t14.5 6l18 17q5 -2 10.5 -3.5t11.5 -2.5l6 -24
q2 -8 9.5 -12.5t16.5 -2.5q8 3 12.5 10.5t2.5 15.5l-7 24q3 2 5 3.5t4 3.5t4 4.5t4 4.5l23 -6q9 -2 16.5 2t9.5 13q2 8 -2 15.5t-13 9.5v0zM877 154q-7 -6 -15.5 -6t-14.5 6t-6 15t6 15t14.5 6t15.5 -6q6 -6 6 -15t-6 -15v0zM238 275l-24 -6q-2 2 -3.5 4t-3.5 4
q-2 3 -4.5 4.5t-4.5 3.5l6 24q3 8 -1.5 15.5t-12.5 9.5q-9 3 -16.5 -1.5t-9.5 -12.5l-7 -25q-5 0 -10.5 -1.5t-11.5 -3.5l-17 17q-6 6 -15 6t-15 -6t-6 -14.5t6 -15.5l18 -17q-3 -5 -4.5 -10.5t-1.5 -11.5l-24 -6q-9 -3 -13 -10.5t-2 -15.5q2 -9 9.5 -13t16.5 -2l23 6
q2 -2 4 -4.5t4 -4.5t4 -3.5t5 -3.5l-7 -24q-2 -8 2.5 -15.5t12.5 -9.5q9 -3 16.5 1.5t9.5 12.5l6 24q6 1 11.5 2.5t10.5 3.5l18 -17q6 -7 14.5 -6.5t15.5 6.5q6 6 6 14.5t-6 14.5l-18 18q2 5 3.5 10.5t2.5 11.5l24 6q8 3 12.5 10.5t2.5 15.5q-3 8 -10.5 12.5t-15.5 2.5v0z
M177 218q-6 -6 -14.5 -6t-15.5 6q-6 6 -6 15t6 15q7 6 15.5 6t14.5 -6t6 -15t-6 -15v0zM1024 608q0 46 -17.5 87t-48 71.5t-71.5 48t-87 17.5q-8 0 -16 -0.5t-16 -1.5q-44 61 -111.5 95.5t-144.5 34.5t-144.5 -34.5t-111.5 -95.5q-8 1 -16 1.5t-16 0.5q-46 0 -87 -17.5
t-71.5 -48t-48 -71.5t-17.5 -87t17.5 -87t48 -71.5t71.5 -48t87 -17.5q21 0 40.5 3.5t38.5 11.5q44 -38 97.5 -58.5t111.5 -20.5t111.5 20.5t97.5 58.5q19 -8 38.5 -11.5t40.5 -3.5q46 0 87 17.5t71.5 48t48 71.5t17.5 87v0z" />
    <glyph glyph-name="uniE693" unicode="&#xe693;" 
d="M800 832q-8 0 -16 -0.5t-16 -1.5q-44 61 -111.5 95.5t-144.5 34.5t-144.5 -34.5t-111.5 -95.5q-8 1 -16 1.5t-16 0.5q-46 0 -87 -17.5t-71.5 -48t-48 -71.5t-17.5 -87t17.5 -87t48 -71.5t71.5 -48t87 -17.5q21 0 40.5 3.5t38.5 11.5q44 -38 97.5 -58.5t111.5 -20.5
t111.5 20.5t97.5 58.5q19 -8 38.5 -11.5t40.5 -3.5q46 0 87 17.5t71.5 48t48 71.5t17.5 87t-17.5 87t-48 71.5t-71.5 48t-87 17.5v0zM192 320q-27 0 -45.5 -18.5t-18.5 -45.5t18.5 -45.5t45.5 -18.5t45.5 18.5t18.5 45.5t-18.5 45.5t-45.5 18.5v0zM512 256
q-27 0 -45.5 -18.5t-18.5 -45.5t18.5 -45.5t45.5 -18.5t45.5 18.5t18.5 45.5t-18.5 45.5t-45.5 18.5v0zM832 320q-27 0 -45.5 -18.5t-18.5 -45.5t18.5 -45.5t45.5 -18.5t45.5 18.5t18.5 45.5t-18.5 45.5t-45.5 18.5v0zM704 64q-27 0 -45.5 -18.5t-18.5 -45.5t18.5 -45.5
t45.5 -18.5t45.5 18.5t18.5 45.5t-18.5 45.5t-45.5 18.5v0zM320 64q-27 0 -45.5 -18.5t-18.5 -45.5t18.5 -45.5t45.5 -18.5t45.5 18.5t18.5 45.5t-18.5 45.5t-45.5 18.5v0z" />
    <glyph glyph-name="uniE694" unicode="&#xe694;" 
d="M977 465q22 -28 34.5 -62.5t12.5 -73.5q0 -46 -17.5 -87t-48 -71.5t-71.5 -48t-87 -17.5q-21 0 -40.5 4t-38.5 11q-44 -38 -97.5 -58.5t-111.5 -20.5t-111.5 20.5t-97.5 58.5q-19 -7 -38.5 -11t-40.5 -4q-46 0 -87 17.5t-71.5 48t-48 71.5t-17.5 87t17.5 87t48 71.5
t71.5 48t87 17.5q8 0 16 -0.5t16 -1.5q0 1 1 2l2 2q-1 7 -2 14.5t-1 15.5q0 74 52.5 126t125.5 52h7.5h7.5q34 43 84 67.5t107 24.5t107 -24.5t84 -67.5h7.5h7.5q73 0 125.5 -52t52.5 -126q0 -35 -12.5 -65.5t-34.5 -54.5v0z" />
    <glyph glyph-name="uniE695" unicode="&#xe695;" 
d="M1024 690q0 74 -52.5 126.5t-125.5 52.5q-4 0 -7.5 -0.5t-7.5 -0.5q-34 43 -84 67.5t-107 24.5t-107 -24.5t-84 -67.5q-4 0 -7.5 0.5t-7.5 0.5q-73 0 -125.5 -52.5t-52.5 -126.5q0 -7 1 -14.5t2 -15.5l-2 -2t-1 -2q-8 1 -16 1.5t-16 0.5q-46 0 -87 -17.5t-71.5 -48
t-48 -71t-17.5 -87.5q0 -46 17.5 -87t48 -71t71.5 -48t87 -18q21 0 40.5 4t38.5 11q28 -24 60 -40.5t67 -25.5l-46 -31l64 -64l-64 -128l192 128l-64 64l10 19q55 2 106 22t93 56q19 -7 38.5 -11t40.5 -4q46 0 87 18t71.5 48t48 71t17.5 87q0 39 -12.5 73.5t-34.5 62.5
q22 24 34.5 55t12.5 65v0z" />
    <glyph glyph-name="uniE696" unicode="&#xe696;" 
d="M576 238v588q0 29 -19 49.5t-45 20.5q-27 0 -45.5 -20.5t-18.5 -49.5v-588q-29 -16 -46.5 -45.5t-17.5 -64.5q0 -53 37.5 -90.5t90.5 -37.5t90.5 37.5t37.5 90.5q0 35 -17.5 64.5t-46.5 45.5v0z" />
    <glyph glyph-name="uniE697" unicode="&#xe697;" 
d="M711 81q11 -10 11 -25t-11 -25q-10 -10 -24.5 -10.5t-24.5 10.5l-401 405q-11 10 -11 24.5t11 25.5l401 405q10 10 24.5 10t24.5 -10q11 -11 11 -25.5t-11 -24.5l-365 -380l365 -380v0z" />
    <glyph glyph-name="uniE698" unicode="&#xe698;" 
d="M318 403h-2l-67 102l-82 121h-63v-353h70v222h3l58 -89l89 -133h64v353h-70v-223v0zM413 252h52l129 392h-52l-129 -392v0zM797 626h-71l-124 -353h75l23 73h123l21 -73h76l-123 353v0zM719 405l14 46l27 92h2l28 -93l14 -45h-85v0z" />
    <glyph glyph-name="uniE699" unicode="&#xe699;" 
d="M418 607q-5 5 -11.5 9t-13.5 7t-14.5 4.5t-15.5 1.5q-9 0 -16.5 -1.5t-14.5 -4.5t-13.5 -7t-11.5 -9q-6 -5 -10 -11t-7 -13t-4.5 -14t-1.5 -15t1.5 -15t4.5 -14t7 -13t10 -11q5 -5 11.5 -9t13.5 -7t14.5 -4.5t15.5 -1.5q9 0 16.5 1.5t14.5 4.5t13.5 7t11.5 9q6 5 10 11
t7 13t4.5 14t1.5 15t-1.5 15t-4.5 14t-7 13t-10 11v0zM388 530q-6 -5 -12 -7.5t-13 -2.5q-8 0 -14 2.5t-12 7.5q-5 5 -7.5 11t-2.5 13t2.5 13t7.5 11q6 5 12 7.5t13 2.5q8 0 14 -2.5t12 -7.5q5 -5 7.5 -11t2.5 -13t-2.5 -13t-7.5 -11v0zM670 336q-9 -2 -18 -3.5t-18 -1.5
q-6 0 -11.5 1t-11.5 3t-11 4.5t-10 6.5t-8.5 9t-6.5 11t-4.5 13.5t-1.5 15.5v103q0 9 1.5 16.5t4.5 13.5t6.5 11t8.5 9q4 4 9.5 6.5t11.5 4.5q6 1 11.5 2t11.5 1q9 0 18.5 -1t18.5 -4q10 -3 18.5 -8t17.5 -11l33 54q-10 9 -22 15.5t-27 10.5q-14 4 -28.5 6t-30.5 2
q-12 0 -24.5 -1.5t-24.5 -5.5t-22.5 -9t-20.5 -13q-9 -7 -16.5 -15.5t-13.5 -19.5t-8.5 -23t-2.5 -27v-132q0 -14 3 -26.5t9 -23.5q5 -10 13 -19t17 -16q10 -7 20.5 -12t22.5 -9t24.5 -5.5t24.5 -1.5q16 0 31 2t29 7t26 11t21 15l-33 54q-9 -7 -18 -12t-18 -8h-1z" />
    <glyph glyph-name="uniE69A" unicode="&#xe69a;" 
d="M417 605q-5 6 -11.5 10t-13.5 7q-7 2 -15 3.5t-16 1.5t-15.5 -1.5t-15.5 -3.5q-7 -3 -13 -7t-12 -10q-5 -5 -9 -11t-8 -13q-3 -7 -4.5 -14t-1.5 -15q0 -7 1.5 -14.5t4.5 -14.5q4 -7 8 -13t9 -11q6 -5 12 -9t13 -7q8 -3 15.5 -4.5t15.5 -1.5t16 1.5t15 4.5t13.5 7t11.5 9
t9.5 11t7.5 13t4.5 14.5t1.5 14.5q0 8 -1.5 15t-4.5 14t-7.5 13t-9.5 11v0zM386 528q-5 -5 -11 -7.5t-14 -2.5q-7 0 -13.5 2.5t-11.5 7.5t-7.5 11t-2.5 13t2.5 13.5t7.5 10.5q5 5 11.5 7.5t13.5 2.5q8 0 14 -2.5t11 -6.5q5 -5 8 -11.5t3 -13.5t-3 -13t-8 -11v0zM742 558v63
h-244v-352h71v143h148v63h-148v83h173v0z" />
    <glyph glyph-name="uniE69B" unicode="&#xe69b;" 
d="M678 461l-365 380q-11 10 -11 24.5t11 25.5q10 10 24.5 10t24.5 -10l401 -405q11 -10 11 -25t-11 -25l-401 -405q-10 -10 -24.5 -10t-24.5 10q-11 10 -11 25t11 25l365 380v0z" />
    <glyph glyph-name="uniE69C" unicode="&#xe69c;" 
d="M132 262q-10 -11 -25 -11t-25 11q-10 10 -10 24.5t10 24.5l405 401q10 10 25 10t25 -10l405 -401q10 -10 10 -24.5t-10 -24.5q-10 -11 -25 -11t-25 11l-380 365l-380 -365v0z" />
    <glyph glyph-name="uniE69D" unicode="&#xe69d;" 
d="M840 768q0 51 -36 87t-87 36t-87 -36t-36 -87q0 -37 19.5 -66.5t51.5 -44.5q-3 -61 -47.5 -90t-123.5 -58q-33 -13 -68.5 -27.5t-67.5 -35.5v211q32 14 52 44t20 67q0 51 -36 87t-87 36t-87 -36t-36 -87q0 -37 20 -67t52 -44v-392q-32 -15 -52 -44.5t-20 -66.5
q0 -51 36 -87t87 -36t87 36t36 87q0 37 -19.5 66.5t-51.5 44.5q3 60 47.5 89t123.5 59q39 14 80.5 32t75.5 45.5t57 67.5t25 98q31 15 51.5 45t20.5 67v0zM307 839q30 0 50.5 -21t20.5 -50t-20.5 -50t-50.5 -21q-29 0 -50 21t-21 50t21 50t50 21v0zM307 83q-29 0 -50 20.5
t-21 50.5q0 29 21 50t50 21q30 0 50.5 -21t20.5 -50q0 -30 -20.5 -50.5t-50.5 -20.5v0zM717 697q-30 0 -50.5 21t-20.5 50t20.5 50t50.5 21q29 0 50 -21t21 -50t-21 -50t-50 -21v0z" />
    <glyph glyph-name="uniE69E" unicode="&#xe69e;" 
d="M717 225q-37 0 -67 -20t-45 -51h-170q-32 0 -54.5 22.5t-22.5 53.5v198q18 -9 37.5 -13.5t39.5 -4.5h170q15 -32 45 -52t67 -20q51 0 87 36t36 87t-36 87t-87 36q-37 0 -67 -20t-45 -52h-170q-32 0 -54.5 22.5t-22.5 54.5v119q32 14 52 44t20 67q0 51 -36 87t-87 36
t-87 -36t-36 -87q0 -37 20 -67t52 -44v-478q0 -74 52.5 -126.5t126.5 -52.5h170q15 -31 45 -51t67 -20q51 0 87 36t36 86q0 51 -36 87t-87 36v0zM717 532q29 0 50 -21t21 -50q0 -30 -21 -50.5t-50 -20.5q-30 0 -50.5 20.5t-20.5 50.5q0 29 20.5 50t50.5 21v0zM307 890
q30 0 50.5 -20.5t20.5 -50.5q0 -29 -20.5 -50t-50.5 -21q-29 0 -50 21t-21 50q0 30 21 50.5t50 20.5v0zM717 31q-30 0 -50.5 21t-20.5 50q0 30 20.5 50.5t50.5 20.5q29 0 50 -20.5t21 -50.5q0 -29 -21 -50t-50 -21v0z" />
    <glyph glyph-name="uniE69F" unicode="&#xe69f;" 
d="M563 265v392q32 14 52 44t20 67q0 51 -36 87t-87 36t-87 -36t-36 -87q0 -37 20 -67t52 -44v-392q-32 -15 -52 -44.5t-20 -66.5q0 -51 36 -87t87 -36t87 36t36 87q0 37 -20 66.5t-52 44.5v0zM512 839q29 0 50 -21t21 -50t-21 -50t-50 -21t-50 21t-21 50t21 50t50 21v0z
M512 83q-29 0 -50 20.5t-21 50.5q0 29 21 50t50 21t50 -21t21 -50q0 -30 -21 -50.5t-50 -20.5v0z" />
    <glyph glyph-name="uniE6A0" unicode="&#xe6a0;" 
d="M430 768q0 51 -36 87t-87 36t-87 -36t-36 -87q0 -37 20 -67t52 -44v-392q-32 -15 -52 -44.5t-20 -66.5q0 -51 36 -87t87 -36t87 36t36 87q0 37 -20 66.5t-52 44.5v392q32 14 52 44t20 67v0zM378 154q0 -30 -20.5 -50.5t-50.5 -20.5q-29 0 -50 20.5t-21 50.5q0 29 21 50
t50 21q30 0 50.5 -21t20.5 -50v0zM307 697q-29 0 -50 21t-21 50t21 50t50 21q30 0 50.5 -21t20.5 -50t-20.5 -50t-50.5 -21v0zM768 265v392q32 14 52 44t20 67q0 51 -36 87t-87 36t-87 -36t-36 -87q0 -37 20 -67t52 -44v-392q-32 -15 -52 -44.5t-20 -66.5q0 -51 36 -87
t87 -36t87 36t36 87q0 37 -20 66.5t-52 44.5v0zM646 768q0 29 20.5 50t50.5 21q29 0 50 -21t21 -50t-21 -50t-50 -21q-30 0 -50.5 21t-20.5 50v0zM717 83q-30 0 -50.5 20.5t-20.5 50.5q0 29 20.5 50t50.5 21q29 0 50 -21t21 -50q0 -30 -21 -50.5t-50 -20.5v0z" />
    <glyph glyph-name="uniE6A1" unicode="&#xe6a1;" 
d="M922 214v119q0 74 -52.5 126.5t-127.5 52.5h-102q-32 0 -54.5 22.5t-22.5 54.5v119q32 14 52 44t20 67q0 51 -36 87t-87 36t-87 -36t-36 -87q0 -37 20 -67t52 -44v-119q0 -32 -22.5 -54.5t-54.5 -22.5h-102q-75 0 -127.5 -52.5t-52.5 -126.5v-119q-31 -15 -51 -44.5
t-20 -67.5q0 -51 36 -86.5t87 -35.5t86.5 36t35.5 86q0 38 -20 67.5t-51 44.5v119q0 32 22.5 54.5t54.5 22.5h102q21 0 40 4.5t37 13.5v-214q-32 -15 -52 -44.5t-20 -67.5q0 -51 36 -86.5t87 -35.5t87 36t36 86q0 38 -20 67.5t-52 44.5v214q18 -9 37 -13.5t40 -4.5h102
q32 0 54.5 -22.5t22.5 -54.5v-119q-31 -15 -51 -44.5t-20 -67.5q0 -51 35.5 -86.5t86.5 -35.5t87 36t36 86q0 38 -20 67.5t-51 44.5v0zM512 890q29 0 50 -20.5t21 -50.5q0 -29 -21 -50t-50 -21t-50 21t-21 50q0 30 21 50.5t50 20.5v0zM154 31q-30 0 -50.5 21t-20.5 50
q0 30 20.5 50.5t50.5 20.5q29 0 49.5 -20.5t20.5 -50.5q0 -29 -20.5 -50t-49.5 -21v0zM512 31q-29 0 -50 21t-21 50q0 30 21 50.5t50 20.5t50 -20.5t21 -50.5q0 -29 -21 -50t-50 -21v0zM870 31q-29 0 -50 21t-21 50q0 30 21 50.5t50 20.5q30 0 50.5 -20.5t20.5 -50.5
q0 -29 -20.5 -50t-50.5 -21v0z" />
    <glyph glyph-name="uniE6A2" unicode="&#xe6a2;" 
d="M135 647q67 58 137.5 84.5t214.5 -54.5q69 -40 125.5 -56t102.5 -16q82 0 138 36.5t102 75.5q16 14 17.5 35.5t-11.5 38.5q-14 16 -35 18t-37 -12q-67 -57 -137.5 -83.5t-214.5 54.5q-95 54 -166.5 65.5t-126.5 -1.5t-97 -43.5t-78 -61.5q-16 -14 -17.5 -35.5t11.5 -37.5
q14 -17 35 -19t37 12v0zM889 536q-67 -58 -137.5 -84.5t-214.5 55.5q-95 53 -166.5 65t-126.5 -1.5t-97 -43.5t-78 -61q-16 -14 -17.5 -35.5t11.5 -38.5q14 -16 35 -18t37 12q67 57 137.5 83.5t214.5 -54.5q69 -39 125.5 -55.5t102.5 -16.5q82 0 138 37t102 76
q16 14 17.5 35.5t-11.5 37.5q-14 17 -35 19t-37 -12v0zM889 274q-67 -57 -137.5 -83.5t-214.5 54.5q-95 54 -166.5 65.5t-126.5 -1.5t-97 -43.5t-78 -61.5q-16 -14 -17.5 -35.5t11.5 -37.5q14 -17 35 -19t37 12q67 58 137.5 84.5t214.5 -54.5q69 -39 125.5 -55.5
t102.5 -16.5q82 0 138 36.5t102 75.5q16 14 17.5 35.5t-11.5 38.5q-14 17 -35 18.5t-37 -12.5v0z" />
    <glyph glyph-name="uniE6A3" unicode="&#xe6a3;" 
d="M512 461q20 0 39.5 -3.5t37.5 -9.5l-311 466q-2 4 -6 6t-8 2h-182q-4 0 -6 -4t0 -8l319 -479q26 14 55.5 22t61.5 8v0zM942 922h-182q-4 0 -8 -2t-6 -6l-196 -293l103 -154l295 443q2 4 0 8t-6 4v0zM512 410q-42 0 -79.5 -16.5t-65.5 -44t-44 -65t-16 -79.5q0 -43 16 -80
t44 -65t65.5 -44t79.5 -16t79.5 16t65.5 44t44 65t16 80q0 42 -16 79.5t-44 65t-65.5 44t-79.5 16.5v0zM620 199q3 -3 2.5 -6t-3.5 -5t-3.5 -5.5t0.5 -6.5q2 -2 1 -5t-4 -5q-3 -1 -4.5 -4t-0.5 -7q1 -3 -0.5 -5.5t-4.5 -3.5t-5 -3.5t-2 -6.5q0 -3 -2 -5.5t-5 -2.5
q-4 1 -6.5 -1.5t-2.5 -6.5q0 -3 -2.5 -5t-6.5 -1q-3 1 -6 -1t-4 -5t-4 -4.5t-6 0.5q-3 1 -6.5 0t-4.5 -4q-2 -3 -5 -3.5t-6 1.5t-6 1.5t-6 -2.5q-2 -3 -5 -3t-5 3q-3 2 -6.5 2.5t-5.5 -1.5q-3 -2 -6 -1.5t-5 3.5q-1 3 -4.5 4t-6.5 0q-3 -2 -6 -0.5t-4 4.5t-4 5t-6 1
q-4 -1 -6.5 1t-2.5 5q0 4 -2.5 6.5t-6.5 1.5q-3 0 -5 2.5t-2 5.5q0 4 -2 6.5t-5 3.5t-4.5 3.5t-0.5 5.5q1 4 -0.5 7t-4.5 4q-3 2 -4 5t1 5q1 3 0.5 6.5t-3.5 5.5t-3 5t2 6q2 2 2 5.5t-2 6.5q-3 2 -2.5 5.5t3.5 4.5q3 2 3.5 5.5t-0.5 6.5q-2 3 -1 6t4 4q3 2 4.5 5t0.5 6
q-1 4 0.5 6.5t4.5 3.5q3 0 5 3t2 6q0 4 2 6t5 2q4 0 6.5 2.5t2.5 5.5q0 4 2.5 5.5t6.5 1.5q3 -1 6 0.5t4 5.5q1 3 4 4t6 0q3 -2 6.5 -0.5t4.5 4.5q2 3 5 3.5t6 -1.5t6 -2t6 3q2 3 5 3t5 -3q3 -3 6.5 -3t5.5 2q3 2 6 1.5t5 -3.5q1 -3 4.5 -4.5t6.5 0.5q3 1 6 0t4 -4
q1 -4 4 -5.5t6 -0.5q4 0 6.5 -1.5t2.5 -5.5q0 -3 2.5 -5.5t6.5 -2.5q3 0 5 -2t2 -6q0 -3 2 -6t5 -3q3 -1 5 -3.5t0 -6.5q-1 -3 0.5 -6t4.5 -5q3 -1 4 -4t0 -6q-2 -3 -1.5 -6.5t3.5 -5.5q3 -1 3.5 -4.5t-2.5 -5.5q-2 -3 -2 -6.5t2 -5.5v0z" />
    <glyph glyph-name="uniE6A4" unicode="&#xe6a4;" 
d="M954 838q-6 -2 -146 -51.5t-306 -108t-305.5 -107.5t-146.5 -52q-11 -3 -12 -11t12 -13q8 -3 39 -15.5t65.5 -26.5t62 -25l27.5 -11v0l115 -46l87 63.5t192 140.5t193 142t91 67q5 4 10 -1.5t1 -9.5q-2 -2 -65.5 -70.5t-138.5 -149.5t-137 -148.5l-62 -67.5v0l-24 -26
l31 -16l37.5 -20.5t84 -45t87 -46.5t46.5 -26q11 -5 23 -0.5t16 18.5q2 8 25 107t50 216t49.5 215t24.5 103q3 13 -4.5 20t-21.5 2v0zM358 94q0 -9 5 -11.5t12 4.5q5 4 28.5 25t49.5 44.5t47 42.5l21 19l-163 84v-208v0z" />
    <glyph glyph-name="uniE6A5" unicode="&#xe6a5;" 
d="M348 461q0 -68 48 -116t116 -48t116 48t48 116t-48 116t-116 48t-116 -48t-48 -116v0zM232 522q10 49 36 90t63 71t83.5 47.5t97.5 17.5q59 0 111.5 -23t91.5 -61q18 -18 43.5 -18t43.5 18t18 43t-18 43q-28 28 -61 50.5t-69.5 38t-77 23.5t-82.5 8q-69 0 -131 -21
t-113.5 -59.5t-89 -91t-57.5 -114.5h-121v-123h164q38 0 51.5 23t16.5 38v0zM860 461q-38 0 -51.5 -23.5t-16.5 -38.5q-10 -48 -36 -89t-63 -71.5t-83.5 -47.5t-97.5 -17q-59 0 -111.5 22.5t-91.5 61.5q-18 18 -43.5 18t-43.5 -18t-18 -43.5t18 -43.5q28 -28 61 -50
t69.5 -37.5t77 -24t82.5 -8.5q69 0 131 21.5t113.5 59.5t89 91t57.5 115h121v123h-164v0z" />
    <glyph glyph-name="uniE6A6" unicode="&#xe6a6;" 
d="M313 602l41 268h-211l-88 -230q-2 -6 -3 -12.5t-1 -13.5q0 -42 38.5 -72t93.5 -30q50 0 87 26t43 64v0zM512 512q55 0 93.5 30t38.5 72q0 2 -0.5 3.5t-0.5 3.5l-26 249h-210l-26 -249q-1 -2 -1 -3.5v-3.5q0 -42 38.5 -72t93.5 -30v0zM768 458v-202h-512v202
q-17 -6 -35.5 -9.5t-37.5 -3.5q-8 0 -15 1l-14 2v-325q0 -30 21 -51t50 -21h574q29 0 50 21t21 51v325l-14 -2t-15 -1q-19 0 -37.5 3.5t-35.5 9.5v0zM969 640l-88 230h-211l40 -268q6 -38 43.5 -64t87.5 -26q55 0 93.5 30t38.5 72q0 7 -1 13.5t-3 12.5v0z" />
    </font>
</defs>
</svg>
